<?xml version="1.0" standalone="yes"?>
<svg xmlns="http://www.w3.org/2000/svg" width="1309" height="502">
<path style="fill:#3284d0; stroke:none;" d="M0 0L0 502L1309 502L1309 0L0 0z"/>
<path style="fill:#d8cd3b; stroke:none;" d="M643 260C637.139 284.746 632.241 310.522 630.961 336C630.62 342.805 628.02 349.28 627.184 356C625.41 370.247 621.775 383.9 619.321 398C618.108 404.971 617.808 412.058 616.339 419C614.794 426.296 608.959 443.778 616.228 449.258C622.423 453.927 629.146 448.07 632.452 442.999C641.501 429.121 648.609 414.393 654.573 399C660.349 384.09 667.548 369.809 673.547 355C681.767 334.71 689.658 314.243 698.011 294C704.503 278.265 713.555 263.807 717.21 247C719.653 235.764 724.79 225.203 727.32 214C728.521 208.685 728.633 201.709 725.181 197.148C720.721 191.254 710.025 194.411 704 195.54C697.711 196.719 692.159 199.036 686 200.622C677.114 202.91 667.934 204.214 659 206.324C652.67 207.819 646.018 207.46 640 210C640 178.736 641 147.342 641 116C641 102.262 642.429 87.6179 640.575 74C639.164 63.6357 638.055 53.2637 636.324 43C635.696 39.2763 635.935 34.0786 630.985 33.4514C623.171 32.4614 620.752 44.6951 619.001 50C612.604 69.38 606.328 89.2129 601.373 109C594.691 135.689 587.077 162.149 580.989 189C578.303 200.846 575.203 212.877 574.075 225C573.303 233.297 572.688 241.748 571.714 250C571.267 253.794 570.016 258.38 573.318 261.297C577.875 265.322 585.487 263.683 591.039 264.05C608.766 265.223 625.509 261.38 643 260z"/>
<path style="fill:#ebe692; stroke:none;" d="M626 34L627 35L626 34z"/>
<path style="fill:#efe9a2; stroke:none;" d="M636 40L637 41L636 40z"/>
<path style="fill:#ede9a1; stroke:none;" d="M636 43L637 44L636 43z"/>
<path style="fill:#f0ebac; stroke:none;" d="M638 56L639 57L638 56z"/>
<path style="fill:#efe9a2; stroke:none;" d="M616 57L617 58L616 57z"/>
<path style="fill:#ede89d; stroke:none;" d="M638 58L639 59L638 58z"/>
<path style="fill:#e6e07b; stroke:none;" d="M615.333 60.6667C615.278 60.7223 615.222 61.7779 615.667 61.3333C615.722 61.2779 615.778 60.2222 615.333 60.6667z"/>
<path style="fill:#ede99f; stroke:none;" d="M639 65L640 66L639 65z"/>
<path style="fill:#ece797; stroke:none;" d="M612 71L613 72L612 71z"/>
<path style="fill:#f1eeb4; stroke:none;" d="M611 73L612 74L611 73z"/>
<path style="fill:#ede9a1; stroke:none;" d="M610 77L611 78L610 77z"/>
<path style="fill:#e8e487; stroke:none;" d="M609.333 80.6667C609.278 80.7224 609.222 81.7777 609.667 81.3333C609.722 81.2779 609.778 80.2222 609.333 80.6667z"/>
<path style="fill:#f5f2c6; stroke:none;" d="M641 82L642 83L641 82z"/>
<path style="fill:#e5de71; stroke:none;" d="M608.333 84.6667C608.278 84.7224 608.222 85.7778 608.667 85.3333C608.722 85.2779 608.778 84.2222 608.333 84.6667z"/>
<path style="fill:#f0edad; stroke:none;" d="M641 86L642 87L641 86z"/>
<path style="fill:#ffffff; stroke:none;" d="M776 93C770.908 96.485 770.154 105.366 768.265 110.961C762.372 128.412 757.312 146.411 754.096 164.561C745.543 212.838 733.094 261.986 732.141 311.145C731.919 322.605 730.993 334.94 732.59 346.31C733.704 354.237 737.695 362.079 738 370C739.443 371.473 739.794 371.968 740 374C745.287 378.79 751.076 383.916 756 389C765.922 389.647 780.215 394.537 787 384L789 385C790.857 382.92 792.283 381.655 795 381C795.89 377.691 798.529 375.653 800.622 372.96C803.182 369.666 805.035 365.923 808 363C808.428 355.709 817.757 341.225 805 339L805 337C794.903 337.987 793.437 342.894 787.561 350.271C781.488 357.895 775.771 364.04 766 366C762.406 358.264 759.174 351.542 757.457 343.004C755.228 331.922 756.623 318.694 757.599 307.514C758.811 293.628 759.318 280.077 761.579 266.271C767.435 230.514 773.412 194.667 780.471 159.131C784.846 137.104 791.373 116.508 793 94L791 94C789.688 86.7315 777.504 85.1661 776 93z"/>
<path style="fill:#efeaa5; stroke:none;" d="M641 88L642 89L641 88z"/>
<path style="fill:#ede89c; stroke:none;" d="M641 90L642 91L641 90z"/>
<path style="fill:#000000; stroke:none;" d="M777 90L778 91L777 90z"/>
<path style="fill:#ece797; stroke:none;" d="M641 92L642 93L641 92z"/>
<path style="fill:#efeaa4; stroke:none;" d="M605 93L606 94L605 93z"/>
<path style="fill:#eae58c; stroke:none;" d="M641 94L642 95L641 94z"/>
<path style="fill:#ffffff; stroke:none;" d="M204 350C214.953 359.607 224.189 368.23 239.76 367.658C246.774 367.401 255.462 361.972 254.427 354.04C253.183 344.502 242.581 346.378 235.826 344.754C229.883 343.325 226.334 339.418 223.866 334C215.378 315.369 217.474 293.575 217.775 273.765C217.967 261.202 216.974 248.504 217.724 235.96C218.702 219.586 218.245 203.256 218.743 186.845C219.269 169.522 220.341 152.326 220.213 135C220.158 127.606 220.344 120.401 220.035 112.996C219.834 108.173 219.826 103.154 216.281 99.3974C210.023 92.766 200.566 97.3985 197.929 104.961C196.127 110.13 197.1 117.155 197.179 122.565C197.33 132.836 197.2 143.126 197.2 153.4C197.2 186.93 197.639 220.43 197.33 254.001C197.09 280.159 195.619 305.875 198.591 331.986C199.328 338.465 202.98 343.799 204 350z"/>
<path style="fill:#e8e285; stroke:none;" d="M641 96L642 97L641 96z"/>
<path style="fill:#e6df79; stroke:none;" d="M641 98L641 101C641.696 99.4463 641.696 99.5537 641 98z"/>
<path style="fill:#e3db6c; stroke:none;" d="M641 102L641 107C641.83 104.97 641.83 104.03 641 102z"/>
<path style="fill:#f0eca9; stroke:none;" d="M602 103L603 104L602 103z"/>
<path style="fill:#ede9a0; stroke:none;" d="M601 107L602 108L601 107z"/>
<path style="fill:#e3db6c; stroke:none;" d="M641 108L641 111C641.696 109.446 641.696 109.554 641 108z"/>
<path style="fill:#e6e07b; stroke:none;" d="M600.333 111.667C600.278 111.722 600.222 112.778 600.667 112.333C600.722 112.278 600.778 111.222 600.333 111.667z"/>
<path style="fill:#e2da67; stroke:none;" d="M641 112L641 119C642.059 116.466 642.06 114.534 641 112z"/>
<path style="fill:#ffffff; stroke:none;" d="M458 330C462.064 330.264 466.039 331.598 469.904 329.532C477.386 325.533 476.667 316.568 476.667 309.333C476.667 298.302 477.699 281.793 485 273C486.562 256.789 509.612 246.676 518.175 263C526.99 279.805 523.177 304.263 523.151 322.576C523.14 330.483 522.134 339.456 526.189 346.671C527.974 349.847 531.521 351.456 534 354C544.106 354.691 554.895 357.083 563.244 348.978C570.091 342.33 574.789 325.705 562.946 321.049C558.379 319.253 552.362 321.44 548 323C547.909 306.537 548.77 289.745 546.63 273.4C545.741 266.616 542.034 260.582 541 254L539 254C538.685 249.537 536.146 246.093 533.24 242.729C530.787 239.889 527.985 237.155 524.83 235.094C512.365 226.952 499.152 233.497 486 234L486 236C482.073 236.357 479.899 238.369 477 241C478.439 223.897 478.326 206.58 479.658 189.439C480.763 175.218 480.681 160.922 480.67 146.67C480.665 139.961 481.77 133.783 480.942 127C480.078 119.919 473.2 109.273 465.004 114.768C459.877 118.205 459.501 125.013 459.327 130.656C458.986 141.75 459.139 153.252 458.04 164.285C454.132 203.532 452.5 243.559 452.5 283C452.5 298.315 448.775 317.022 458 330z"/>
<path style="fill:#e4dd6e; stroke:none;" d="M599.333 115.667C599.278 115.722 599.222 116.778 599.667 116.333C599.722 116.278 599.778 115.222 599.333 115.667z"/>
<path style="fill:#dbd148; stroke:none;" d="M641 120L641 158C644.105 150.601 642 139.007 642 131C642 127.298 642.441 123.435 641 120z"/>
<path style="fill:#ebe58f; stroke:none;" d="M597 123L598 124L597 123z"/>
<path style="fill:#ffffff; stroke:none;" d="M93 143L94 145C86.9441 149.952 83.5013 163.254 82.1505 171.421C78.0766 196.051 82.8517 221.188 89 245C80.9197 246.738 62.3222 247.633 63.5718 259.423C63.8192 261.758 65.0273 263.908 66 266C68.9914 265.893 72.464 268.217 75.8333 268.667C81.8715 269.472 90.2378 269.231 96 267C97.7616 274.501 103.011 282.331 103 290C105.825 293.401 107.005 297.597 107 302C110.166 305.491 111.163 310.986 112.562 315.421C115.545 324.882 122.087 336.006 122 346C126.797 351.651 127.699 359.629 131.4 365.961C136.461 374.62 154.515 380.331 155.804 365.729C157.269 349.136 142.729 335.923 142 320L140 320C140.136 313.978 136.845 307.73 135.022 302.001C130.901 289.045 127.513 275.438 122 263C131.713 262.576 140.603 260.45 150 259C149.914 256.591 150.945 256.193 153 255C152.769 249.444 154.514 244.956 150.442 240.191C148.589 238.023 145.923 236.989 144 235C134.284 235.982 124.543 236.832 115 239C113.27 227.278 108.996 215.923 108.086 204.001C107.174 192.04 109.783 180.68 110 169L112 169C112.199 166.894 112.456 166.457 114 165C115.207 155.362 128.269 151.444 135.711 156.482C146.326 163.669 157.312 183.029 157 196L159 197L158 197C158.68 201.077 162.136 203.282 165 205L164 206C169.677 205.894 174.362 205.687 180 205C181.33 203.247 182.247 202.33 184 201C184.108 197.984 185.31 195.124 185.179 192.089C184.836 184.167 180.736 176.114 177.654 169C175.894 164.94 174.816 160.502 171 158L172 156C166.105 150.254 162.393 142.706 155.999 137.21C143.847 126.763 125.708 123.241 111 130.323C104.269 133.565 99.0823 138.823 93 143z"/>
<path style="fill:#e6e07b; stroke:none;" d="M596.333 127.667C596.278 127.722 596.222 128.778 596.667 128.333C596.722 128.278 596.778 127.222 596.333 127.667z"/>
<path style="fill:#e5dc70; stroke:none;" d="M594.333 134.667C594.278 134.722 594.222 135.778 594.667 135.333C594.722 135.278 594.778 134.222 594.333 134.667z"/>
<path style="fill:#f0eca9; stroke:none;" d="M592 141L593 142L592 141z"/>
<path style="fill:#efe9a2; stroke:none;" d="M591 145L592 146L591 145z"/>
<path style="fill:#efeaa3; stroke:none;" d="M590 149L591 150L590 149z"/>
<path style="fill:#efe9a2; stroke:none;" d="M588 157L589 158L588 157z"/>
<path style="fill:#e4dd6e; stroke:none;" d="M641 158L641 161C641.696 159.446 641.696 159.554 641 158z"/>
<path style="fill:#ede99f; stroke:none;" d="M587 161L588 162L587 161z"/>
<path style="fill:#ede89c; stroke:none;" d="M641 162L642 163L641 162z"/>
<path style="fill:#e6df79; stroke:none;" d="M586.333 165.667C586.278 165.722 586.222 166.778 586.667 166.333C586.722 166.278 586.778 165.222 586.333 165.667z"/>
<path style="fill:#f5f2c9; stroke:none;" d="M641 166L642 167L641 166z"/>
<path style="fill:#e4dd6d; stroke:none;" d="M584.333 173.667C584.278 173.722 584.222 174.778 584.667 174.333C584.722 174.278 584.778 173.222 584.333 173.667z"/>
<path style="fill:#ffffff; stroke:none;" d="M1054 215C1051.57 208.847 1051.9 200.839 1047.92 195.355C1044.37 190.478 1037.01 191.666 1033.7 196.109C1028.27 203.398 1031.68 215.77 1032.72 223.999C1034.62 239.04 1033.65 253.966 1034.86 269.04C1035.71 279.76 1036.59 287.73 1044 296C1047.21 295.74 1050.72 296.018 1053.71 294.635C1061.68 290.954 1061.7 279.466 1063.16 272.039C1065.64 259.394 1067.47 246.417 1070.91 234.001C1072.63 227.771 1074.12 221.518 1079 217L1078 215L1084 211C1083.87 207.34 1088.67 205.185 1092 205C1096.37 204.757 1101.02 207.103 1105.33 205.667C1110.68 203.885 1112.16 196.424 1110.5 191.833C1107.24 182.785 1095.71 178.683 1087 181.333C1075.64 184.792 1066.67 193.204 1060 203C1057.5 206.681 1054.47 210.532 1054 215z"/>
<path style="fill:#ede9a0; stroke:none;" d="M582 181L583 182L582 181z"/>
<path style="fill:#ffffff; stroke:none;" d="M356 236C358.608 237.565 358.359 239.539 360 242C362.386 245.579 365.513 248.01 368 250C370.722 252.178 371.52 251.922 371 254C375.095 254.254 378.313 256.678 382 258.335C386.048 260.153 390.579 261.159 394 264C400.304 264.371 407.434 269.264 407.185 276.255C407.103 278.561 405.755 280.858 405 283C398.094 283.579 393.278 288.774 385.996 284.637C379.121 280.73 374.028 274.506 370.001 267.83C367.308 263.367 365.427 257.812 361.046 254.67C353.778 249.457 343.546 253.706 341.047 261.961C340.025 265.336 341.068 268.595 341 272L343 272L342 274C343.443 275.473 343.794 275.968 344 278C349.085 283.03 351.614 290.42 356.232 296C360.793 301.51 367.179 304.857 372 310C375.114 310.626 377.62 312.566 380.701 313.362C386.225 314.789 393.29 314.756 398.91 314.101C405.841 313.293 411.411 309.088 418 308C422.873 302.181 428.842 298.214 432.059 291C439.448 274.426 432.928 253.628 416.91 244.633C407.093 239.121 395.341 238.28 385.424 232.992C380.337 230.278 377.695 224.977 373 222C372.898 217.386 370.869 212.885 371.597 208.17C372.594 201.712 379.254 199.158 385 199.015C397.653 198.699 405.96 208.029 418 209C422.006 200.251 417.931 196.22 413 189C410.531 189.088 409.256 187.176 407 186C403.676 184.268 399.891 182.883 396.167 182.333C380.283 179.99 361.298 182.666 354.167 199C352.104 203.725 351.713 209.881 351.5 215C351.199 222.213 356.713 229.585 356 236z"/>
<path style="fill:#000000; stroke:none;" d="M1083 183L1084 184L1083 183z"/>
<path style="fill:#ffffff; stroke:none;" d="M298 246C295.748 244.683 294.562 244.151 292 244C291.434 241.171 286.987 240.28 284 239L282 240C282.214 240.024 278.728 238.132 278 238L276 239L276 238C273.022 238 272.87 238.478 270 239C268.239 239.32 265.637 238.318 264 239C260.691 240.379 257.127 242.873 255 245L254 244C251.407 247.685 247.766 250.508 247 255C243.786 257.259 242.788 260.716 241.378 264.285C236.07 277.718 239.739 290.285 240 304C241.802 305.929 242.643 307.377 243 310C246.368 312.94 249.277 316.451 252 320C255.969 320.614 259.118 323.225 262.999 324.283C277.285 328.18 294.972 326.102 305 314C306.276 315.667 306.636 316.052 307 318C311.945 322.476 316.313 327.806 323.424 328.752C331.388 329.812 350.351 324.844 343.83 313.16C341.456 308.905 333.249 306.162 329 304C330.249 300.253 327.229 298.688 326 295C325.214 292.641 326.202 291.01 326 290C325.746 288.73 324.141 286.265 324 285L325 285C324.36 281.161 324 276.214 324 273C324 273.347 325.918 270.984 326 270L325 269C325.412 266.116 325 265.095 325 262C325 260.586 326 258.414 326 257C326 254.852 324 251.054 324 249L325 249C325.719 244.688 323.25 238.749 322 235L323 235C322.815 233.331 321.168 231.509 321 230L322 230C321.701 229.103 320.122 227.735 320 227L321 227C320.443 223.659 320.111 222.422 318 222C318.718 216.47 315.872 208.899 311 206C310.866 200.702 305.11 196.24 300.999 193.297C289.613 185.147 277.753 182.482 264.09 185.519C258.014 186.87 247.691 191.581 247.688 198.96C247.687 201.753 249.779 204.152 252.593 204.358C255.169 204.547 257.781 202.966 260.285 202.503C265.376 201.561 271.241 201.906 276.09 203.796C288.069 208.467 292.571 219.381 295.698 230.833C296.994 235.582 298.584 241.064 298 246z"/>
<path style="fill:#000000; stroke:none;" d="M368 185L369 186L368 185z"/>
<path style="fill:#e5de71; stroke:none;" d="M580.333 190.667C580.278 190.722 580.222 191.778 580.667 191.333C580.722 191.278 580.778 190.222 580.333 190.667z"/>
<path style="fill:#efe9a2; stroke:none;" d="M579 193L580 194L579 193z"/>
<path style="fill:#f0eca9; stroke:none;" d="M712 193L713 194L712 193z"/>
<path style="fill:#eae58e; stroke:none;" d="M714.667 193.333C714.222 193.778 715.278 193.722 715.333 193.667C715.778 193.222 714.722 193.278 714.667 193.333z"/>
<path style="fill:#eae38a; stroke:none;" d="M717.667 193.333C717.222 193.778 718.278 193.722 718.333 193.667C718.778 193.222 717.722 193.278 717.667 193.333z"/>
<path style="fill:#efe9a2; stroke:none;" d="M720 193L721 194L720 193z"/>
<path style="fill:#f5f2c4; stroke:none;" d="M706 194L707 195L706 194z"/>
<path style="fill:#e7e17e; stroke:none;" d="M640.333 195.667C640.278 195.722 640.222 196.778 640.667 196.333C640.722 196.278 640.778 195.222 640.333 195.667z"/>
<path style="fill:#f0ebac; stroke:none;" d="M701 195L702 196L701 195z"/>
<path style="fill:#e5df75; stroke:none;" d="M703.667 195.333C703.222 195.778 704.278 195.722 704.333 195.667C704.778 195.222 703.722 195.278 703.667 195.333z"/>
<path style="fill:#ffffff; stroke:none;" d="M1001 255C989.619 249.386 974.021 245.761 962.051 251.845C956.538 254.647 952.84 259.39 948 263L949 265C945.373 267.262 944.078 271.048 942.695 275C939.037 285.46 941.372 295.399 940 306L942 306C941.969 310.099 943.836 313.454 945.873 316.999C953.401 330.105 966.715 333.982 981.083 331.243C985.633 330.376 989.566 327.792 994 327L997 324C997 331.347 996.502 338.999 997.558 346.289C998.321 351.563 1000.68 356.771 1001 362C1002.44 363.473 1002.79 363.968 1003 366C1010.29 369.241 1014.9 374.8 1023.53 375.559C1027.75 375.93 1031.76 373.971 1036 374C1041.71 367.289 1049.41 360.347 1050 351L1052 351C1052.29 344.719 1060.93 333.176 1055 328C1053.62 320.15 1046.02 321.571 1040 322C1038.33 324.479 1037.11 326.02 1037 329L1035 329C1034.55 336.689 1029.66 345.011 1024 350C1019.71 330.039 1023.15 310.053 1024.71 290C1025.17 283.987 1028.42 272.351 1023 268C1023.32 263.411 1022.33 258.63 1022.07 254.001C1020.96 234.125 1017.51 212.207 999.535 200.374C987.205 192.257 971.564 193.982 959 200.64C955.66 202.41 949.251 204.8 948.643 209.104C947.869 214.59 952.976 218.78 958 218.812C967.715 218.876 977.201 212.349 987.036 217.204C999.951 223.58 1000.99 242.375 1001 255z"/>
<path style="fill:#efe9a2; stroke:none;" d="M640 198L641 199L640 198z"/>
<path style="fill:#e5dc70; stroke:none;" d="M578.333 199.667C578.278 199.722 578.222 200.778 578.667 200.333C578.722 200.278 578.778 199.222 578.333 199.667z"/>
<path style="fill:#e6e07b; stroke:none;" d="M689.667 199.333C689.222 199.778 690.278 199.722 690.333 199.667C690.778 199.222 689.722 199.278 689.667 199.333z"/>
<path style="fill:#f2eeb5; stroke:none;" d="M681 201L682 202L681 201z"/>
<path style="fill:#ebe690; stroke:none;" d="M577 203L578 204L577 203z"/>
<path style="fill:#f1eeb4; stroke:none;" d="M669 203L670 204L669 203z"/>
<path style="fill:#e6e07b; stroke:none;" d="M661.667 205.333C661.222 205.778 662.278 205.722 662.333 205.667C662.778 205.222 661.722 205.278 661.667 205.333z"/>
<path style="fill:#ffffff; stroke:none;" d="M1149 211L1147 210C1138.22 220.15 1129.33 228.272 1124 241C1123.01 236.191 1121.96 231.732 1117.81 228.61C1108.77 221.798 1097.17 228.164 1095.52 238.674C1093.83 249.465 1095.77 260.91 1096.15 271.711C1096.52 282.347 1095.47 293.149 1096.42 303.76C1097.13 311.726 1099.48 320.209 1101.32 328C1102.51 333.019 1102.26 339.365 1104.57 343.96C1108.18 351.146 1117.87 352.695 1123.78 347.442C1131.25 340.798 1126.85 326.761 1127.83 318.001C1129.72 300.962 1134.12 283.904 1138.68 267.424C1140.64 260.324 1142.59 250.219 1148 245C1149.44 238.584 1156.7 230.778 1162.82 228.373C1165.73 227.228 1169 227.828 1172 227C1173.25 229.378 1174.71 231.313 1175 234L1177 234C1177.34 245.272 1182.52 256.775 1183.41 268.285C1185.77 298.945 1180.68 331.297 1190 361.13C1194.47 375.453 1206.66 396.21 1224.96 392.104C1233.63 390.159 1238.35 384.084 1245 379C1245.45 374.878 1247.99 370.962 1249.27 366.961C1252.35 357.382 1255.71 346.897 1255.63 336.745C1255.57 328.641 1249.6 322.168 1241.09 324.558C1238.35 325.329 1236.27 327.387 1234 329C1233.46 337.442 1232.54 347.216 1229.04 355.004C1227.42 358.596 1224.67 361.459 1223 365C1213.91 357.881 1212.74 343.111 1211.82 332.324C1209.53 305.552 1212.13 278.757 1207.06 252.196C1205.21 242.552 1202.97 225.576 1194 220C1191.81 206.582 1174.46 205.104 1163.72 205.305C1158.53 205.402 1152.14 206.534 1149 211z"/>
<path style="fill:#ede89c; stroke:none;" d="M657 206L658 207L657 206z"/>
<path style="fill:#f4f1c0; stroke:none;" d="M648 207L649 208L648 207z"/>
<path style="fill:#efeaa4; stroke:none;" d="M651 207L652 208L651 207z"/>
<path style="fill:#e6e07b; stroke:none;" d="M576.333 208.667C576.278 208.722 576.222 209.778 576.667 209.333C576.722 209.278 576.778 208.222 576.333 208.667z"/>
<path style="fill:#f6f5d0; stroke:none;" d="M642 208L643 209L642 208z"/>
<path style="fill:#ffffff; stroke:none;" d="M861 221L859 220C858.014 221.479 858 221.203 858 223C851.686 223.807 841.734 232.492 841 239C838.729 240.086 836.988 241.444 835 243L836 245C831.535 248.133 828.948 254.977 827.069 259.999C821.89 273.838 818.227 291.506 820.606 306.325C821.673 312.975 825.585 319.378 826 326C830.496 329.713 833.491 334.863 837.997 338.674C842.345 342.352 847.77 344.405 852 348C862.19 348.18 871.513 350.809 881.985 349.63C888.163 348.935 893.84 345.365 900 345C903.767 341.463 908.782 339.601 912.819 336.335C921.011 329.707 925.898 319.944 928.185 309.804C930.104 301.298 926.441 290.146 915.579 291.609C906.028 292.895 906.116 302.914 900.9 308.829C889.034 322.289 862.076 330.51 851.417 310.999C848.572 305.791 849.422 300.446 848 295C870.048 288.496 891.638 284.554 909.561 268.731C918.279 261.036 925.597 248.709 923.431 236.486C919.716 215.518 896.213 208.821 877.92 212.751C872.254 213.968 864.428 216.115 861 221z"/>
<path style="fill:#f0eca9; stroke:none;" d="M575 213L576 214L575 213z"/>
<path style="fill:#000000; stroke:none;" d="M1052 216L1053 217L1052 216z"/>
<path style="fill:#eae38a; stroke:none;" d="M725 219L726 220L725 219z"/>
<path style="fill:#ede89b; stroke:none;" d="M574 220L575 221L574 220z"/>
<path style="fill:#f0edae; stroke:none;" d="M573 225L574 226L573 225z"/>
<path style="fill:#000000; stroke:none;" d="M1110 226L1111 227L1110 226z"/>
<path style="fill:#eae38b; stroke:none;" d="M573 227L574 228L573 227z"/>
<path style="fill:#f9f7da; stroke:none;" d="M723 228L724 229L723 228z"/>
<path style="fill:#e6df78; stroke:none;" d="M573.333 229.667C573.278 229.722 573.222 230.778 573.667 230.333C573.722 230.278 573.778 229.222 573.333 229.667z"/>
<path style="fill:#ede9a0; stroke:none;" d="M572 235L573 236L572 235z"/>
<path style="fill:#eae38a; stroke:none;" d="M720.333 235.667C720.278 235.722 720.222 236.778 720.667 236.333C720.722 236.278 720.778 235.222 720.333 235.667z"/>
<path style="fill:#000000; stroke:none;" d="M397 238L398 239L397 238M481 238L482 239L481 238z"/>
<path style="fill:#e6df76; stroke:none;" d="M719.333 238.667C719.278 238.722 719.222 239.778 719.667 239.333C719.722 239.278 719.778 238.222 719.333 238.667z"/>
<path style="fill:#3284d0; stroke:none;" d="M875 245C867.649 245.941 857.265 257.649 857 265C852.923 267.707 851.981 273.409 851 278C855.383 277.248 859.586 275.202 864 275C874.444 265.6 893.234 264.119 898.922 249.086C904.259 234.982 879.997 237.436 875 245z"/>
<path style="fill:#efeaa4; stroke:none;" d="M571 241L572 242L571 241z"/>
<path style="fill:#e4db69; stroke:none;" d="M718.333 241.667C718.278 241.722 718.222 242.778 718.667 242.333C718.722 242.278 718.778 241.222 718.333 241.667z"/>
<path style="fill:#000000; stroke:none;" d="M1123 242L1124 243L1123 242z"/>
<path style="fill:#e6df77; stroke:none;" d="M571 243L571 246C571.696 244.446 571.696 244.554 571 243z"/>
<path style="fill:#f2f0bb; stroke:none;" d="M718 244L719 245L718 244z"/>
<path style="fill:#e6e07b; stroke:none;" d="M717.333 245.667C717.278 245.722 717.222 246.778 717.667 246.333C717.722 246.278 717.778 245.222 717.333 245.667z"/>
<path style="fill:#000000; stroke:none;" d="M298 246L299 247L298 246z"/>
<path style="fill:#e1d961; stroke:none;" d="M571 247L571 250C571.696 248.446 571.696 248.554 571 247z"/>
<path style="fill:#eae389; stroke:none;" d="M716 250L717 251L716 250z"/>
<path style="fill:#000000; stroke:none;" d="M66 252L67 253L66 252M359 254L360 255L359 254z"/>
<path style="fill:#e4dd6f; stroke:none;" d="M570 254L570 258C570.71 256.24 570.71 255.76 570 254z"/>
<path style="fill:#000000; stroke:none;" d="M999 255L1000 256L999 255z"/>
<path style="fill:#f2efb8; stroke:none;" d="M714 258L715 259L714 258z"/>
<path style="fill:#efeaa5; stroke:none;" d="M639 260L640 261L639 260z"/>
<path style="fill:#f0ecaa; stroke:none;" d="M572 261L573 262L572 261z"/>
<path style="fill:#dfd655; stroke:none;" d="M627 261C628.506 261.683 629.315 261.826 631 262C629.494 261.317 628.685 261.174 627 261z"/>
<path style="fill:#ede89d; stroke:none;" d="M632 261L633 262L632 261z"/>
<path style="fill:#f0ecaa; stroke:none;" d="M642 261L643 262L642 261z"/>
<path style="fill:#ebe693; stroke:none;" d="M625 262L626 263L625 262z"/>
<path style="fill:#ede9a1; stroke:none;" d="M619 263L620 264L619 263z"/>
<path style="fill:#ece798; stroke:none;" d="M593 264L594 265L593 264z"/>
<path style="fill:#eae38b; stroke:none;" d="M597 264L598 265L597 264z"/>
<path style="fill:#f2eeb5; stroke:none;" d="M600 264L601 265L600 264z"/>
<path style="fill:#efeaa4; stroke:none;" d="M605 264L606 265L605 264z"/>
<path style="fill:#f2eeb5; stroke:none;" d="M608 264L609 265L608 264z"/>
<path style="fill:#e5de73; stroke:none;" d="M641.333 264.667C641.278 264.722 641.222 265.778 641.667 265.333C641.722 265.278 641.778 264.222 641.333 264.667z"/>
<path style="fill:#ede89b; stroke:none;" d="M711 264L712 265L711 264z"/>
<path style="fill:#3284d0; stroke:none;" d="M297 277C293.111 273.997 289.269 270.929 285 268.465C281.608 266.506 277.218 264.463 273.184 265.293C267.891 266.382 265.749 273.391 264.96 277.985C264.127 282.832 263.399 289.321 265.421 293.949C268.742 301.553 279.04 300.815 284.975 297.163C287.809 295.419 290.553 293.182 292.535 290.482C295.408 286.571 296.098 281.646 297 277z"/>
<path style="fill:#e8e487; stroke:none;" d="M709 268L710 269L709 268z"/>
<path style="fill:#ffffff; stroke:none;" d="M284 269L285 270L284 269z"/>
<path style="fill:#3284d0; stroke:none;" d="M964 304C965.641 305.572 966.751 307.083 968 309C971.626 308.766 975.375 308.75 979 309C982.836 305.299 987.588 302.016 992 299C993.021 294.444 996.596 290.12 1000 287C1000.07 285.125 1000.4 283.792 1001 282C998.808 280.849 997.421 280.242 995 280C995 278.203 994.986 278.478 994 277L992 278C985.625 268.925 970.59 270.368 965.709 279.986C961.735 287.818 963.736 295.775 964 304z"/>
<path style="fill:#e6e07a; stroke:none;" d="M638.333 277.667C638.278 277.722 638.222 278.778 638.667 278.333C638.722 278.278 638.778 277.222 638.333 277.667z"/>
<path style="fill:#ede89c; stroke:none;" d="M637 283L638 284L637 283z"/>
<path style="fill:#e7e180; stroke:none;" d="M702 283L703 284L702 283z"/>
<path style="fill:#efe9a2; stroke:none;" d="M636 289L637 290L636 289z"/>
<path style="fill:#e8e282; stroke:none;" d="M698 292L699 293L698 292z"/>
<path style="fill:#f1eeb5; stroke:none;" d="M635 295L636 296L635 295z"/>
<path style="fill:#ece794; stroke:none;" d="M635 297L636 298L635 297z"/>
<path style="fill:#e8e285; stroke:none;" d="M696 297L697 298L696 297z"/>
<path style="fill:#ece796; stroke:none;" d="M695 300L696 301L695 300z"/>
<path style="fill:#f0ecaa; stroke:none;" d="M634 303L635 304L634 303z"/>
<path style="fill:#eae38a; stroke:none;" d="M693 305L694 306L693 305z"/>
<path style="fill:#000000; stroke:none;" d="M417 306L418 307L417 306z"/>
<path style="fill:#f2efba; stroke:none;" d="M633 313L634 314L633 313z"/>
<path style="fill:#e7e180; stroke:none;" d="M690 313L691 314L690 313z"/>
<path style="fill:#e5dc70; stroke:none;" d="M633.333 315.667C633.278 315.722 633.222 316.778 633.667 316.333C633.722 316.278 633.778 315.222 633.333 315.667z"/>
<path style="fill:#e8e283; stroke:none;" d="M688 318L689 319L688 318z"/>
<path style="fill:#f0ecaa; stroke:none;" d="M632 319L633 320L632 319z"/>
<path style="fill:#000000; stroke:none;" d="M262 323L263 324L262 323M1051 323L1052 324L1051 323M1248 325L1249 326L1248 325z"/>
<path style="fill:#f6f5d0; stroke:none;" d="M685 326L686 327L685 326z"/>
<path style="fill:#f0ebac; stroke:none;" d="M631 327L632 328L631 327z"/>
<path style="fill:#f2efb9; stroke:none;" d="M684 328L685 329L684 328z"/>
<path style="fill:#f7f6d5; stroke:none;" d="M682 334L683 335L682 334z"/>
<path style="fill:#f5f2c6; stroke:none;" d="M630 335L631 336L630 335z"/>
<path style="fill:#e8e285; stroke:none;" d="M680 337L681 338L680 337z"/>
<path style="fill:#e7e181; stroke:none;" d="M630.333 338.667C630.278 338.722 630.222 339.778 630.667 339.333C630.722 339.278 630.778 338.222 630.333 338.667z"/>
<path style="fill:#f0edad; stroke:none;" d="M629 343L630 344L629 343z"/>
<path style="fill:#e8e283; stroke:none;" d="M676 346L677 347L676 346z"/>
<path style="fill:#efe9a2; stroke:none;" d="M628 349L629 350L628 349z"/>
<path style="fill:#f5f4c9; stroke:none;" d="M675 350L676 351L675 350z"/>
<path style="fill:#ffffff; stroke:none;" d="M866 351L867 352L866 351z"/>
<path style="fill:#e7e17e; stroke:none;" d="M626.333 362.667C626.278 362.722 626.222 363.778 626.667 363.333C626.722 363.278 626.778 362.222 626.333 362.667z"/>
<path style="fill:#f6f4ca; stroke:none;" d="M670 362L671 363L670 362z"/>
<path style="fill:#f0edae; stroke:none;" d="M669 364L670 365L669 364z"/>
<path style="fill:#000000; stroke:none;" d="M243 366L244 367L243 366z"/>
<path style="fill:#e8e283; stroke:none;" d="M668 366L669 367L668 366z"/>
<path style="fill:#efeaa3; stroke:none;" d="M625 367L626 368L625 367z"/>
<path style="fill:#000000; stroke:none;" d="M1035 372L1036 373L1035 372z"/>
<path style="fill:#f0edae; stroke:none;" d="M624 373L625 374L624 373z"/>
<path style="fill:#e8e282; stroke:none;" d="M663 377L664 378L663 377z"/>
<path style="fill:#e3db6c; stroke:none;" d="M623.333 379.667C623.278 379.722 623.222 380.778 623.667 380.333C623.722 380.278 623.778 379.222 623.333 379.667z"/>
<path style="fill:#efeaa4; stroke:none;" d="M661 382L662 383L661 382z"/>
<path style="fill:#ece89a; stroke:none;" d="M622 383L623 384L622 383z"/>
<path style="fill:#efe9a2; stroke:none;" d="M659 386L660 387L659 386z"/>
<path style="fill:#f0edad; stroke:none;" d="M621 387L622 388L621 387z"/>
<path style="fill:#e5de72; stroke:none;" d="M620.333 392.667C620.278 392.722 620.222 393.778 620.667 393.333C620.722 393.278 620.778 392.222 620.333 392.667z"/>
<path style="fill:#f5f4c9; stroke:none;" d="M656 394L657 395L656 394z"/>
<path style="fill:#e8e487; stroke:none;" d="M653 401L654 402L653 401z"/>
<path style="fill:#eae58e; stroke:none;" d="M651.333 405.667C651.278 405.722 651.222 406.778 651.667 406.333C651.722 406.278 651.778 405.222 651.333 405.667z"/>
<path style="fill:#f1edb1; stroke:none;" d="M617 411L618 412L617 411z"/>
<path style="fill:#e2d964; stroke:none;" d="M616.333 417.667C616.278 417.722 616.222 418.778 616.667 418.333C616.722 418.278 616.778 417.222 616.333 417.667z"/>
<path style="fill:#ece89a; stroke:none;" d="M615 421L616 422L615 421z"/>
<path style="fill:#e8e285; stroke:none;" d="M643 423L644 424L643 423z"/>
<path style="fill:#e0d85d; stroke:none;" d="M614 427L614 431C614.71 429.241 614.71 428.759 614 427z"/>
<path style="fill:#f4f0bd; stroke:none;" d="M641 428L642 429L641 428z"/>
<path style="fill:#eae58e; stroke:none;" d="M639 430L640 431L639 430z"/>
<path style="fill:#ebe692; stroke:none;" d="M612 440L613 441L612 440z"/>
<path style="fill:#eae38a; stroke:none;" d="M612.333 442.667C612.278 442.722 612.222 443.778 612.667 443.333C612.722 443.278 612.778 442.222 612.333 442.667z"/>
<path style="fill:#eae38b; stroke:none;" d="M630 445L631 446L630 445z"/>
<path style="fill:#f5f2c6; stroke:none;" d="M613 447L614 448L613 447z"/>
<path style="fill:#000000; stroke:none;" d="M624 450L625 451L624 450z"/>
<path style="fill:#ece89a; stroke:none;" d="M625 450L626 451L625 450z"/>
<path style="fill:#efe9a2; stroke:none;" d="M621 451L622 452L621 451z"/>
<path style="fill:#f7f5d3; stroke:none;" d="M624 451L625 452L624 451z"/>
</svg>
