<svg id="Layer_1" data-name="Layer 1" xmlns="http://www.w3.org/2000/svg" viewBox="0 0 200 100"><defs><style>.cls-1{fill:#f37d7f;}.cls-2{fill:#fff;}</style></defs><title>font_me_banner</title><rect class="cls-1" width="200" height="100"/><path class="cls-2" d="M88.94,35.57H74.09v9.52H86.5a3.7,3.7,0,0,1,2.58.78,2.63,2.63,0,0,1,.85,2.07A2.6,2.6,0,0,1,89.07,50a3.78,3.78,0,0,1-2.57.76H74.09V63a4.92,4.92,0,0,1-1,3.46,3.83,3.83,0,0,1-5.44,0,4.94,4.94,0,0,1-1-3.45V34.38A6.33,6.33,0,0,1,67,31.72a3,3,0,0,1,1.51-1.49,6.25,6.25,0,0,1,2.63-.47H88.94a3.83,3.83,0,0,1,2.68.8,2.68,2.68,0,0,1,.88,2.09,2.71,2.71,0,0,1-.88,2.12A3.88,3.88,0,0,1,88.94,35.57Z"/><path class="cls-2" d="M110.68,61.37l-6-23.72v25.7a4.7,4.7,0,0,1-.95,3.2,3.51,3.51,0,0,1-5,0,4.63,4.63,0,0,1-1-3.21V33.9c0-1.63.42-2.73,1.27-3.29a6,6,0,0,1,3.43-.85h2.33a8.73,8.73,0,0,1,3.06.38,2.53,2.53,0,0,1,1.41,1.37,21.82,21.82,0,0,1,1,3.22l5.41,20.39,5.41-20.39a20.67,20.67,0,0,1,1-3.22,2.53,2.53,0,0,1,1.41-1.37,8.73,8.73,0,0,1,3.06-.38H129a6.07,6.07,0,0,1,3.43.85c.85.56,1.27,1.66,1.27,3.29V63.35a4.7,4.7,0,0,1-1,3.2,3.26,3.26,0,0,1-2.55,1.06,3.19,3.19,0,0,1-2.47-1.06,4.65,4.65,0,0,1-1-3.2V37.65l-6,23.72c-.39,1.54-.7,2.67-1,3.39a4.78,4.78,0,0,1-1.36,2,4,4,0,0,1-2.74.88,4,4,0,0,1-3.66-2,8.57,8.57,0,0,1-.8-2C111.08,62.9,110.88,62.15,110.68,61.37Z"/></svg>