<svg version="1.1" class="kg-logo" xmlns="http://www.w3.org/2000/svg" xmlns:xlink="http://www.w3.org/1999/xlink" x="0px" y="0px" viewBox="299.5 0 193 31" enable-background="new 299.5 0 193 31" xml:space="preserve">
	<g class="kg-logo__fill" fill="#000">
        <polygon points="299.5,0 299.5,8.1 311,19.4 322.3,30.9 330.4,30.9 314.9,15.4 		"></polygon>
        <polygon points="299.5,19.6 299.5,30.9 310.8,30.9 305.2,25.1 		"></polygon>
        <polygon points="311,0 319.4,8.4 327.8,0 319.4,0 		"></polygon>

        <path d="M352.3,13.8l7.2-8.3h4.8l-8.1,9.1l8.8,10.5h-5.1l-7-8.8l-0.5,0.5v8.3h-3.8V5.6h3.8V13.8z"></path>
        <path d="M370,15.4c0-5.7,4.6-10.3,10.5-10.3c5.9,0,10.5,4.5,10.5,10.2s-4.6,10.2-10.5,10.2
			C374.6,25.6,370,21.2,370,15.4z M374,15.4c0,3.7,2.9,6.8,6.5,6.8c3.7,0,6.5-3,6.5-6.8c0-3.7-2.9-6.7-6.5-6.7
			C377,8.8,374,11.8,374,15.4z"></path>
        <path d="M399.1,25.3v-20h2.7l11.9,13.7V5.7h3.8v20h-2.7l-11.9-13.7v13.2H399.1z"></path>
        <path d="M435.2,17l6.2,8.3h-4.8l-5.3-7.8h-0.5v7.8h-3.8V5.6h5.7c2.1,0,3.8,0.5,4.9,1.4c1.3,1,1.9,2.7,1.9,4.5
			c0,2.1-0.8,3.8-2.2,4.8C436.7,16.5,436.3,16.7,435.2,17z M430.9,14.6h1.1c2.4,0,3.8-1,3.8-3s-1.3-2.9-3.7-2.9h-1.1v5.9H430.9z"></path>
        <path d="M461.8,21.3h-8l-1.8,4.1h-4l8.4-20h2.9l8.3,20h-4.1L461.8,21.3z M460.7,18.1l-2.7-7l-2.9,7H460.7z"></path>
        <path d="M475,25.3V5.6h5.6c6.2,0,10.5,4,10.5,9.7c0,2.9-1.3,5.7-3.5,7.6c-1.9,1.6-4,2.2-7,2.2H475V25.3z M478.8,22
			h1c2.5,0,4-0.5,5.3-1.6c1.3-1.3,2.1-3,2.1-4.9c0-1.9-0.8-3.7-2.1-4.9c-1.3-1.1-2.7-1.6-5.3-1.6h-1V22z"></path>
    </g>
</svg>