<?xml version="1.0" encoding="utf-8"?>
<!-- Generator: Adobe Illustrator 24.0.1, SVG Export Plug-In . SVG Version: 6.00 Build 0)  -->
<svg version="1.1" id="Layer_1" xmlns="http://www.w3.org/2000/svg" xmlns:xlink="http://www.w3.org/1999/xlink" x="0px" y="0px"
	 viewBox="0 0 3200 2832.3" style="enable-background:new 0 0 3200 2832.3;" xml:space="preserve">
<style type="text/css">
	.st0{fill:#C75036;}
	.st1{enable-background:new    ;}
	.st2{fill:#FFFFFF;}
	.st3{fill-rule:evenodd;clip-rule:evenodd;fill:#F6C049;}
	.st4{fill-rule:evenodd;clip-rule:evenodd;fill:#FCED6E;}
	.st5{fill-rule:evenodd;clip-rule:evenodd;fill:#DD8938;}
	.st6{fill-rule:evenodd;clip-rule:evenodd;fill:#D27127;}
	.st7{fill-rule:evenodd;clip-rule:evenodd;fill:#FCFBFA;}
</style>
<path class="st0" d="M0,0v2832.3h3200V0H0z"/>
<g class="st1">
	<path class="st2" d="M709.4,140.6l85.1,245h1.3l84.5-245h64.3v462.8h-66.3V322h-1.3l-65.6,198.9h-33.1l-65-198.9H712v281.4h-66.3
		V140.6H709.4z"/>
	<path class="st2" d="M1150.7,140.6l103.3,462.8h-66.3l-19.5-99.4h-90.3l-19.5,99.4h-66.3l103.3-462.8H1150.7z M1089.6,441.6h66.3
		l-32.5-167.7h-1.3L1089.6,441.6z"/>
	<path class="st2" d="M1445.8,273.2V255c0-42.2-25.3-52-40.9-52c-35.8,0-41,27.3-41,52v240.5c0,21.5,9.1,45.5,40.3,45.5
		c13,0,41.6-5.2,41.6-48.8v-20.8h66.3v26.7c0,61.1-47.4,109.2-105.3,109.2c-68.2,0-109.2-41.6-109.2-106.6V242
		c0-57.8,42.9-105.3,107.9-105.3c33.2,0,59.2,13.6,76.7,31.8c18.2,19.5,29.9,42.2,29.9,84.5v20.1H1445.8z"/>
	<path class="st2" d="M1725.3,273.2V255c0-42.2-25.3-52-40.9-52c-35.8,0-41,27.3-41,52v240.5c0,21.5,9.1,45.5,40.3,45.5
		c13,0,41.6-5.2,41.6-48.8v-20.8h66.3v26.7c0,61.1-47.4,109.2-105.3,109.2c-68.2,0-109.2-41.6-109.2-106.6V242
		c0-57.8,42.9-105.3,107.9-105.3c33.2,0,59.2,13.6,76.7,31.8c18.2,19.5,29.9,42.2,29.9,84.5v20.1H1725.3z"/>
	<path class="st2" d="M2078.9,496.8c0,63.7-49.4,110.5-111.1,110.5c-61.1,0-111.1-45.5-111.1-110.5V247.2
		c0-64.3,49.4-110.5,111.1-110.5c61.1,0,111.1,45.5,111.1,110.5V496.8z M1922.9,495.5c0,28.6,19.5,45.5,44.8,45.5
		c25.4,0,44.8-16.9,44.8-45.5v-247c0-28.6-19.5-45.5-45.5-45.5c-23.4,0-44.2,16.2-44.2,44.8V495.5z"/>
	<path class="st2" d="M2220.6,140.6v462.8h-66.3V140.6H2220.6z"/>
	<path class="st2" d="M2361,140.6l100.1,278.8h1.3V140.6h66.3v462.8h-62.4l-101.4-278.2h-1.3v278.2h-66.3V140.6H2361z"/>
</g>
<g id="svgg">
	<path id="path0" class="st3" d="M1785.8,892c1.7,0.8,6.5,1.3,5.7,0.6c-0.2-0.2-2-0.6-3.9-0.9C1785.1,891.3,1784.6,891.4,1785.8,892
		 M1800.1,894.7c1,0.4,2.4,0.8,3.1,0.8c0.8,0,0.7-0.3-0.4-0.8c-1-0.4-2.4-0.8-3.1-0.8C1798.8,894,1799,894.2,1800.1,894.7
		 M1815.3,898.3c1,0.4,2.4,0.8,3.1,0.8c0.8,0,0.7-0.3-0.4-0.8c-1-0.4-2.4-0.8-3.1-0.8C1814,897.5,1814.2,897.8,1815.3,898.3
		 M1822.5,900c2.6,1.1,8.3,2,6.7,1.1c-0.7-0.4-2.9-1-4.9-1.3C1822,899.4,1821.4,899.5,1822.5,900 M1832.8,902.8c3.1,1,5.4,1,3.1,0
		c-1-0.4-2.6-0.8-3.6-0.7C1830.9,902,1831,902.2,1832.8,902.8 M1839.5,904.6c1,0.4,2.4,0.8,3.1,0.8c0.8,0,0.7-0.3-0.4-0.8
		c-1-0.4-2.4-0.8-3.1-0.8C1838.2,903.8,1838.4,904.1,1839.5,904.6 M1849.8,906.9c0,0.2,0.9,0.7,2,1.1c3.1,1.1,7.4,2.1,6.9,1.5
		C1857.9,908.9,1849.8,906.4,1849.8,906.9 M1860.9,910.8c2.7,1.2,4.9,1.2,3.1,0c-0.7-0.5-2.2-0.8-3.1-0.8l-1.8,0L1860.9,910.8
		 M1879.7,916.6c4.9,1.7,9,3,9.2,2.8c0.4-0.4-11.9-4.8-15.4-5.4C1872,913.7,1874.8,914.9,1879.7,916.6 M1894.5,921.4
		c0,0.8,10.9,4.8,11.5,4.2c0.2-0.2-0.3-0.7-1.3-1s-3.6-1.3-5.9-2.2C1896.4,921.5,1894.5,921,1894.5,921.4 M1907.1,926.4
		c0.2,0.2,5.6,2.4,12,5c6.4,2.6,14.2,5.8,17.3,7.3c3.1,1.4,7.8,3.5,10.3,4.6c24.4,10.3,75.9,39.1,100.3,56
		c13.1,9.1,31.3,22,31.8,22.5c0.2,0.3,2.1,1.7,4.1,3.2c2,1.5,5.4,4.1,7.6,5.9c2.2,1.8,7.8,6.4,12.4,10.3c26.7,22,64.5,59.2,81.3,80
		c1,1.2,2.6,3,3.5,4c2.4,2.5,19.8,24.4,22.5,28.2c1.2,1.7,2.4,3.3,2.7,3.6c0.3,0.2,2.1,2.7,4.1,5.4c1.9,2.7,4,5.4,4.7,6.1
		c0.6,0.7,1.1,1.5,1.1,1.8c0,0.4,0.7,1.4,1.6,2.4c0.9,1,3.2,4.2,5,7.1c1.9,2.9,3.7,5.6,4,5.8c1,0.7,19.1,29.5,22.9,36.2
		c1.9,3.4,4.1,7.3,5,8.6c0.9,1.3,2.9,4.9,4.6,8.1c1.7,3.2,4.4,8.2,6,11.1c5.4,9.8,22.4,44.4,22.4,45.6c0,0.2,1.2,3,2.7,6.3
		c1.5,3.2,2.7,6.1,2.7,6.3c0,0.3,1,2.7,2.2,5.4s2.2,5.1,2.2,5.3s0.8,2.1,1.7,4.2c2.9,6.5,6.3,16.2,6.8,19.1c0.3,1.6,1.5,5.8,2.8,9.4
		s3.1,9.2,4.1,12.4c1,3.2,2.6,8,3.5,10.7c1.6,4.7,5.8,19.3,8.6,29.5c0.7,2.7,1.7,6.3,2.2,8.1c0.7,2.7,3.2,13.2,6.2,26.4
		c0.4,2,1.5,7,2.3,11.2s1.8,9.2,2.2,11.2c1.5,6.8,5.9,36,8,53.2c8.4,70,6.8,141.7-4.8,220.5c-0.7,4.9-1.3,9.4-1.4,10
		c0,0.9-17.6,11.3-36.2,21.3c-3.4,1.9-8.3,4.5-10.7,5.8c-10.4,5.6-30.6,16-32.7,16.8l-2.3,0.9l1.2-5.1
		c8.9-37.4,15.1-78.1,19.3-125.8c1.8-20.7,1.5-88.4-0.5-110.5c-11.1-123.5-48.8-231.8-113.3-325.6c-13.1-19-39.2-53-42.1-54.8
		c-0.9-0.6-1.7-1.5-1.7-2.1s-3.4-4.1-7.6-7.9c-4.2-3.8-7.4-7.3-7.1-7.8c0.3-0.5,0.2-0.7-0.3-0.6c-0.4,0.1-5.2-3.8-10.6-8.8
		c-57.6-53.3-109.2-85.9-180.1-114c-143.1-56.6-326.9-55.9-491,1.8c-409.6,144.1-662.8,591.3-553.6,977.6
		c9.6,34.1,30.5,82.8,52,121.4c78.5,140.8,209.7,246.1,362.8,290.9c13.2,3.9,12.3,4.4-1.3,0.9c-125.8-32.9-234.8-101.4-319.6-200.9
		c-56.8-66.6-101.6-151.7-126.5-240.5c-13.3-47.5-19-79.9-24.8-141.3c-1.5-15.7-1.5-85.5,0-102c3.6-40.4,5.2-53.4,10.1-80.9
		c4-22.4,4.1-22.9,6.6-34.4c1.3-5.9,2.7-12.3,3.1-14.3c0.4-2,1.6-6.6,2.6-10.3c1-3.7,2.2-8.5,2.8-10.7c5.9-25.4,25.2-81,40-115.4
		c11.3-26.2,34.4-72.8,41.9-84.3c1.2-1.8,2.2-3.5,2.2-3.7s2.8-5.2,6.3-11c87.7-146.4,210.3-260.5,361.2-336.3
		c12.1-6.1,21.5-11,21-11c-4.8,0-72.3,36.7-101.1,55c-31.1,19.8-90.4,64-101.5,75.6c-0.2,0.3-3.5,3.1-7.2,6.3
		c-3.7,3.2-6.9,6-7.2,6.3s-3.3,3-6.7,6.2c-78,71.8-142.3,156.7-189.6,250.5c-7.3,14.4-10.8,21.8-19.1,40.2
		c-26.6,59-50.7,140.8-60.1,203.9c-4.9,32.7-7.6,60.1-8.6,86.6c-0.3,9-1,16.6-1.4,16.8c-0.9,0.6-25.8-15.1-49.9-31.3
		c-9.1-6.1-16.7-11-16.9-10.8c-0.8,0.8-1.4,27.1-1.4,58.1c0,45.3,1.1,63.7,5.8,101.1c2.2,16.8,2.7,21,3.5,25.7
		c0.5,2.8,1.3,7.7,1.9,10.7c0.5,3.1,1.3,7.4,1.8,9.6c0.5,2.2,1.7,8.2,2.7,13.4c1,5.2,2.2,10.8,2.6,12.5c0.4,1.7,1.1,4.9,1.6,7.2
		c0.9,4.1,4.9,19.4,6.5,25c0.5,1.7,1.3,4.7,1.8,6.7c4.5,18.7,24.6,74.6,34.3,95.7c1.6,3.4,4,8.9,5.5,12.1
		c2.8,6.4,18.6,37.7,21.8,43.4c1.1,2,3.1,5.6,4.4,8.1c1.3,2.5,2.6,4.6,3,4.8c0.4,0.2,0.7,0.6,0.7,1.1c0,2.4,32.1,52.8,36.4,57.1
		c0.6,0.6,1.6,2.1,2.2,3.1c1,1.8,20.2,27.4,21.2,28.4c0.3,0.2,3.1,3.7,6.3,7.6c3.2,3.9,6,7.4,6.3,7.6c0.3,0.2,1.8,2.1,3.5,4
		c14.4,17,41.4,44.8,56,57.8c2.5,2.2,5.3,4.7,6.3,5.7c12.9,12.2,51.6,42,74,57.1c285.7,192.2,681.5,154.4,973.3-92.9
		c47.2-40,102-96.9,133.2-138.2c1-1.3,6-7.9,11.2-14.8c33.4-44,63.3-91.9,89.1-143c9.3-18.5,17.3-35.4,22.9-48.7
		c1.9-4.7,4.3-10.2,5.2-12.2c4.1-9,17.2-44.1,22.7-60.7c14.8-44.8,27.2-94.3,33.5-134.2c1-6.4,2.2-13.8,2.7-16.5
		c0.5-2.7,1.1-6.6,1.3-8.6c0.3-2,1.1-8.2,1.8-13.9c1.3-10.2,2.6-23.2,4.2-42.9c1.5-17.8,2-85.5,0.8-103.8
		c-2.2-34.5-3.6-47.1-8.8-81.6c-0.7-4.5-0.6-5,0.6-4.4c0.8,0.4,6.2,3.1,12.1,5.9c16.7,8,29.3,14,42.9,20.6
		c32.6,15.7,29.3,15,26.6,5.4c-1.4-5.2-3.8-14.8-4.2-17.5c-0.2-1.3-0.8-3.4-1.3-4.7c-0.5-1.3-0.6-2.4-0.3-2.4c0.4,0,0.2-0.3-0.4-0.7
		s-1.2-2.1-1.5-3.8c-0.2-1.7-0.9-4.1-1.3-5.4s-0.9-2.4-0.9-2.7c0-0.2-0.2-1.1-0.5-1.8c-0.2-0.7-1.1-3.8-1.9-6.7s-1.8-6.2-2.2-7.2
		c-0.4-1-2.2-6.4-4-12c-4.2-13.2-14.8-41.7-18.9-50.6c-2-4.5-8.5-19.4-10.1-23.3c-0.8-2-1.8-3.7-2.2-3.9s-0.7-0.7-0.7-1.2
		c0-1-9-19.3-11.7-23.6c-0.9-1.5-1.4-3-1.1-3.3c0.3-0.3,0.2-0.6-0.3-0.6s-1.9-2.1-3.1-4.7c-1.2-2.6-2.5-4.8-2.8-5
		c-0.4-0.2-0.7-0.7-0.7-1.1c0-0.8-8.9-16.9-9.8-17.8c-0.3-0.2-1.1-1.4-1.8-2.7c-4.7-8.3-13.6-22.5-14.5-23.3
		c-0.3-0.2-1.3-1.9-2.1-3.6c-0.9-1.7-1.9-3.3-2.2-3.6c-0.3-0.2-3.5-4.7-7-9.8c-11.6-17-32.4-44.6-38.1-50.6
		c-0.5-0.5-2.9-3.3-5.4-6.2c-12.1-14.2-20.4-23.1-39.3-42c-17.3-17.3-32.5-31.8-41.1-39.2c-1-0.9-3.1-2.7-4.6-4.1
		c-3.1-2.8-30.9-27.2-34.8-30.6c-1.4-1.2-3.1-2.6-3.6-3.1c-0.6-0.5-4-3.5-7.7-6.7c-3.7-3.2-6.9-6-7.1-6.3c-0.2-0.3-3.1-2.7-6.2-5.4
		c-3.2-2.7-6.6-5.7-7.7-6.7c-1-1-4.4-4-7.5-6.7c-3.1-2.7-6.1-5.3-6.6-5.8c-0.9-0.8-11.7-9.9-16.5-14c-1.1-0.9-6-4.8-10.7-8.4
		c-4.8-3.7-9.3-7.2-10-7.8s-4.2-3.1-7.6-5.5c-3.4-2.4-6.7-4.7-7.1-5.1c-7-5.3-25.2-17.5-33.1-22.2c-2-1.2-3.8-2.4-4-2.6
		c-0.2-0.3-1.4-1.1-2.7-1.8c-1.2-0.7-7.1-4.1-13-7.5c-18.2-10.5-50.4-27.2-65.7-33.9c-1.7-0.8-5.4-2.4-8.3-3.7
		c-2.8-1.3-5.4-2.3-5.7-2.3s-1.9-0.6-3.6-1.3c-7.3-3.2-9.1-4-13.8-5.7C1908.7,926.2,1906.2,925.5,1907.1,926.4 M1612.5,949.9
		c1.1,0.2,2.9,0.2,4,0c1.1-0.2,0.2-0.4-2-0.4C1612.3,949.5,1611.4,949.7,1612.5,949.9 M1660.8,949.9c1.1,0.2,2.9,0.2,4,0
		c1.1-0.2,0.2-0.4-2-0.4C1660.6,949.5,1659.7,949.7,1660.8,949.9 M1594.7,950.8c1.6,0.2,4,0.2,5.4,0c1.3-0.2,0-0.4-2.9-0.4
		C1594.2,950.5,1593.1,950.6,1594.7,950.8 M1677.8,950.8c1.6,0.2,4.2,0.2,5.8,0c1.6-0.2,0.3-0.4-2.9-0.4
		C1677.5,950.5,1676.2,950.6,1677.8,950.8 M1581.7,951.7c0.9,0.2,2.3,0.2,3.1,0s0.2-0.4-1.6-0.4S1580.8,951.5,1581.7,951.7
		 M1571.4,952.6c1.1,0.2,2.9,0.2,4,0s0.2-0.4-2-0.4C1571.2,952.2,1570.3,952.4,1571.4,952.6 M1702,952.6c1.1,0.2,2.9,0.2,4,0
		c1.1-0.2,0.2-0.4-2-0.4S1700.9,952.4,1702,952.6 M1719.4,954.4c0.9,0.2,2.3,0.2,3.1,0s0.2-0.4-1.6-0.4
		C1719.3,954,1718.6,954.1,1719.4,954.4 M1546.8,955.3c0.9,0.2,2.3,0.2,3.1,0c0.9-0.2,0.2-0.4-1.6-0.4
		C1546.6,954.8,1545.9,955,1546.8,955.3 M1422.7,981.5c-1.1,0.5-1.3,0.8-0.4,0.8c0.7,0,2.2-0.3,3.1-0.8c1.1-0.5,1.3-0.8,0.4-0.8
		C1425.1,980.7,1423.7,981,1422.7,981.5 M1399,989.1c-1.7,0.7-2.5,1.2-1.8,1.2c0.7,0,2.6-0.5,4-1.2
		C1404.7,987.5,1403.1,987.5,1399,989.1 M1381.3,995.1c-4.1,1.5-7.2,2.9-7.1,3.1c0.4,0.4,15.8-5.1,15.8-5.6
		C1390.1,991.9,1388.8,992.3,1381.3,995.1 M1360.2,1003.1c-6.3,2.5-11.3,4.7-11.1,4.8c0.3,0.3,23.1-8.3,23.8-9.1
		C1374,997.9,1370.9,998.9,1360.2,1003.1 M1916.8,1008.8c1.2,0.7,2.6,1.3,3.1,1.3s-0.1-0.6-1.3-1.3c-1.2-0.7-2.6-1.3-3.1-1.3
		C1915,1007.5,1915.6,1008,1916.8,1008.8 M1342.2,1010.5c-2.5,1.2-4.1,2.1-3.6,2.1c0.5,0,2.9-0.9,5.4-2.1c2.5-1.2,4.1-2.1,3.6-2.1
		C1347.1,1008.4,1344.7,1009.4,1342.2,1010.5 M1333.3,1014.5c-2,0.9-3.3,1.7-3,1.8c0.9,0.1,7-2.6,7-3.1
		C1337.3,1012.6,1337.3,1012.6,1333.3,1014.5 M1323.6,1018.5c-2.4,1.1-4.6,2.3-4.9,2.7c-0.8,0.8,4.8-1.5,8.4-3.4
		C1331,1015.7,1328.5,1016.2,1323.6,1018.5 M1938.3,1019c1.7,0.9,3.5,1.7,4,1.7s-0.5-0.8-2.2-1.7s-3.5-1.7-4-1.7
		S1936.6,1018.1,1938.3,1019 M1988.8,1047.2c1,0.8,2.6,1.8,3.6,2.3l1.8,0.9l-1.8-1.4c-1-0.8-2.6-1.8-3.6-2.3l-1.8-0.9L1988.8,1047.2
		 M2000,1054.2c0,0.2,1.7,1.5,3.8,2.9c2.1,1.4,3.3,1.9,2.8,1.2C2005.5,1057,2000,1053.6,2000,1054.2 M2013.4,1063.2
		c0,0.2,1.2,1.3,2.7,2.4c1.5,1.1,2.7,1.7,2.7,1.5s-1.2-1.3-2.7-2.4C2014.7,1063.6,2013.4,1062.9,2013.4,1063.2 M2019.7,1067.7
		c0,0.2,1.2,1.3,2.7,2.4c1.5,1.1,2.7,1.7,2.7,1.5c0-0.2-1.2-1.3-2.7-2.4C2020.9,1068.1,2019.7,1067.4,2019.7,1067.7 M2056.1,1096.1
		c6.1,5.1,7.1,5.7,2.5,1.4c-2.5-2.3-4.8-4.2-5.2-4.2C2053.1,1093.3,2054.3,1094.6,2056.1,1096.1 M2065.3,1103.3c0,0.2,3.9,4,8.7,8.3
		c4.8,4.4,7.9,7,6.9,5.8C2078.8,1115,2065.3,1102.8,2065.3,1103.3 M2083.3,1120.3c0.2,0.1,6.4,6.1,13.8,13.2l13.4,13l-13-13.2
		c-7.1-7.3-13.3-13.2-13.8-13.2C2083.3,1120.1,2083.1,1120.2,2083.3,1120.3 M2116.8,1154.1c1.9,2,3.7,3.6,3.9,3.6s-1.1-1.6-3.1-3.6
		c-1.9-2-3.7-3.6-3.9-3.6S2114.8,1152.1,2116.8,1154.1 M1556,1166.7c-5.1,25.1-5.1,54-0.1,68.3c4.6,13.2,10.3,17.5,28.2,21.4
		c74.3,16.1,110.8,51.5,128.9,124.8c0.9,3.7,1.1,3.9,2.2,2.3c0.8-1,1.2-1.2,1.2-0.5c0,2.2,2.6-0.8,2.8-3.4c0.2-1.3,0.8-2.4,1.3-2.4
		s1.4-0.4,1.8-0.8c0.4-0.5,0.3-0.6-0.4-0.2c-0.6,0.3-1.1,0.2-1.1-0.2c0-0.9,1.7-2.3,2.8-2.3c0.3,0,0.9-0.4,1.3-0.8
		c0.4-0.5,0.2-0.5-0.5-0.1c-0.8,0.5-1.1,0.3-0.8-0.5c0.2-0.7,0.8-1.2,1.4-1.2c0.5,0,1.3-0.4,1.7-0.8c0.4-0.5,0.2-0.5-0.5-0.1
		c-0.8,0.5-1.1,0.3-0.8-0.5c0.2-0.7,0.8-1.2,1.4-1.2s1.3-0.4,1.7-0.8c0.4-0.5,0.3-0.5-0.4-0.2c-1.5,0.9-1.4-0.4,0.3-2.8
		c0.8-1.1,1.8-1.8,2.2-1.5c0.5,0.3,0.6,0,0.4-0.7c-0.2-0.6,0.4-2.2,1.4-3.4c1.3-1.6,1.7-1.7,1.3-0.6c-0.3,1-0.2,1.4,0.4,1
		c0.5-0.3,0.7-1.2,0.4-1.9c-0.6-1.5,2-5.9,3.1-5.2c0.4,0.2,1.2-0.3,1.9-1.1c1.1-1.4,1.1-1.4-0.3-0.3c-0.9,0.7-1.6,1-1.6,0.7
		c0-1.4,7.4-12.1,8.1-11.7c0.4,0.3,1,0,1.4-0.6c0.4-0.7,0.3-0.8-0.4-0.4c-1.9,1.2-1.1-0.5,7.6-15c17.9-29.8,35.2-66.9,41-88.1
		c2-7.4,2.1-7.6,2.2-3.7c0.2,5.7,1.3,2.6,3.3-9.4c1.4-8.6,1.5-9.7,0.2-10.6c-0.8-0.6-1.9-3.9-2.6-7.7c-0.6-3.7-1.9-8.2-2.9-10.1
		l-1.7-3.3l2.2,1c1.2,0.6,2.2,1.4,2.2,1.8s0.6,0.8,1.2,0.8c3.9,0,18.9,19.5,25.1,32.7c15.8,33.6,22.9,95.2,17.7,152.9
		c-1.5,16.8-4.8,45-7,59.3l-0.6,3.8l2.5-1.3c1.4-0.7,9.6-8.3,18.2-16.8c16.1-15.9,23.1-22.2,35-31.6c3.7-2.9,6.9-5.5,7.2-5.8
		c2.1-2.3,27.8-19.5,35.2-23.6c23.8-13.2,49.8-22.4,42.6-15.2c-0.5,0.5-2.6,4.3-4.8,8.4c-5,9.7-10.5,19.8-11.3,21
		c-0.4,0.5-3.1,5.5-6,11.2c-2.9,5.7-6.3,11.9-7.4,13.9s-3.6,6.6-5.6,10.3c-2,3.7-4.8,8.9-6.3,11.6c-3.4,6.2-7.3,13.6-12.6,23.6
		c-2.3,4.3-4.7,8.8-5.4,9.8c-1.1,1.7-4.2,7.3-8.3,14.9c-0.7,1.2-1.2,2.7-1.2,3.3c0,0.6-0.3,1.1-0.7,1.1s-1.2,1.3-1.9,2.9
		s-1.5,3.1-1.8,3.3c-0.3,0.2-1.4,2.3-2.5,4.5c-1.1,2.2-3.6,7-5.7,10.7s-5.4,9.9-7.5,13.9c-2.1,3.9-4.8,9-6,11.2
		c-1.2,2.2-3.9,7.2-6.1,11.2c-2.1,3.9-4.8,9-6.1,11.2c-1.2,2.2-3.5,6.4-5.1,9.4c-1.6,2.9-4.7,8.8-6.9,13c-2.2,4.2-5.3,9.8-6.8,12.5
		c-1.5,2.7-4.1,7.5-5.7,10.7s-3.1,6-3.4,6.3s-1.1,1.7-1.8,3.1s-1.5,2.9-1.8,3.1s-1.3,2.3-2.4,4.5c-1.1,2.2-3.6,7-5.7,10.7
		s-5.5,10.1-7.8,14.3c-4.2,7.9-7.8,14.4-12.8,23.9c-1.9,3.5-3.2,5.2-3.7,4.5c-1-1.6-0.9-0.4,0.7,5.4c8.1,31.1,9.5,83,3,116.4
		c-1.2,6-2.7,4.9-1.6-1.2c18.7-109.5-33.8-229.2-128.6-293.3c-87.3-59-218.3-34.7-310.5,57.6c-98.3,98.4-149.7,228.9-138.2,351.5
		c0.7,7.1,1.2,13,1.1,13.1c-0.4,0.5-33.3-9.1-33.9-9.9c-1.2-1.5,0.1-59.2,1.6-76.1c1.8-20.1,5.1-45.4,7.3-57.3l0.5-2.7l-8.6-2.4
		c-56.6-16-89.8-50.4-90.2-93.3c-0.1-10.3-1.2-16.6-1.5-8.4c0,1.2-0.4,3-0.9,4c-1.4,2.9,0-11.7,1.9-19.8
		c3.4-14.7,10.7-33.2,12.6-32.1c0.6,0.3,1.3,0.1,1.7-0.5c1.1-1.8,2.2,0.8,6.8,16c0.9,3.1,2.4,6.1,3.3,6.5c0.9,0.5,2.2,2.3,2.9,4.1
		c1.7,4,1.7,4.8,0,2.6c-1.8-2.4-1.7-1,0.2,2c4.7,7.5,11.7,11.3,19.1,10.5c28.2-3.1,47.9-16.9,74.9-52.5c22-29,34-37.3,58-40.1
		c4.4-0.5,10.7-1.3,13.9-1.8l5.8-0.8l-5.2,0.4c-5.2,0.4-5.2,0.4-10.3-4.1c-31.7-28.1-50.7-71.6-50.1-114.4c0.1-5.7,0.3-8.5,0.4-6.3
		c3.1,46.6,27.6,90.1,65.6,116.4c6.4,4.5,7.8,5.8,6.5,6.3c-2.7,1.1-0.1,0.8,3-0.3l2.9-1.1l-6.4-4.4c-44.5-30.6-67.9-74.7-68.1-128.4
		c0-10-0.3-16.9-0.7-15.2c-0.3,1.7-1,5-1.5,7.5c-0.8,4.2-0.8,4-0.4-2.2c2-32.1,14.9-70.2,36.1-106.9c6.7-11.5,14.7-24,13.9-21.5
		c-0.3,0.9-0.2,2,0.3,2.3c0.9,0.6,0.7,2-2.1,12.1c-0.8,2.9-1.3,6.3-1.1,7.3c0.2,1.1,0.1,1.8-0.3,1.6c-1.1-0.7-1.8,5.8-1.7,17
		c0,6.5,0.3,9.8,0.8,8.5c1-3.2,17.5-30.4,18.4-30.4c0.2,0-0.5,2.3-1.5,5.2c-4.2,12.1-6.8,24.3-7.6,35.7l-0.6,8.7l-2.1-2.6
		c-1.2-1.4-2.1-2.3-2.1-2c0,1.6,15.6,18.6,20.6,22.3c9.6,7.3,31.2,12.7,32.4,8.1c0.2-0.9,1.1-4.2,1.8-7.4c2.8-11.8,9.6-40,10.9-45.3
		l1.4-5.5l-2.7-6.2c-1.5-3.4-3.2-7.1-3.8-8.3c-0.8-1.5-10.9-7.5-32.6-19.2c-17.3-9.4-31.3-17.2-31.2-17.4c0.1-0.2,15.9,3.6,35,8.3
		l34.7,8.6l8.2-3.7l8.2-3.7l4.4-8.2c2.4-4.5,7-13.2,10.2-19.4c15.1-28.9,19.2-36.5,19.6-36.2c0.2,0.2-0.9,5.3-2.4,11.3
		c-1.5,6.1-4.3,17.7-6.3,25.8c-2,8.1-4.6,19-5.8,24.2l-2.3,9.4l3.8,8.4c3.5,7.8,4.1,8.5,8.2,10.7c14.7,7.8,58.5,31.8,58.3,32
		c-0.1,0.1-14.1-3.2-31-7.3c-16.9-4.2-32.6-8-34.8-8.6c-3.8-0.9-4.5-0.8-12,2.6l-8,3.6l-7.1,13.3c-3.9,7.3-10.1,19.1-13.8,26.1
		l-6.8,12.9l4.8-0.5c2.7-0.3,9.8-1.2,16-2c21.7-2.9,24.8-3.2,43.4-3.7c47.1-1.3,85.8,8.8,113.8,30c4.6,3.4,7.8,5.4,7.3,4.4
		c-1.4-2.6-0.6-2.9,2.1-0.8c2.3,1.8,2.3,1.8-1.1-6.9c-17.6-45.4-27-95.2-25.8-136.2c0.4-14.3,0.1-15.3-1.9-4.9
		c-0.8,4.1-0.8,3.9-0.4-2.2c2.7-39.7,19-74.2,44.9-94.6C1557.7,1158.6,1557.7,1158.6,1556,1166.7 M1569.5,1183.8
		c-3.1,12.5-5.4,36.7-4.8,50.7c0.4,10,0.3,11-0.8,9.4c-5.1-6.8-8.1-18.1-8.9-33.6c-0.8-16-0.7-16.7,7.1-23.1
		C1569.1,1181.3,1570.3,1180.8,1569.5,1183.8 M1798.8,1215.2l0,4.7l-1.7-4.5c-0.9-2.5-2.2-5.2-2.7-6.1c-0.9-1.5-0.8-1.5,1.8-0.2
		C1798.6,1210.4,1798.8,1210.8,1798.8,1215.2 M1841.6,1257.8c13.4,34,18.5,86.8,14,145.2c-1.8,22.6-1.4,21.3-9.1,29.6
		c-7.8,8.3-7.7,8.4-6-2.8c9.8-67,9.5-128.9-0.8-171.7C1837.2,1248.4,1837.8,1248.2,1841.6,1257.8 M1507.2,1303.5
		c2.6,25.3,9.2,54.7,18.6,82.8l6,18l-4-2.9c-4.6-3.3-4.8-3.7-10.7-26.8c-7.7-29.4-11.8-57.6-11.5-78.7c0.1-5.9,0.3-8.7,0.4-6.3
		C1506.2,1292.1,1506.7,1298.3,1507.2,1303.5 M1290.3,1304.8c-0.7,1.9-1.3,2.9-1.3,2c0-1.6,1.8-6.3,2.3-5.8
		C1291.5,1301.2,1291,1302.9,1290.3,1304.8 M1715.5,1371.3c2.6,6.2,3.8,12.3,2,10.4c-0.7-0.7-2.2-5.4-5.2-16.1
		C1711.4,1362.3,1712.7,1364.7,1715.5,1371.3 M2047.8,1377.6c4.1,2.8,18.4,17.5,18.4,18.9c0,0.5-2,0.8-4.5,0.8s-8.4,0.8-13.2,1.9
		c-47.9,10.4-79.2,45.6-87.8,98.7c-0.6,3.4-1.2,7.3-1.4,8.5c-0.2,1.2-0.8,13.3-1.2,26.8c-1.6,47.1-7.2,78.8-19.3,108.9l-3.2,8
		l-10.5,2.9c-5.8,1.6-14.3,4.4-19,6.2l-8.5,3.3l6.9-6.6c28-26.7,41.2-72.8,44.6-154.9c2.5-62.9,29.2-106.7,73.4-120.7
		C2041.4,1374.5,2042.9,1374.3,2047.8,1377.6 M1579.2,1564.2c70.1,10.8,126.5,74.2,143.8,161.4c4.4,22.3,4.6,24.5,4.6,51.4
		c0,29.9-0.3,31.5-6.9,43.7c-2.5,4.5-5.8,10.6-7.3,13.6s-3,5.6-3.3,5.8s-1.8,3.1-3.4,6.3s-4.7,9-6.9,13c-2.2,3.9-4.9,9-6,11.2
		c-1.1,2.2-2.2,4.2-2.4,4.5s-1.4,2.3-2.6,4.5c-3.1,5.8-7.4,13.9-11,20.6c-1.7,3.2-4.7,8.6-6.6,12.1c-1.9,3.4-4.8,8.9-6.5,12.1
		c-3.8,7.1-9.2,17.3-13.6,25c-1.8,3.2-3.8,6.9-4.4,8.2c-3.1,6.1-114.8,4.1-187.9-3.3c-34.9-3.6-32.3-3-33.9-6.9
		c-24.1-60-20.3-110.2,11.8-158.3c54.9-82.2,127.3-98.1,157.8-34.8c8.2,17.1,2.2,47.7-12.4,62.5c-7.3,7.4-23.6,14.5-33.3,14.6
		l-2.6,0l3.3-3.6c24.2-26.8,11.1-64.8-20.1-58.2c-28.6,6.1-52.2,40.4-57.2,83c-7.1,61.2,56.9,102.3,112.9,72.5
		c12.9-6.9,33.7-24.8,39.8-34.4c0.8-1.3,1.8-2.7,2.1-2.9c5.9-4.6,22.5-39,28.1-58.2c44.7-153.7-82.5-252.7-202.1-157.2
		c-54.4,43.4-95.6,108.5-108.1,170.9c-6,29.9-6.4,72.2-0.9,92.7c0.7,2.5,1.6,2.6-24.7-2.7c-24.6-4.9-22.7-4.2-23.4-8.9
		c-2.4-15.5-0.3-63.1,3.8-87.6C1327.1,1672.9,1457.8,1545.5,1579.2,1564.2 M1104.8,1686.2c5.9,29.9,30,55.6,67,71.2
		c8.7,3.7,25.5,9.3,27.7,9.3c2.6,0,2.8,1.3,1.7,8.9c-0.8,5.2-0.8,7.5-0.1,8.4c0.5,0.7,0.8,1.4,0.5,1.7c-0.3,0.3-1.1,5.1-1.9,10.7
		s-1.7,12.4-2.2,15.1l-0.8,4.9l0.4-5.8c0.5-6.9,1.8-18.1,2.7-22.1c0.5-2.3,0.3-2.9-0.8-2.9c-1.5,0-12.6-4.2-18.9-7.2
		c-31-14.5-37.2-18.2-49.8-30.2c-19.2-18.3-27.8-37.9-27.5-62.8c0.1-5.2,0.3-8.2,0.4-6.7C1103.7,1680.1,1104.3,1683.6,1104.8,1686.2
		 M2055,1708.9c6.2,14,12.6,49.2,8.4,46.6c-0.7-0.4-3.6-2.4-6.5-4.3c-3.9-2.6-5.4-3.2-5.9-2.4c-0.5,0.9-1.8,0.3-5.2-2.1
		c-15.9-11.5-41.6-5.7-60.3,13.6c-8.9,9.2-9.3,9.9-13.2,23.7c-19.5,67.8-51.2,115.5-82.3,123.8c-9.6,2.6-9.7,2.8-4.5,16.1
		c12.9,33,11.6,53-4.4,70.2c-20.5,21.9-39.3,60.1-43.4,88.3c-0.8,5.5-1.2,10.4-0.9,11c1.3,2.1-1,0.6-3-1.9
		c-7.8-9.9-8.4-32.7-1.4-52.2c11-30.6,23.2-52.2,39.4-69.3c15.9-16.9,17-35.7,4-70.1c-4.4-11.6-4.4-13.3,0-14
		c33.5-5.7,72.8-64.8,89.6-134.7c1.7-7.1,17-22.7,27.1-27.6c16.3-8,35.8-5.8,53,5.9c4.1,2.8,5.3,3.1,5.9,1.4
		c0.3-0.9,0.7-0.8,1.9,0.1c2.2,1.8,1.9-9.9-0.8-23.4C2051.4,1702.8,2052.5,1703.3,2055,1708.9 M1238,1897.3c0.2,0.2,2.1,2.5,4,4.9
		c9.7,12.2,12.2,14.8,14.7,15.8c2.8,1.1,13.8,4,21.1,5.6c2.9,0.6,8.2,1.9,11.7,2.7l6.4,1.6l1.5,11.3c7,52.7,23.9,91.8,55.1,127.6
		c62.7,71.9,183.3,103.5,259.6,68c4.5-2.1,9.9-4.4,11.8-5c21.7-7,55.1-24.7,76.2-40.4c7.8-5.8,10.1-7,10.1-5.4c0,0.4,2,2.9,4.4,5.6
		c8,8.9,8.6,7.8-13.8,27.4c-70,61.2-128.5,84.7-193.2,77.4c-100-11.3-167.8-48.4-215-117.8c-31.5-46.3-55.4-117.3-59.6-177.1
		l-0.6-8.9l2.6,3.1C1236.4,1895.5,1237.7,1897.1,1238,1897.3 M1194.6,1902.2c0.7,0.6,1.5,5.8,2.2,14.8c1.5,19.6,4.1,41.3,6.5,53.7
		c4.8,24.8,10.3,46,16.7,63.9c7.4,20.8,18.1,44.7,25.6,57.2c1.7,2.9,3.2,5.4,3.2,5.7c0,1.3,19.7,29.5,26.4,38
		c14.5,18.1,37.1,39.4,53.2,50c20.7,13.7,70.5,33.8,97.5,39.5c41.8,8.8,79.1,10.2,112.7,4.3c12.2-2.1,19.8-3.7,26.4-5.4
		c3.9-1,8.4-2.2,9.8-2.6c68-17.6,160.1-84.8,205.1-149.6c2.3-3.3,4.6-6,5.2-6c2.6-0.1,9.9,10,15.9,21.9c9.9,19.4,17,23.1,35.1,17.9
		c1.7-0.5,2.2,0.1,3.8,3.8c2.3,5.3,7.1,10.3,11.8,12.4c5.5,2.5,4.5,4-4.8,7.6c-9.7,3.7-22,2.8-26.3-1.9c-0.8-0.9-2.5-1.7-3.6-1.7
		c-7.4,0-12.9-5.5-20.6-20.8l-5.3-10.5l-9.5,11.9c-68.2,85.6-158.1,139.6-249,149.6c-49.2,5.4-106.8-4.1-155.2-25.7
		c-8.4-3.8-11.3-5-16.1-7c-99.5-41.9-165.9-161.9-168.6-304.9c-0.2-11.6-0.2-20,0.1-18.8C1193.2,1900.3,1193.9,1901.8,1194.6,1902.2
		 M1371.7,1942.4c25,4.1,28.7,4.7,40.7,6.3c14.2,1.9,13.9,1.8,15.5,5.2c22.6,47.5,87.7,75.2,148.6,63.1
		c22.7-4.5,41.2-11.6,54.2-20.9l4.1-2.9l2.2,2.4c1.2,1.3,3.8,4.4,5.8,6.8c4.4,5.5,6.4,7.9,9.9,12c1.5,1.8,5.3,6.4,8.5,10.3
		c3.2,3.9,6.7,8.1,7.8,9.2c1.1,1.1,2,2.3,2,2.7c0,0.3,1.4,2.2,3.1,4.1c3.7,4.2,3.7,4.2,0.7,6.9c-33.6,29.9-57.8,42.6-96.2,50.5
		c-111.3,22.8-197.6-34.1-227.8-150.2l-2.5-9.7l2.4,0.5C1351.9,1939.1,1361.4,1940.7,1371.7,1942.4"/>
	<path id="path1" class="st4" d="M1603.4,878.3c-1,0.2-8.8,0.7-17.4,1.2c-21.1,1.3-30,2.1-58.1,5.8c-10.6,1.4-17.1,2.4-26.4,4.1
		c-2.9,0.5-7.6,1.4-10.4,1.8c-4.5,0.8-21.8,4.3-30.3,6.2c-1.7,0.4-5.9,1.3-9.4,2.1c-5.6,1.2-27,6.7-34,8.7c-1.5,0.4-4.1,1.2-5.8,1.6
		c-1.7,0.5-5.9,1.7-9.4,2.8c-3.4,1.1-8.1,2.5-10.3,3.1c-2.2,0.7-5.8,1.8-8.1,2.6c-2.2,0.8-7.2,2.4-11.2,3.7
		c-13,4.3-49.1,17.8-51,19.2c-0.5,0.3-2.9,1.3-5.4,2.2s-7,2.8-10.1,4.2c-3.1,1.4-5.8,2.5-6.1,2.5c-0.3,0-4.2,1.8-8.7,3.9
		c-4.5,2.2-10.2,4.8-12.6,5.9c-6.5,2.9-35.2,17.2-39.3,19.7c-2,1.1-6,3.4-8.9,4.9c-2.9,1.6-6.8,3.7-8.5,4.6c-1.7,1-5,2.8-7.3,4.1
		c-2.3,1.3-5.8,3.3-7.8,4.6s-3.9,2.3-4.2,2.3s-2.2,1.1-4.3,2.5c-6.8,4.4-7.3,4.7-8.9,5.3c-0.9,0.3-1.6,0.8-1.6,1.2s-0.7,0.9-1.6,1.2
		c-1.5,0.5-18.2,10.9-22.7,14.2c-1.2,0.8-5.3,3.7-9.2,6.4c-17.1,11.7-21.9,15.1-24.3,17.1c-1.4,1.2-2.8,2.2-3.1,2.2
		s-1.1,0.5-1.8,1.1c-0.7,0.6-3.4,2.7-6.1,4.7s-6.2,4.5-7.7,5.8c-3.8,3.1-5.6,4.5-9.8,7.6c-2,1.4-3.8,2.8-4,3.1
		c-0.2,0.3-3.5,2.9-7.2,5.8c-3.7,2.9-6.9,5.5-7.2,5.8s-2.5,2.1-4.9,4.1c-2.5,2-6.7,5.6-9.4,7.9c-2.7,2.4-6.1,5.4-7.6,6.7
		c-11.9,10.3-28,25.4-44.7,41.8c-7.1,7-26.1,27-34,35.7c-4.4,4.9-8.2,9.1-8.5,9.4s-2.5,2.9-4.9,5.8c-2.5,2.9-4.9,5.8-5.4,6.3
		c-0.5,0.5-3.8,4.3-7.2,8.5c-3.4,4.2-6.6,8.1-7.1,8.7c-2.2,2.7-3.2,3.9-9.7,12.3c-3.8,4.9-7.4,9.6-8,10.3
		c-3.7,4.7-10.3,13.8-18.7,25.5c-5.3,7.4-10.7,15-12.1,17c-5.1,7.1-26.2,40.6-26.2,41.5c0,0.5-0.3,1-0.7,1c-0.4,0-1.1,0.9-1.7,2
		c-0.5,1.1-3.8,6.9-7.3,12.9c-9.3,16-14.4,25.6-25.9,48.1c-5.9,11.5-19.8,41.1-19.8,42.1c0,0.2-1,2.7-2.3,5.5s-2.9,6.4-3.5,7.8
		c-0.7,1.5-2.1,4.9-3.1,7.6c-1,2.7-2.4,6.1-3.1,7.6c-0.7,1.5-3.3,8.3-5.8,15.2c-2.5,6.9-5,13.3-5.4,14.3c-0.4,1-2.5,6.8-4.5,13
		c-2,6.2-4.2,12.6-4.8,14.3c-0.6,1.7-1.8,5.5-2.7,8.5c-0.8,2.9-2.2,7.6-3.1,10.3c-2.2,6.7-4.1,13.4-6.3,21.9c-1,3.9-2.2,8.2-2.6,9.4
		c-0.4,1.2-1.8,6.9-3.1,12.5c-1.3,5.7-3.2,13.7-4.2,17.9c-1,4.2-2.2,9.2-2.6,11.2c-0.5,2-1.2,6-1.7,8.9c-0.5,2.9-1.7,9.4-2.7,14.3
		c-1,4.9-2.4,13.4-3.2,18.8s-1.8,12.4-2.3,15.7c-2.8,18.4-6,48.6-6.1,56c0,3.3,66.1,48.1,68.7,46.5c0.4-0.3,1-7.8,1.4-16.8
		c1-26.4,3.7-53.8,8.6-86.6c9.4-63.1,33.5-144.9,60.1-203.9c8.3-18.4,11.8-25.8,19.1-40.2c47.3-93.8,111.6-178.7,189.6-250.5
		c3.4-3.2,6.5-6,6.7-6.2c0.2-0.2,3.5-3.1,7.2-6.3c3.7-3.2,6.9-6,7.2-6.3c4.3-4.5,42-34.3,59.2-46.7c43.7-31.7,100.8-65.1,143.8-84.2
		c94.1-41.8,170.6-61.9,268.8-70.4c17.7-1.5,88.7-1.5,104.6,0c24.2,2.3,38,3.9,52.2,6c288.2,43.2,499.7,263.3,537.6,559.4
		c5,39.1,6.8,107,3.8,141.8c-4.1,47.7-10.4,88.4-19.3,125.8l-1.2,5.1l2.3-0.9c1.3-0.5,8.2-3.9,15.3-7.7c11.9-6.2,15.5-8.1,29.5-15.7
		c18.2-9.9,34.9-19.7,34.9-20.6c0-0.6,0.6-5.1,1.4-10c10.6-71.6,13-145.4,6.7-204.4c-2.7-24.8-7.5-59.4-9.8-69.3
		c-0.4-2-1.4-7-2.2-11.2c-0.8-4.2-1.8-9.2-2.3-11.2c-3-13.1-5.5-23.7-6.2-26.4c-0.5-1.7-1.4-5.3-2.2-8.1
		c-2.8-10.2-6.9-24.8-8.6-29.5c-0.9-2.7-2.5-7.5-3.5-10.7s-2.9-8.8-4.1-12.4c-1.3-3.6-2.5-7.8-2.8-9.4c-0.5-2.9-3.9-12.7-6.8-19.1
		c-0.9-2.1-1.7-4-1.7-4.2s-1-2.6-2.2-5.3s-2.2-5.1-2.2-5.4s-1.2-3.1-2.7-6.3c-1.5-3.2-2.7-6-2.7-6.3c0-1.2-16.9-35.8-22.4-45.6
		c-1.6-2.9-4.3-7.9-6-11.1c-1.7-3.2-3.7-6.8-4.6-8.1c-0.9-1.3-3.1-5.1-5-8.6c-3.7-6.8-21.8-35.5-22.9-36.2c-0.3-0.2-2.2-2.9-4-5.8
		c-1.9-2.9-4.1-6.1-5-7.1c-0.9-1-1.6-2-1.6-2.4s-0.5-1.2-1.1-1.8s-2.7-3.4-4.7-6.1s-3.8-5.1-4.1-5.4c-0.3-0.2-1.5-1.9-2.7-3.6
		c-2.6-3.8-20.1-25.7-22.5-28.2c-0.9-1-2.5-2.8-3.5-4c-10.9-13.4-34.5-37.8-55.8-57.6c-7.4-6.8-13.3-12.8-13.2-13.3
		c0.1-0.4-0.1-0.6-0.6-0.3c-0.4,0.3-2-0.5-3.4-1.8s-5.1-4.3-8.1-6.8s-5.3-5-5-5.5c0.3-0.5,0.1-0.6-0.4-0.3c-0.9,0.5-4.2-1.6-7.3-4.6
		c-0.7-0.7-3.5-2.9-6.3-4.9c-2.8-2-5.2-3.9-5.4-4.2c-0.9-1-25.4-18.2-36.4-25.6c-11-7.4-34-21.4-43.9-26.7c-2.6-1.4-4.4-2.9-4.1-3.4
		s0.1-0.6-0.4-0.3c-1.2,0.8-9.7-3.7-9.3-4.9c0.1-0.5-0.1-0.7-0.6-0.4c-0.5,0.3-8-3-16.8-7.4c-8.8-4.3-18-8.8-20.5-9.8
		c-2.5-1.1-7.1-3.1-10.3-4.6c-5.6-2.6-28.3-11.7-37-14.9c-2.5-0.9-4.7-1.9-4.9-2.1s-0.8-0.5-1.3-0.5s-9.1-2.7-19.1-6
		c-10-3.3-18.5-6-18.9-6c-0.4,0-1.9-0.5-3.2-1c-1.4-0.6-2.9-1.1-3.4-1.2c-4.5-0.6-7.5-1.7-7-2.5c0.3-0.5,0.2-0.7-0.4-0.3
		c-0.5,0.3-8.1-1.2-16.9-3.5c-8.8-2.2-17.3-4.3-19-4.6s-3.9-0.8-5.1-1.3s-2.2-0.6-2.4-0.3s-1.6,0-3-0.6s-3.8-1.1-5.3-1.2
		c-1.5-0.1-5.1-0.7-8.1-1.3c-8.8-1.8-22.6-4.2-28.6-4.9c-1.5-0.2-5.9-0.8-9.8-1.3c-19.4-2.7-35.6-4.4-47.4-5.1
		c-4.9-0.3-12.2-0.8-16.1-1.2C1672.3,878,1606.8,877.7,1603.4,878.3 M1551.8,1163.2c-25.9,20.4-42.3,55-44.9,94.6
		c-0.4,6.2-0.4,6.3,0.4,2.2c2-10.3,2.4-9.4,1.9,4.9c-1.3,41,8.1,90.8,25.8,136.2c3.4,8.7,3.4,8.7,1.1,6.9c-2.7-2.1-3.5-1.8-2.1,0.8
		c0.5,1-2.8-1-7.3-4.4c-28.1-21.1-66.8-31.3-113.8-30c-18.6,0.5-21.8,0.8-43.4,3.7c-6.2,0.8-13.4,1.7-16.2,2l-5,0.5l-2.4,4.9
		c-2.8,5.6-3.8,5.7-2.3,0.2c1.2-4.6,1.7-4.3-5.8-4.9c-16.6-1.4-24.5-6.2-40.2-24.1c-12.2-13.9-14.5-32-7.6-57.9
		c2.4-8.8,2.6-10,1.7-10.6c-0.5-0.3-0.6-1.3-0.3-2.3c0.8-2.5-7.3,10-13.9,21.5c-21.2,36.6-34.1,74.8-36.1,106.9
		c-0.4,6.2-0.4,6.4,0.4,2.2c0.5-2.5,1.2-5.8,1.5-7.5s0.7,5.2,0.7,15.2c0.2,53.7,23.6,97.9,68.1,128.5l6.5,4.4l-4.7,1.4
		c-4.5,1.4-8.5,2-27.5,4.2c-24.5,2.8-36.3,11-58.4,40.1c-26.9,35.5-46.7,49.3-74.9,52.5c-12.9,1.4-20.2-7.6-28.1-34.6
		c-1.5-5.1-4-9.5-4-7.2c0,0.7-0.6,1-1.4,0.7c-2.4-0.9-9.2,16.2-12.9,32c-1.9,8.1-3.3,22.7-1.9,19.8c0.5-1,0.9-2.8,0.9-4
		c0.3-8.2,1.4-2,1.5,8.4c0.4,42.9,33.7,77.3,90.2,93.3l8.6,2.4l-0.5,2.7c-2.2,11.8-5.4,37.2-7.3,57.3c-1.6,16.8-2.8,74.6-1.6,76.1
		c0.6,0.8,33.5,10.4,33.9,9.9c0.1-0.1-0.4-6-1.1-13.1c-11.4-122.6,39.9-253.2,138.2-351.5c92.2-92.3,223.2-116.6,310.5-57.6
		c94.9,64.1,147.4,183.8,128.6,293.3c-1,6.1,0.5,7.2,1.6,1.2c6.5-33.4,5.2-85.3-3-116.4c-1.5-5.8-1.7-6.9-0.7-5.4
		c0.4,0.7,1.8-1,3.7-4.5c5.1-9.4,8.6-16,12.8-23.9c2.2-4.2,5.7-10.6,7.8-14.3c2-3.7,4.6-8.5,5.7-10.7c1.1-2.2,2.2-4.2,2.4-4.5
		s1.1-1.7,1.8-3.1s1.5-2.9,1.8-3.1c0.2-0.2,1.8-3.1,3.4-6.3s4.2-8,5.7-10.7s4.6-8.3,6.8-12.5c2.2-4.2,5.4-10,6.9-13
		c1.6-2.9,3.9-7.2,5.1-9.4c1.2-2.2,4-7.2,6.1-11.2c2.1-3.9,4.8-9,6.1-11.2c1.2-2.2,3.9-7.2,6-11.2c2.1-3.9,5.5-10.2,7.5-13.9
		s4.6-8.5,5.7-10.7c1.1-2.2,2.2-4.2,2.5-4.5s1.1-1.8,1.8-3.3c0.7-1.6,1.6-2.9,1.9-2.9c0.4,0,0.7-0.5,0.7-1.1c0-0.6,0.6-2.1,1.2-3.3
		c4.1-7.6,7.2-13.2,8.3-14.9c0.7-1.1,3.1-5.5,5.4-9.8c5.3-10,9.2-17.3,12.6-23.6c1.5-2.7,4.3-7.9,6.3-11.6c2-3.7,4.5-8.3,5.6-10.3
		c1.1-2,4.4-8.2,7.4-13.9c2.9-5.7,5.7-10.7,6-11.2c0.9-1.2,6.4-11.3,11.3-21c2.1-4.2,4.3-8,4.8-8.4c7.3-7.3-18.8,2-42.6,15.2
		c-7.4,4.1-33.2,21.4-35.2,23.6c-0.2,0.3-3.5,2.9-7.2,5.8c-11.8,9.4-18.9,15.7-35,31.6c-8.7,8.5-16.9,16.1-18.2,16.8l-2.5,1.3
		l0.6-3.8c15.4-103.4,9.6-179.7-17.3-224.3c-4.2-7-16.4-20.6-18.5-20.6c-0.7,0-1.2-0.3-1.2-0.8s-1-1.2-2.2-1.8l-2.2-1l1.7,3.3
		c0.9,1.8,2.2,6.4,2.9,10.1c0.7,3.8,1.8,7.2,2.6,7.7c1.2,0.9,1.2,2-0.2,10.6c-2,12-3.1,15.1-3.3,9.4c-0.1-3.9-0.2-3.7-2.2,3.7
		c-5.8,21.2-23.1,58.3-41,88.1c-8.7,14.5-9.6,16.2-7.6,15c0.6-0.4,0.8-0.2,0.4,0.4c-0.4,0.6-1,0.8-1.4,0.6
		c-0.7-0.4-8.1,10.3-8.1,11.7c0,0.3,0.7,0,1.6-0.7c1.4-1.1,1.4-1.1,0.3,0.3c-0.7,0.8-1.5,1.4-1.9,1.1c-1.1-0.7-3.6,3.8-3.1,5.2
		c0.3,0.7,0.1,1.6-0.4,1.9c-0.6,0.4-0.8,0-0.4-1c0.4-1.1-0.1-0.9-1.3,0.6c-1,1.2-1.7,2.8-1.4,3.4c0.2,0.6,0.1,0.9-0.4,0.7
		c-0.4-0.3-1.4,0.4-2.2,1.5c-1.7,2.4-1.8,3.7-0.3,2.8c0.7-0.4,0.8-0.3,0.4,0.2c-0.4,0.4-1.2,0.8-1.7,0.8c-0.5,0-1.2,0.6-1.4,1.2
		c-0.3,0.8,0,1,0.8,0.5c0.7-0.4,0.9-0.4,0.5,0.1c-0.4,0.4-1.2,0.8-1.7,0.8c-0.5,0-1.2,0.6-1.4,1.2c-0.3,0.8,0,1,0.8,0.5
		c0.7-0.4,0.9-0.4,0.5,0.1c-0.4,0.4-1,0.8-1.3,0.8c-1.1,0-2.8,1.4-2.8,2.3c0,0.5,0.5,0.6,1.1,0.2c0.7-0.4,0.8-0.3,0.4,0.2
		c-0.4,0.4-1.2,0.8-1.8,0.8s-1.2,1.1-1.3,2.4c-0.3,2.6-2.8,5.6-2.8,3.4c0-0.7-0.5-0.5-1.2,0.5c-1.2,1.6-1.3,1.4-2.2-2.3
		c-18-73.3-54.6-108.7-128.9-124.8c-17.8-3.9-23.6-8.2-28.2-21.4c-5-14.3-5-43.2,0.1-68.3
		C1557.7,1158.6,1557.7,1158.6,1551.8,1163.2 M1543.4,1562.8c-112.6,8.5-219.4,128.5-243.7,273.7c-4.1,24.5-6.2,72.1-3.8,87.6
		c0.7,4.7-1.2,4,23.4,8.9c26.3,5.3,25.4,5.2,24.7,2.7c-5.5-20.6-5.1-62.9,0.9-92.7c20.9-104.2,116.8-205.1,198-208.3
		c90.5-3.6,143.2,87.8,112.2,194.6c-5.6,19.2-22.2,53.7-28.1,58.2c-0.3,0.2-1.3,1.6-2.1,2.9c-6.1,9.6-26.9,27.6-39.8,34.4
		c-56,29.8-120.1-11.3-112.9-72.5c4.9-42.6,28.6-76.8,57.2-83c31.2-6.7,44.4,31.3,20.1,58.2l-3.3,3.6l2.6,0
		c9.7-0.1,26-7.2,33.3-14.6c14.6-14.7,20.7-45.4,12.4-62.5c-30.5-63.3-102.9-47.3-157.8,34.8c-32.1,48-35.9,98.3-11.8,158.3
		c1.4,3.4,1.4,3.4,12.4,4.6c56.1,6,88.2,8,141.3,8.7c54.5,0.7,66.4,0.2,68.1-3.1c0.7-1.3,2.7-5,4.4-8.2c4.3-7.8,9.8-17.9,13.6-25
		c1.7-3.2,4.6-8.6,6.5-12.1s4.8-8.9,6.6-12.1c3.6-6.7,8-14.8,11-20.6c1.2-2.2,2.3-4.2,2.6-4.5s1.3-2.3,2.4-4.5
		c1.1-2.2,3.8-7.2,6-11.2c2.2-3.9,5.3-9.8,6.9-13s3.1-6,3.4-6.3s1.7-2.9,3.3-5.8s4.8-9.1,7.3-13.6c6.7-12.2,6.9-13.8,6.9-43.7
		c0-26.9-0.2-29.1-4.6-51.4C1702.6,1622.3,1629.8,1556.3,1543.4,1562.8 M1199.7,1791.1c-1.4,7.6-2.9,19.8-2.7,22.7
		c0.1,2.7,0.3,1.3,2.8-17C1201.3,1786.3,1201.2,1783,1199.7,1791.1"/>
	<path id="path2" class="st5" d="M1606.5,950.2c-34.8,2-56.1,4.4-88.5,9.8c-59.8,10-130.1,30.7-180.1,53.2c-2.5,1.1-8,3.6-12.2,5.5
		c-138.1,61.3-266.4,168.1-355.7,296c-13.4,19.2-41.4,63.4-41.4,65.4c0,0.2-1,1.9-2.2,3.7c-7.5,11.5-30.6,58.1-41.9,84.3
		c-14.8,34.4-34.1,90-40,115.4c-0.5,2.2-1.8,7.1-2.8,10.7c-1,3.7-2.2,8.3-2.6,10.3c-0.4,2-1.8,8.4-3.1,14.3
		c-2.5,11.5-2.6,12.1-6.6,34.4c-4.9,27.5-6.5,40.6-10.1,80.9c-1.5,16.5-1.5,86.3,0,102c5.8,61.4,11.4,93.8,24.8,141.3
		c32,113.9,90.9,211.6,176.7,293.4c72.4,68.9,168.3,121.6,269.4,148c13.6,3.6,14.4,3,1.3-0.9c-117.9-34.5-225.8-106.7-303.5-203.1
		c-52.8-65.4-96.9-151.3-115-223.6c-1-4.2-2.1-7.8-2.4-8.1c-0.5-0.4-0.6-0.9-0.8-5c-0.1-1.5-0.5-2.1-1.2-1.7c-0.7,0.4-0.9,0-0.5-1.3
		c0.3-1.1,0.1-2.2-0.3-2.4c-0.5-0.3-0.6-1.3-0.3-2.3c0.4-1.3,0.3-1.6-0.5-1.1c-0.8,0.5-1,0.1-0.5-1.7c0.4-1.5,0.2-2.4-0.4-2.4
		c-0.6,0-0.8-0.9-0.4-2.5c0.5-1.9,0.4-2.2-0.4-1.1c-0.8,1-0.9,0.5-0.4-2.2c0.3-2.2,0.2-3.1-0.2-2.4c-0.6,0.9-0.9,0.5-1.3-1.3
		c-15-70.5-21-142.2-16.7-199.8c4.9-65.2,12.5-110.9,27.3-164.9c0.8-2.9,1.8-6.6,2.2-8.1c38-140,131.9-291.8,242.4-391.8
		c15.7-14.2,21-18.9,32.6-28.6c62.2-52.1,135.9-97.9,203.9-127c7.9-3.3,15.5-6.6,17-7.3c19.9-8.8,60.8-22.7,90.8-31.1
		c11.4-3.2,21.9-5.8,42.5-10.5c9.7-2.2,37.2-7,55.9-9.8c115.7-17,244.5-1.7,349.7,41.4c29.4,12.1,67.3,30.6,65.7,32.1
		c-0.3,0.3,0.2,0.7,0.9,1c0.9,0.3,1.2,0.2,0.8-0.4c-0.4-0.7,0-0.7,1.3,0c1.1,0.6,1.9,1.4,1.9,1.9s0.4,0.7,0.9,0.4
		c0.5-0.3,0.9-0.1,0.9,0.4c0,0.6,0.4,0.8,0.9,0.4c0.5-0.3,0.9-0.1,0.9,0.5c0,0.6,0.2,0.9,0.5,0.6c0.3-0.3,1.3,0.3,2.3,1.2
		s2.1,1.5,2.6,1.2c0.5-0.3,0.9-0.1,0.9,0.5s0.4,0.8,0.8,0.5s1-0.1,1.1,0.3c0.2,0.4,5.3,3.7,11.5,7.3c35.5,20.6,68.2,46,106.9,83.1
		c13.7,13.1,5,3.5-13.4-14.8c-15.1-15.1-29.1-28.1-39.4-36.5c-2.9-2.4-5.6-4.7-5.8-4.9c-1.3-1.5-22.5-17.7-31.8-24.3
		c-68.8-49.2-143.7-82.6-229.4-102.3c-16.9-3.9-19.5-4.4-35.3-7c-19.3-3.2-24-3.9-33.4-5C1681.5,949.9,1639.3,948.3,1606.5,950.2
		 M1672.9,983.9c6.8,0.2,17.8,0.2,24.6,0c6.8-0.2,1.2-0.3-12.3-0.3C1671.7,983.7,1666.1,983.8,1672.9,983.9 M1648.8,984.8
		c0.9,0.2,2.3,0.2,3.1,0c0.9-0.2,0.2-0.4-1.6-0.4C1648.6,984.4,1647.9,984.5,1648.8,984.8 M1719,984.8c1.1,0.2,2.7,0.2,3.6,0
		c0.9-0.2-0.1-0.4-2-0.4C1718.6,984.4,1717.9,984.6,1719,984.8 M1631.8,985.7c1.4,0.2,3.4,0.2,4.5,0s0-0.4-2.5-0.4
		C1631.3,985.3,1630.4,985.5,1631.8,985.7 M1734.6,985.7c1.4,0.2,3.4,0.2,4.5,0s0-0.4-2.5-0.4
		C1734.2,985.3,1733.3,985.5,1734.6,985.7 M1601.3,988.3c0.9,0.2,2.3,0.2,3.1,0s0.2-0.4-1.6-0.4
		C1601.2,987.9,1600.5,988.1,1601.3,988.3 M1765,988.3c0.9,0.2,2.3,0.2,3.1,0s0.2-0.4-1.6-0.4C1764.9,987.9,1764.2,988.1,1765,988.3
		 M1587,990.1c0.9,0.2,2.3,0.2,3.1,0c0.9-0.2,0.2-0.4-1.6-0.4C1586.9,989.7,1586.2,989.9,1587,990.1 M1779.3,990.1
		c0.9,0.2,2.3,0.2,3.1,0c0.9-0.2,0.2-0.4-1.6-0.4S1778.5,989.9,1779.3,990.1 M1321,1074.6c-1.8,1-3.3,2-3.3,2.2s1.6-0.4,3.6-1.4
		c2-1,3.6-2,3.6-2.2C1324.8,1072.6,1324.8,1072.6,1321,1074.6 M1137.3,1202.6l-2.6,2.9l2.9-2.6c1.6-1.4,2.9-2.8,2.9-2.9
		C1140.5,1199.3,1139.8,1199.9,1137.3,1202.6 M1127.5,1211.6l-3.5,3.8l3.8-3.5c2.1-1.9,3.8-3.7,3.8-3.8
		C1131.6,1207.3,1130.8,1208,1127.5,1211.6 M1794.3,1209.3c0.5,0.9,1.7,3.6,2.7,6.1l1.7,4.5l0-4.7c0-4.3-0.2-4.8-2.7-6.1
		C1793.5,1207.8,1793.4,1207.8,1794.3,1209.3 M1103.8,1234.4l-13.9,14.1l14.1-13.9c13.1-12.9,14.5-14.3,13.9-14.3
		C1117.8,1220.3,1111.4,1226.6,1103.8,1234.4 M1081,1258.1l-4.4,4.7l4.7-4.4c2.6-2.4,4.7-4.6,4.7-4.7
		C1086,1253,1085.1,1253.7,1081,1258.1 M1071.2,1268.8l-2.6,2.9l2.9-2.6c1.6-1.4,2.9-2.8,2.9-2.9
		C1074.3,1265.5,1073.6,1266.1,1071.2,1268.8 M1505.6,1295.8c-0.3,21.1,3.8,49.3,11.5,78.7c6,23,6.2,23.5,10.7,26.8l4,2.9l-6-18
		c-11-32.9-18.1-67.8-19.8-96.7C1505.9,1287.1,1505.7,1289.9,1505.6,1295.8 M1290,1303c-0.6,1.3-1,3-1,3.8c0,0.8,0.6-0.1,1.3-2
		C1291.8,1300.8,1291.6,1299.6,1290,1303 M1847.3,1320.4c0,1.7,0.2,2.4,0.4,1.6c0.2-0.9,0.2-2.3,0-3.1
		C1847.5,1318,1847.3,1318.7,1847.3,1320.4 M1856.3,1337.4c0,3.2,0.2,4.5,0.4,2.9s0.2-4.2,0-5.8S1856.3,1334.2,1856.3,1337.4
		 M1847.3,1351.8c0,1.7,0.2,2.4,0.4,1.6c0.2-0.9,0.2-2.3,0-3.1C1847.5,1349.3,1847.3,1350,1847.3,1351.8 M1003.7,1353.5
		c-1,1.5-1.7,2.7-1.5,2.7c0.2,0,1.3-1.2,2.4-2.7c1-1.5,1.7-2.7,1.5-2.7C1005.8,1350.9,1004.7,1352.1,1003.7,1353.5 M1712.6,1366.5
		c0.7,3.3,1.2,4,1.2,1.7c0-0.9-0.4-2.3-0.9-3.1C1712.2,1364.2,1712.1,1364.6,1712.6,1366.5 M1846.4,1372.8c0,2,0.2,2.7,0.4,1.6
		s0.2-2.7,0-3.6C1846.6,1369.9,1846.4,1370.8,1846.4,1372.8 M2034.5,1376.9c-12.5,3.4-18,5.4-25.2,9.3
		c-29.1,15.4-49.2,44.1-56.6,80.8c-2.2,11.1-1.9,11.2,1.7,0.5c5.4-16.5,13.9-30.7,25.3-42.5l6.3-6.5l-0.6,5.7
		c-0.3,3.1-0.9,6.7-1.4,7.9c-0.5,1.2-0.8,3.2-0.8,4.5s-1,4.2-2.3,6.4c-1.2,2.3-1.6,3.1-0.7,1.9c20.2-28.1,53.6-47.4,81.6-47.4
		c5.9,0,5.8-0.3-2.8-9.4C2046.4,1374.8,2044.8,1374.1,2034.5,1376.9 M1856.3,1383.9c0,3.7,0.2,5.2,0.3,3.3c0.2-1.8,0.2-4.9,0-6.7
		S1856.3,1380.3,1856.3,1383.9 M1845.5,1383.9c0,1.7,0.2,2.4,0.4,1.6c0.2-0.9,0.2-2.3,0-3.1
		C1845.7,1381.5,1845.5,1382.2,1845.5,1383.9 M1843.7,1402.7c0,1.7,0.2,2.4,0.4,1.6c0.2-0.9,0.2-2.3,0-3.1
		C1843.9,1400.3,1843.7,1401,1843.7,1402.7 M1854.4,1410.8c0,1.7,0.2,2.4,0.4,1.6c0.2-0.9,0.2-2.3,0-3.1
		C1854.6,1408.4,1854.4,1409.1,1854.4,1410.8 M1846.7,1431.3c-4.3,4.3-6.4,5.9-6.9,5.1c-0.5-0.7-0.7-0.4-0.7,0.9c0,1.1,0.3,2,0.7,2
		c0.4,0,1.4-0.9,2.3-2s3.9-4.3,6.7-7.2c2.8-2.8,4.8-5.2,4.6-5.2C1853.1,1425.1,1850.1,1427.9,1846.7,1431.3 M1239.9,1442.1
		c-0.7,42.8,18.4,86.3,50.1,114.4l5.1,4.5l7.9-1.1c12.2-1.6,12.2-1.4,2.9-7.8c-38-26.3-62.5-69.8-65.6-116.4
		C1240.2,1433.6,1240,1436.5,1239.9,1442.1 M2349.9,1478.6c5.2,34.5,6.6,47.1,8.8,81.6c1.2,18.3,0.6,85.9-0.8,103.8
		c-1.6,19.6-2.9,32.7-4.2,42.9c-0.7,5.6-1.5,11.9-1.8,13.9c-0.3,2-0.9,5.8-1.3,8.6c-0.5,2.7-1.7,10.2-2.7,16.5
		c-6.3,39.8-18.7,89.3-33.5,134.2c-5.5,16.5-18.6,51.7-22.7,60.7c-0.9,2-3.3,7.5-5.2,12.2c-5.6,13.3-13.5,30.3-22.9,48.7
		c-12.7,25.1-18.3,35.3-32.9,59.7c-18.1,30.2-36.3,57.1-56.2,83.3c-5.2,6.8-10.2,13.5-11.2,14.8c-72.6,96.1-183.3,188.7-302.3,252.8
		c-8.8,4.8-15.4,8.4-14.4,8.1c1-0.3,4.1,0.6,7.6,2.3c19.3,9.1,31.3,15.1,31.8,15.8c0.3,0.4-6.4,4.2-14.9,8.5
		c-250.7,125.4-527,125.7-753.5,0.6c-4.6-2.5-8.3-4.2-8.3-3.7c0,0.5,0.5,1.1,1.2,1.3c1.2,0.5,22.2,16.1,25.2,18.8
		c1,0.9,2,1.6,2.4,1.6c0.4,0,1.2,0.5,1.8,1.1c1.9,1.9,16.4,12,19.3,13.5c1.5,0.8,3.2,1.9,3.9,2.5c0.7,0.6,3.6,2.6,6.6,4.4
		c2.9,1.8,9.6,5.8,14.8,9c5.2,3.2,10.6,6.4,12.1,7.1c1.4,0.8,5.6,3,9.3,5.1c10.1,5.6,38.4,19.6,50.5,25c5.9,2.6,12.4,5.5,14.5,6.5
		c2.1,0.9,3.9,1.7,4.1,1.7c0.2,0,1.9,0.7,3.8,1.5c1.9,0.8,3.9,1.6,4.4,1.7c0.5,0.1,4.1,1.5,8.1,3.1c8.1,3.2,15.9,6.1,27.7,9.9
		c4.4,1.4,8.8,3,9.8,3.4c1,0.4,2.6,1,3.6,1.2s5.4,1.5,9.8,2.8c4.4,1.3,9.5,2.8,11.2,3.2c1.7,0.5,4.4,1.2,6,1.7
		c6.9,2,11.4,3.2,16.8,4.4c2,0.4,5.2,1.2,7.2,1.8c5.4,1.5,8.9,2.2,29.5,6.3c76,15.1,158.9,17.8,243.3,8c14.8-1.7,31-4.1,42.5-6.1
		c2.7-0.5,6.3-1.1,8.1-1.4c1.7-0.3,4.7-0.9,6.7-1.4c2-0.4,7-1.4,11.2-2.2c8.4-1.6,22.8-4.9,35.8-8.2c4.7-1.2,9.9-2.5,11.6-2.9
		c1.7-0.4,8.2-2.2,14.3-4c6.2-1.8,13.2-3.8,15.7-4.5c4.7-1.3,34.6-11.4,43.8-14.8c31.9-11.7,57.7-22.9,94.4-41.3
		c21.6-10.8,24.6-12.4,41.6-22.2c5.4-3.1,11.4-6.5,13.4-7.6s7.8-4.7,12.9-8c5.1-3.3,9.9-6.3,10.7-6.6c1.4-0.6,9.1-5.5,9.9-6.4
		c0.2-0.2,1.2-0.9,2-1.4c4.8-2.7,46.9-32.1,48.1-33.5c0.2-0.3,1.9-1.5,3.6-2.7c1.7-1.2,3.3-2.4,3.6-2.7c0.2-0.3,4.1-3.3,8.5-6.7
		c9.6-7.4,35.9-29.2,44.7-37.1c3.4-3.1,9.7-8.7,13.9-12.4c24-21.6,63.7-63.1,85.9-90c3.7-4.4,6.9-8.2,7.2-8.5
		c1.5-1.3,18.7-23.4,26.4-34c3.1-4.2,6.3-8.6,7.3-9.8c10.9-14.2,49.4-73.2,49.4-75.7c0-0.3,0.8-1.6,1.7-2.9c0.9-1.3,2.7-4.2,3.9-6.4
		c1.2-2.2,3.2-5.6,4.3-7.6c11.1-19.5,30.5-58.6,40.7-82.3c0.6-1.5,2-4.6,3-6.9c1-2.3,1.9-4.4,1.9-4.7s1-2.6,2.2-5.2
		c2.8-6.2,11.8-29.2,14-36c1-2.9,2.1-6.2,2.6-7.2c2.3-5.1,14.4-42.9,17.6-55c0.7-2.7,1.7-6.1,2.1-7.6c1.2-4.3,7.2-27.4,8-31.3
		c0.4-2,1.8-8.4,3.1-14.3c4.2-19.6,8.1-39.6,9.5-49.2c0.5-3.4,1.3-8.9,1.8-12.1c8.2-55.2,10.6-126.9,6.2-181.1
		c-2.4-29.7-4.7-49.1-7.4-62.2c-0.6-2.7-0.9-5.3-0.8-5.7c0.2-0.7-1.5-10.5-3-18c-0.3-1.5-0.9-4.6-1.3-6.9c-0.4-2.3-1-4.7-1.4-5.2
		c-0.3-0.6-0.8-2.5-0.9-4.2c-0.5-5.5-2.7-15-3.2-13.6c-0.5,1.3,0,1.5-28.1-12c-13.6-6.6-26.3-12.6-42.9-20.6
		c-5.9-2.8-11.4-5.5-12.1-5.9C2349.3,1473.6,2349.2,1474.1,2349.9,1478.6 M1950.2,1480.6c0,1.7,0.2,2.4,0.4,1.6
		c0.2-0.9,0.2-2.3,0-3.1C1950.3,1478.1,1950.2,1478.8,1950.2,1480.6 M1959.1,1504.7c0,1.7,0.2,2.4,0.4,1.6c0.2-0.9,0.2-2.3,0-3.1
		C1959.3,1502.3,1959.1,1503,1959.1,1504.7 M2431.2,1502.9c0,0.7,0.4,2.2,0.8,3.1c0.5,1.1,0.8,1.3,0.8,0.4c0-0.7-0.4-2.2-0.8-3.1
		C2431.5,1502.2,2431.2,1502.1,2431.2,1502.9 M1948.5,1517.2c0,4.2,0.2,5.9,0.3,3.8c0.2-2.1,0.2-5.5,0-7.6
		C1948.6,1511.3,1948.5,1513,1948.5,1517.2 M1958.2,1513.6c0,1.7,0.2,2.4,0.4,1.6s0.2-2.3,0-3.1
		C1958.4,1511.2,1958.2,1511.9,1958.2,1513.6 M1947.5,1533.3c0,2.7,0.2,3.8,0.4,2.5c0.2-1.3,0.2-3.6,0-4.9
		C1947.7,1529.5,1947.5,1530.6,1947.5,1533.3 M1957.4,1540c0,5.4,0.2,7.5,0.3,4.7c0.2-2.8,0.2-7.3,0-9.8
		C1957.6,1532.3,1957.4,1534.6,1957.4,1540 M1945.7,1551.2c0,1.7,0.2,2.4,0.4,1.6c0.2-0.9,0.2-2.3,0-3.1
		C1945.9,1548.8,1945.7,1549.5,1945.7,1551.2 M1956.5,1557.9c0,2.5,0.2,3.4,0.4,2c0.2-1.4,0.2-3.4,0-4.5
		C1956.6,1554.3,1956.4,1555.4,1956.5,1557.9 M1954.6,1575.3c0,1.7,0.2,2.4,0.4,1.6c0.2-0.9,0.2-2.3,0-3.1
		C1954.8,1572.9,1954.6,1573.6,1954.6,1575.3 M1938.9,1588.5c-3.4,21.6-19.7,53.5-34.4,67.5l-6.9,6.6l8.5-3.4c4.7-1.9,9-3.4,9.6-3.4
		c1.2,0,4.9-6.6,8.6-15.2c1.4-3.2,2.9-6.6,3.3-7.6c2.3-5.2,5.6-15.9,7.9-25.7c4.2-17.3,4.8-20.3,4.4-21.5
		C1939.7,1585.3,1939.2,1586.4,1938.9,1588.5 M1951.4,1593.7c-0.3,2-1,5-1.4,6.7s-1,5.1-1.3,7.6c-0.3,2.6,0.4,0.6,1.7-4.9
		c1.2-5.2,2.1-10.2,1.9-11.2C1952.2,1590.9,1951.8,1591.6,1951.4,1593.7 M1103.1,1685.4c-0.5,36.8,21.1,66.7,62.1,85.9
		c6.3,3,12.7,6,14.1,6.7c1.4,0.7,3.3,1.3,4.2,1.3s1.7,0.4,1.7,0.9s0.4,0.7,0.9,0.4c1.4-0.8,4.6,0.4,3.9,1.6
		c-0.4,0.6-0.2,0.7,0.5,0.3c1.6-1,9.9,1.4,9.9,2.8c0,0.7,0.4,1,0.9,0.6c0.6-0.4,0.6-1-0.1-1.8c-0.8-1-0.8-3,0-8.4
		c1.1-7.7,0.9-8.9-1.7-8.9c-0.9,0-6-1.4-11.2-3.2c-51.2-17.2-80.4-46.3-84.8-84.9C1103.4,1677.2,1103.2,1680.2,1103.1,1685.4
		 M2052.4,1707.5c2.6,13.5,3,25.2,0.8,23.4c-1.2-1-1.6-1-1.9-0.1c-0.6,1.7-1.8,1.4-5.9-1.4c-17.1-11.7-36.7-13.9-53-5.9
		c-10.1,5-25.4,20.5-27.1,27.6c-9.3,38.8-31.4,86.4-50.2,108.1c-12,13.9-31.2,26.7-39.9,26.7c-3.4,0-3.6,2.3-0.8,10.4
		c2.1,6.1,2.8,7.2,3.9,6.6c1.8-1,11.8-5.3,12.3-5.3c0.2,0,0.2,0.7-0.2,1.6c-3.7,9.5-2.1,10.5,8.1,5.6
		c28.1-13.6,56.2-59.5,73.7-120.6c4-13.8,4.3-14.5,13.2-23.7c18.7-19.3,44.3-25.1,60.3-13.6c3.4,2.4,4.7,3,5.2,2.1s2-0.3,5.9,2.4
		c7.2,4.9,8.4,5.5,4.9,2.5c-2.6-2.2-2.9-2.9-2.1-4.8c0.5-1.2,1.2-4.2,1.6-6.7l0.7-4.5l0.6,3.1c0.3,1.7,0.7,2.3,0.7,1.3
		c0.4-5.6-4.3-23.9-8.4-33.3C2052.5,1703.3,2051.4,1702.8,2052.4,1707.5 M854.5,1745.3c0,1.7,0.2,2.4,0.4,1.6c0.2-0.9,0.2-2.3,0-3.1
		S854.5,1743.6,854.5,1745.3 M852.8,1765.8c0,2.2,0.2,3.1,0.4,2c0.2-1.1,0.2-2.9,0-4C852.9,1762.7,852.8,1763.6,852.8,1765.8
		 M851.9,1778.8c0,2,0.2,2.7,0.4,1.6c0.2-1.1,0.2-2.7,0-3.6S851.8,1776.8,851.9,1778.8 M851.1,1802.5c0,4.7,0.2,6.6,0.3,4.2
		c0.2-2.3,0.2-6.2,0-8.5C851.2,1795.9,851.1,1797.8,851.1,1802.5 M851.1,1840.1c0,4.7,0.2,6.6,0.3,4.2c0.2-2.3,0.2-6.2,0-8.5
		C851.2,1833.5,851.1,1835.4,851.1,1840.1 M851.9,1863.8c0,2,0.2,2.7,0.4,1.6c0.2-1.1,0.2-2.7,0-3.6
		C852,1860.9,851.8,1861.8,851.9,1863.8 M852.8,1875.9c0,2.2,0.2,3.1,0.4,2c0.2-1.1,0.2-2.9,0-4
		C852.9,1872.8,852.8,1873.7,852.8,1875.9 M1233,1899.6c4.2,59.8,28.1,130.7,59.6,177.1c47.2,69.3,115,106.5,215,117.8
		c64.7,7.3,123.2-16.2,193.2-77.4c22.4-19.6,21.8-18.5,13.8-27.4c-2.4-2.7-4.4-5.2-4.4-5.6c0-1.6-2.4-0.3-10.1,5.4
		c-21.1,15.7-54.5,33.4-76.2,40.4c-2,0.6-7.3,2.9-11.8,5c-76.3,35.6-196.9,4-259.6-68c-31.2-35.8-48.1-74.9-55.1-127.6l-1.5-11.3
		l-6.4-1.6c-3.5-0.9-8.8-2.1-11.7-2.7c-7.3-1.6-18.3-4.5-21.1-5.6c-2.5-1-5-3.7-14.7-15.8c-2-2.5-3.8-4.7-4-4.9
		c-0.2-0.2-1.6-1.8-3-3.6l-2.6-3.1L1233,1899.6 M854.5,1894.7c0,1.7,0.2,2.4,0.4,1.6c0.2-0.9,0.2-2.3,0-3.1
		C854.7,1892.2,854.5,1892.9,854.5,1894.7 M1192.9,1917.9c2.7,143,69,263,168.6,304.9c5.2,2.2,9.8,4.2,17.7,7.8
		c2.6,1.2,5.1,1.9,5.5,1.7s1.3,0.1,2,0.7c0.7,0.7,1.8,1,2.4,0.8c0.8-0.3,1,0,0.6,0.7c-0.5,0.8-0.2,0.9,1.3,0.5
		c1.3-0.4,1.8-0.3,1.4,0.3c-0.3,0.6,0.2,0.7,1.4,0.4c1.2-0.3,1.7-0.2,1.3,0.4c-0.4,0.6,0.1,0.8,1.3,0.4c1.4-0.4,1.8-0.2,1.2,0.7
		c-0.5,0.8-0.4,1,0.3,0.5c0.6-0.4,5.4,0.6,10.7,2.1c102,28.8,202.5,3.7,296.3-74c20.9-17.3,54.8-53,71-74.6c6.1-8.2,5.6-8,10.3-2.8
		c4.3,4.9,4.3,5,1.3,9.2l-2.3,3.2l3-3.4l3-3.4l5.2,10.5c7.6,15.2,13.1,20.8,20.5,20.8c1.2,0,2.8,0.8,3.7,1.8c0.9,1,2,1.8,2.5,1.8
		s0.1-0.6-0.8-1.3c-1.7-1.2-1.6-1.3,0.8-1.3c3,0,9.6-1.8,10.8-2.9c0.5-0.4,1.4-0.8,2.1-0.8c1.6,0,6.4-3.4,6.4-4.5
		c0-0.4-1.4-1.4-3-2.1c-4.6-1.9-10.9-7.9-9.1-8.6c0.8-0.3-1.5-0.5-5.1-0.6c-12.4-0.1-16.2-3.2-24.5-19.7
		c-5.9-11.7-13.2-21.8-15.8-21.7c-0.6,0-2.9,2.7-5.2,6c-45,64.8-137.2,132-205.1,149.6c-1.5,0.4-5.9,1.5-9.8,2.6
		c-6.6,1.7-14.2,3.3-26.4,5.4c-33.6,5.9-70.9,4.5-112.7-4.3c-27-5.7-76.8-25.8-97.5-39.5c-16.1-10.6-38.7-31.9-53.2-50
		c-6.8-8.5-26.4-36.7-26.4-38c0-0.3-1.4-2.8-3.2-5.7c-15.4-25.7-31.1-67.9-39.2-105.9c-5.1-24-7.5-41.2-9.7-68.9
		c-0.7-9-1.5-14.2-2.2-14.8c-0.6-0.5-1.3-1.9-1.6-3.1C1192.7,1897.9,1192.7,1906.3,1192.9,1917.9 M856.3,1909.8
		c0,1.7,0.2,2.4,0.4,1.6c0.2-0.9,0.2-2.3,0-3.1S856.3,1908.1,856.3,1909.8 M1881.6,1910.6c-1.6,1.7-0.4,10,1.4,10
		c0.4,0,0.5,1.1,0.2,2.5c-0.3,1.8-0.3,2,0.3,0.7c0.4-1,0.8,4.1,0.8,12.7c0,7.9-0.3,14.2-0.7,14c-0.7-0.4-1.1,1.7-1,4.8
		c0,0.6-0.3,1.1-0.8,1.1s-0.6,0.4-0.3,0.9c0.3,0.5,0.2,0.9-0.2,0.9c-0.4,0-1.5,1.3-2.4,2.9c-0.9,1.6-4.2,5.5-7.2,8.7
		c-16.2,17.2-28.4,38.7-39.4,69.3c-2.6,7.2-5.4,23.1-3.1,17.9c0.4-1,1.9-4.8,3.2-8.5c7.6-20.8,23.6-47.4,36.4-60.4
		c4.3-4.4,4.4-4.4,3.9-1.8c-0.3,1.5-0.9,4.9-1.4,7.6c-2.1,11.3-3.1,14.9-4.9,17.4c-2.6,3.6-3.3,4.9-2.8,4.9c0.2,0,2.9-3.5,5.9-7.8
		c3-4.3,8.2-10.8,11.7-14.5c16.1-17.2,17.3-37.2,4.4-70.2c-3.8-9.7-4.2-12-2.5-13.7c0.6-0.6,0.8-1.1,0.6-1.1
		S1882.5,1909.7,1881.6,1910.6 M1350.7,1948c30.2,116.1,116.5,173,227.8,150.2c38.4-7.9,62.6-20.6,96.2-50.5
		c3.1-2.8,3.1-2.8-0.7-6.9c-1.7-1.9-3.1-3.7-3.1-4.1c0-0.3-0.9-1.6-2-2.7s-4.6-5.3-7.8-9.2c-3.2-3.9-7-8.6-8.5-10.3
		c-3.5-4.1-5.4-6.5-9.9-12c-2-2.4-4.6-5.5-5.8-6.8l-2.2-2.4l-4.1,2.9c-23.1,16.5-62.6,25.7-97.2,22.8c-48-4-88.4-28.9-105.6-65
		c-1.6-3.4-1.4-3.3-15.5-5.2c-5.7-0.8-12.9-1.8-16.1-2.3c-10.5-1.7-43.3-7.1-45.8-7.6l-2.4-0.5L1350.7,1948 M1858.3,2024.4
		c-3.9,7-5.4,10.3-2.9,6.6c2.2-3.2,7.8-13.8,7.4-13.8C1862.6,2017.2,1860.6,2020.4,1858.3,2024.4 M1849,2042.7c-1.5,3.3-1.2,4,0.4,1
		c0.8-1.4,1.2-2.7,1-2.9C1850.2,2040.6,1849.6,2041.4,1849,2042.7 M1837,2080.2c-0.3,2-0.5,4.8-0.5,6.2c0.1,1.5,0.4,0.3,0.9-2.7
		C1838.2,2077.8,1837.9,2074.7,1837,2080.2 M1836.4,2105.4c0.7,0.2,2,2.1,2.9,4.1c0.9,2.1,2.8,5.1,4.4,6.8c2.7,2.8,2.7,3.2,1.8,6.4
		c-1.9,6.4-1.6,7.3,2.4,5.9c8-2.8,9.1-4.8,3.8-7.1c-4.6-2.1-9.4-7.1-11.7-12.3c-1.2-2.8-2.4-4.2-3.4-4.1
		C1835.3,2105,1835.3,2105.1,1836.4,2105.4 M1771.5,2117.6l-2.6,2.9l2.9-2.6c2.7-2.4,3.3-3.2,2.6-3.2
		C1774.2,2114.7,1772.9,2116,1771.5,2117.6 M1765.2,2124.7l-3.5,3.8l3.8-3.5c3.5-3.3,4.2-4.1,3.5-4.1
		C1768.9,2120.9,1767.2,2122.6,1765.2,2124.7 M1746.9,2144l-13.8,14.1l14.1-13.9c13.1-12.9,14.5-14.3,13.8-14.3
		C1760.9,2129.9,1754.5,2136.2,1746.9,2144 M1832.1,2131.4c1.3,0.2,3.6,0.2,4.9,0c1.3-0.2,0.2-0.4-2.5-0.4
		C1831.9,2131,1830.8,2131.2,1832.1,2131.4 M1726.7,2163.2l-2.6,2.9l2.9-2.6c2.7-2.4,3.3-3.2,2.6-3.2
		C1729.5,2160.3,1728.2,2161.6,1726.7,2163.2 M1719.6,2169.4l-2.6,2.9l2.9-2.6c2.7-2.4,3.3-3.2,2.6-3.2
		C1722.3,2166.5,1721,2167.9,1719.6,2169.4 M1701.8,2183.6c-5.3,4-6,5.1-1,1.6c3.8-2.6,5.8-4.5,4.9-4.4
		C1705.4,2180.9,1703.7,2182.1,1701.8,2183.6 M1683,2197.5l-2.7,2.3l2.9-1.9c1.6-1.1,2.9-2.1,2.9-2.3
		C1686.1,2194.9,1685.7,2195.1,1683,2197.5 M1537.8,2254.8c0.9,0.2,2.3,0.2,3.1,0s0.2-0.4-1.6-0.4S1537,2254.6,1537.8,2254.8
		 M1484.2,2256.6c1.4,0.2,3.4,0.2,4.5,0s0-0.4-2.5-0.4C1483.7,2256.2,1482.8,2256.4,1484.2,2256.6 M1518.2,2256.6
		c1.4,0.2,3.4,0.2,4.5,0s0-0.4-2.5-0.4C1517.7,2256.2,1516.8,2256.4,1518.2,2256.6 M1405.5,2510.6c1.4,0.2,3.4,0.2,4.5,0
		c1.1-0.2,0-0.4-2.5-0.4C1405,2510.2,1404.1,2510.4,1405.5,2510.6 M1522.7,2510.6c1.4,0.2,3.4,0.2,4.5,0c1.1-0.2,0-0.4-2.5-0.4
		C1522.2,2510.2,1521.3,2510.4,1522.7,2510.6 M1436.4,2512.4c2.6,0.2,6.6,0.2,8.9,0c2.3-0.2,0.2-0.3-4.7-0.3
		C1435.7,2512.1,1433.8,2512.3,1436.4,2512.4 M1487.3,2512.4c2.6,0.2,6.6,0.2,8.9,0c2.3-0.2,0.2-0.3-4.7-0.3
		C1486.7,2512.1,1484.8,2512.3,1487.3,2512.4"/>
	<path id="path3" class="st6" d="M1624.8,971.2c-11.3,0.6-23.4,1.4-26.8,1.7c-18.7,1.9-31.9,3.3-37.1,4.1
		c-19.1,2.8-46.6,7.6-56.1,9.8c-2.1,0.5-5.5,1.3-7.6,1.8c-42.2,9.6-95,26.4-125.4,39.8c-1.5,0.7-9.1,3.9-17,7.3
		c-68,29-141.7,74.9-203.9,127c-11.6,9.7-16.9,14.4-32.6,28.6c-110.5,100-204.5,251.8-242.4,391.8c-0.4,1.5-1.4,5.1-2.2,8.1
		c-14.8,54-22.4,99.7-27.3,164.9c-2.1,27.4-0.8,82.5,2.7,115c3.1,28.7,10.7,73.9,14.3,85l0.9,2.7l-0.3-2.7
		c-0.2-1.5-1.8-11.1-3.6-21.3c-11.9-68.4-12.6-145.5-1.9-218.8c1.5-10.7,2-13.2,6.2-36.2c23.3-127.4,91.4-272.4,176-374.8
		c23.6-28.6,39-45.7,60.5-67.3c18.4-18.6,26.9-26.6,39.6-37.8c4.2-3.7,7.8-6.9,8.1-7.2c6.7-7.1,52.1-42.7,72.4-56.9
		c21.2-14.8,67.2-44.1,69.2-44.1c0.2,0,2.9-1.5,6-3.3c20.5-11.8,54.8-28.8,79.5-39.4c11.2-4.8,41.9-17,47-18.7c2-0.6,5.9-2,8.7-3
		c62.3-22.5,134.1-37,209.1-42.3c36.1-2.5,95.1-0.8,132.4,3.8c17.8,2.2,44.5,6.8,61.7,10.7c14.1,3.2,16.9,3.8,27.3,6.7
		c12.3,3.3,16,4.5,32.2,9.9c16.8,5.6,38.2,13.8,49.9,19.1c3.3,1.5,6.2,2.8,6.4,2.8s6.1,2.8,13.2,6.3c7,3.4,13,6.3,13.2,6.3
		c2.1,0-30.6-16.7-45.6-23.3c-45.7-20.1-91.4-34.6-136.8-43.3c-6.6-1.3-13.9-2.7-16.1-3.1c-20.8-4.2-51.2-7.5-87.7-9.4
		C1662.4,969.7,1653.5,969.7,1624.8,971.2 M1566.1,1184.2c-9,7.3-10.5,9.2-11.1,15c-1.5,14.2,4.1,41.5,9.2,44.6
		c0.4,0.2,0.6-5.3,0.4-12.2c-0.3-13.8,0.8-27.6,3.4-40.8C1569.9,1180.8,1570,1181.1,1566.1,1184.2 M1839.4,1255.2
		c0.2,1.2,1.4,7.1,2.7,13c7.2,34.7,7.6,92.8,1,144.4c-2.9,22.2-3.1,24.4-2.8,24.7c0.2,0.2,3.2-2.6,6.7-6.2l6.4-6.5l1.5-16.5
		c4-43.2,1.5-94.6-5.9-125.7C1846.1,1270.8,1838,1247.7,1839.4,1255.2 M1300,1313c-2.4,3.8-6.4,10.3-8.7,14.3l-4.3,7.4l1.2,4.3
		c3.8,14.1,7.6,16.6,8.3,5.5c0.7-10.2,2.8-21.1,6.2-31.3C1305.6,1304.7,1305.3,1304.7,1300,1313 M1713.9,1369.2
		c-0.1,1.9,3.2,11.5,3.7,10.7c0.3-0.5-0.4-3.3-1.6-6.2C1714.9,1370.7,1713.9,1368.7,1713.9,1369.2 M1979.2,1425.1
		c-22.4,24.2-29.6,45.2-30.6,89.5c-0.5,20.8-2,37.5-4.9,52.8c-0.4,2.2-1.4,7.7-2.2,12.1c-4.6,25.2-9.6,44.2-14.4,54.7
		c-0.7,1.6-1.3,3.1-1.3,3.4c0,0.3-1.8,4.2-4,8.6c-2.2,4.4-4,8.2-4,8.3c0,0.3,17.1-4.6,17.4-5c0.9-1.1,6.5-15.8,8.3-21.7
		c3.3-10.7,3.8-12.8,5.3-20.6c0.8-3.9,1.7-8.8,2.1-10.7c4.8-23.9,5.7-32,6.8-66.2c1.2-39.4,6.8-60.6,23.1-87.1
		c1-1.7,2.2-4.7,2.5-6.7s1.1-6,1.7-8.8C1986.7,1418,1986,1417.7,1979.2,1425.1 M1131.6,1638c0,0.7,0.6,2.1,1.3,3.1
		c1.7,2.2,1.7,0.8,0-2.2C1132.2,1637.6,1131.6,1637.2,1131.6,1638 M2061.2,1742.3c-0.4,2.4-1,5.3-1.5,6.6c-0.7,1.9-0.4,2.6,1.6,4.3
		c3.2,2.8,3.3,2.5,2.1-6.7C2062.2,1737,2062.1,1736.7,2061.2,1742.3 M1186.2,1780.4c0.6,0.7,12.2,5.1,13.4,5.1c2.7,0,0.1-1.6-4.7-3
		c-3.1-0.9-6.4-1.8-7.4-2.1C1186.5,1780.1,1185.9,1780.2,1186.2,1780.4 M1883.8,1900c-3.2,1.4-5.8,2.9-5.8,3.3
		c0.2,4.1,2.4,8.4,3.7,7.3c0.8-0.7,2.7-1.6,4.2-2.1c2.2-0.7,2.9-1.5,3.3-4c0.3-1.7,0.8-4,1.2-5.2
		C1891.2,1896.9,1891,1896.9,1883.8,1900 M1883.4,1922.8c0.7,3.3,1.2,4,1.2,1.7c0-0.9-0.4-2.3-0.9-3.1
		C1883.1,1920.5,1883,1920.9,1883.4,1922.8 M864.3,1960.4c0,1,0.3,2.6,0.8,3.6c1,2.3,1-0.1,0-3.1
		C864.5,1959,864.3,1958.9,864.3,1960.4 M1868.5,1988.3c-9.7,10.2-19.6,25-27.9,41.8c-4.8,9.8-6.6,13.9-11.2,26.4
		c-2.7,7.3-2,21.5,1.5,28.7c4.1,8.7,5.5,9.5,5.5,3.2c0-17.2,15.5-57.2,29.9-77.1c1.9-2.7,3.4-7.9,4.5-15.7c0.3-2.2,1-5.3,1.5-6.9
		C1873.8,1983.9,1872.8,1983.8,1868.5,1988.3 M1775.9,2091.2c-16.2,21.6-50.2,57.3-71,74.6c-98.8,81.9-202.5,104.9-312.6,69.2
		c-1.3-0.4-1.5-0.4-0.4,0.3c4,2.5,29.4,10.3,46.1,14.1c108.6,24.8,218.8-13.6,312.2-108.9c18.1-18.5,39.8-44.1,39.8-47
		c0-1.1-7-9.2-8-9.2C1781.4,2084.3,1778.8,2087.4,1775.9,2091.2 M1832,2106.9l-3,1.1l3.8,3.4c2.1,1.9,5.1,4,6.8,4.7
		c1.7,0.7,3,1.6,3,2.1c0,1.1-4.9,4.5-6.6,4.5c-0.8,0-1.6,0.3-1.8,0.8c-0.4,0.6-6.7,2.3-11.7,3.1c-1.5,0.2-1.3,0.5,1.1,1.8
		c6.3,3.4,20.8,3.1,20.8-0.5c0-1,0.5-3.4,1-5.2c1-3.2,0.9-3.6-1.8-6.4c-1.5-1.6-3.5-4.7-4.4-6.8
		C1837.6,2105.5,1836.8,2105.2,1832,2106.9 M1000.1,2349.1c4.6,4.2,16.8,15.2,21.4,19.3c2.2,1.9,4.8,4.3,5.8,5.3
		c1,1,5.2,4.8,9.4,8.5s8.2,7.3,8.9,8.1c0.7,0.8,2.8,2.5,4.5,3.9c1.7,1.4,5.9,5,9.3,8c8.2,7.3,14.3,12.6,20.7,18
		c2.9,2.5,6.7,5.7,8.4,7.2c7.7,6.6,20,16,21.2,16.1c0.7,0.1,5.6,2.6,10.9,5.5c207.3,115.2,467.9,122.3,704.6,19.2
		c27.1-11.8,61.4-28.8,60.7-30c-0.4-0.7-12.4-6.6-31.9-15.8l-6.1-2.9l-9.1,4.4c-13.7,6.7-28.4,13.6-28.8,13.6
		c-0.2,0-3.1,1.2-6.5,2.8s-8,3.6-10.5,4.5c-2.4,1-6,2.5-8.1,3.4s-9.7,3.9-17.1,6.7c-7.4,2.8-14.2,5.4-15.2,5.9
		c-3.2,1.4-19.4,6.9-30,10.3c-5.7,1.8-12.5,4-15.2,4.9c-14.6,4.9-56.7,15.7-76.5,19.6c-2.9,0.6-6.8,1.4-8.5,1.8
		c-1.7,0.4-9.6,1.8-17.4,3.1c-7.9,1.3-16.5,2.7-19.2,3.1c-12.7,2.1-32.1,4.4-53.7,6.2c-63.5,5.4-126.9,3.1-190.5-7.1
		c-13.7-2.2-27.6-4.9-42-8c-10.6-2.3-16.2-3.6-20.6-4.8c-2.7-0.7-8.9-2.4-13.9-3.7c-27.5-7.2-72.4-22.9-95.6-33.5
		c-3-1.4-8.1-3.6-11.3-5.1c-47.4-20.7-129.7-72-152.9-95.2c-0.2-0.2-2.3-1.8-4.5-3.4l-4-3L1000.1,2349.1 M2160.5,2349.2l-2.6,2.9
		l2.9-2.6c2.7-2.4,3.3-3.2,2.6-3.2C2163.3,2346.3,2162,2347.6,2160.5,2349.2"/>
	<path id="path4" class="st7" d="M1399.4,1233.4c-4.3,8.2-9.2,17.4-10.7,20.4c-1.6,2.9-5.4,10.1-8.4,15.9l-5.6,10.6l-7.6,3.5
		c-9.6,4.4-5.4,4.9-43.2-4.6c-17.8-4.4-32.5-7.9-32.7-7.8c-0.2,0.2,9.2,5.5,20.9,11.8c11.7,6.3,25.4,13.8,30.5,16.6l9.3,5.1l3.5,7.8
		c4.3,9.7,4.8,4.7-4.6,43.5c-4.4,18.2-7.9,33.3-7.7,33.5c0.2,0.2,7.6-13.5,16.4-30.3l16.1-30.7l7.5-3.8c9.6-4.8,6.2-5.1,44.2,4.2
		c18,4.4,33,8.1,33.3,8.1c0.6,0-5.7-3.5-41.2-22.7c-21.2-11.5-20.8-11.1-25.2-21.9l-2.5-6.2l2.8-11.5c1.5-6.3,5.2-21.5,8.2-33.7
		c3-12.2,5.2-22.4,5.1-22.6C1407.5,1218.6,1403.8,1225.2,1399.4,1233.4z"/>
</g>
</svg>
