<?xml version="1.0" encoding="utf-8"?>
<!-- Generator: Adobe Illustrator 19.2.1, SVG Export Plug-In . SVG Version: 6.00 Build 0)  -->
<svg version="1.1" id="Layer_1" xmlns="http://www.w3.org/2000/svg" xmlns:xlink="http://www.w3.org/1999/xlink" x="0px" y="0px"
	 viewBox="0 0 211 42.2" style="enable-background:new 0 0 211 42.2;" xml:space="preserve">
<style type="text/css">
	.st0{fill:#4EB8CC;}
	.st1{fill:#F0C769;}
	.st2{fill:#E07B5E;}
	.st3{fill:#A182B6;}
	.st4{fill:#75C487;}
	.st5{fill:#75C487;stroke:#000000;stroke-miterlimit:10;}
</style>
<path class="st0" d="M60.7,38.4v0.8l-0.2,0.6l-0.3,0.6l-0.5,0.5l-0.5,0.5l-0.6,0.3L58,41.9h-0.8h-0.8l-0.6-0.2L55,41.4l-0.5-0.5
	L54,40.4l-0.3-0.6l-0.3-0.6v-36l0.2-0.6L53.9,2l0.5-0.5L54.9,1l0.6-0.3l0.6-0.2h0.8h0.8l0.6,0.2L58.9,1l0.5,0.5L59.9,2l0.3,0.6
	l0.2,0.6l0.2,14.5l0.2,0.5l0.3,0.3l0.5,0.3l0.5,0.2h0.5l0.5-0.2L80.8,1.3l0.6-0.5l0.8-0.3l0.9-0.2h0.8l0.6,0.2l0.6,0.3l0.5,0.5
	l0.6,1.1l0.3,1.3l-0.2,0.8L86,5.1l-24.2,24l-0.6,1.1l-0.3,1.3L60.7,38.4L60.7,38.4z"/>
<path class="st0" d="M85.8,35.8l0.3,0.6l0.3,0.6l0.2,0.6v0.6l-0.2,0.6l-0.3,0.6L85.8,40l-0.5,0.5L84.7,41l-0.6,0.3l-0.6-0.2h-0.6
	l-0.8-0.2l-0.6-0.3l-0.6-0.3l-0.5-0.5L71.1,28l-0.3-0.6l-0.3-0.6l-0.2-0.6v-0.6l0.2-0.6l0.3-0.6l0.5-0.6l0.5-0.5l0.6-0.3l0.6-0.3
	l0.6-0.2h0.6l0.6,0.2l0.6,0.3l0.6,0.3l0.5,0.5L85.8,35.8L85.8,35.8z"/>
<path class="st1" d="M108.4,38.7v0.8l-0.2,0.6l-0.3,0.6l-0.5,0.5l-0.5,0.5l-0.6,0.3l-0.6,0.2h-0.8h-0.8l-0.6-0.2l-0.6-0.3l-0.5-0.5
	l-0.5-0.5l-0.3-0.6l-0.2-0.6V3.1l0.2-0.6l0.3-0.6l0.5-0.5l0.5-0.5l0.6-0.3l0.6-0.2h0.8h0.8l0.6,0.2l0.6,0.3l0.5,0.5l0.5,0.5l0.3,0.6
	l0.2,0.6V38.7L108.4,38.7z"/>
<polygon class="st2" points="198.4,26.2 201.2,32.7 191.3,29.5 190.5,29.5 189.9,29.7 189.2,29.8 188.6,30.3 188.1,30.8 187.8,31.2 
	187.5,32 187.3,32.7 187.3,33.5 187.3,34.1 187.7,34.7 188,35.4 188.5,35.8 189.1,36.3 206.9,42 208,42 208.8,41.8 209.8,41.2 
	210.6,40.2 211,39.1 211,38.2 195.1,2.2 194.1,1.1 193.2,0.4 191.8,0 190,0 188.6,0.4 187.5,1.1 186.7,2.2 170.8,37.6 170.6,38.5 
	170.6,39.3 170.9,39.9 171.2,40.6 171.5,41 172,41.4 172.7,41.7 173.3,42 174.6,42 175.5,41.7 176.4,41 177.1,40.2 190,10.5 
	190.2,10.4 190.5,10.2 190.8,10.2 191.1,10.2 191.3,10.4 191.6,10.5 "/>
<polygon class="st3" points="144.9,7.2 147.9,8.2 149.1,9 150.1,9.9 150.9,11 151.2,12.4 151.3,15.4 150.9,16.7 150.2,17.8 
	149.3,18.9 146.9,20.2 143.7,20.8 143.7,21 142.6,21.1 141.9,21.6 141.5,21.8 140.9,23 140.6,23.8 140.6,24.8 140.9,26.2 
	152.1,40.9 152.9,41.4 153.9,41.8 155,42 156.2,41.7 157.3,41 157.8,40.6 158.1,39.9 158.4,39.3 158.4,38.2 158.3,37.4 150.2,27 
	150.2,26.7 150.1,26.3 150.2,26.2 150.2,25.9 150.4,25.7 150.5,25.6 152.6,24.6 155.4,22.4 157.5,19.6 158.6,15.8 158.4,11 
	157.8,8.7 156.7,6.4 155.3,4.7 153.1,3 150.4,1.7 147.1,0.9 128.1,0.6 127.3,0.9 126.7,1.2 125.7,2.2 125.4,2.8 125.3,3.4 
	125.3,38.5 125.4,39.1 125.7,39.8 126.7,40.7 128,41.4 128.6,41.4 129.4,41.4 130.2,41 130.8,40.7 131.7,39.6 132.4,38.4 132.4,8.7 
	132.5,8.3 132.7,8 133.2,7.4 133.6,7.2 134,7.2 "/>
<polygon class="st4" points="20.1,0 18.6,0.1 17.4,0.8 16.4,1.7 0,38 0,38.5 0,39.3 0.2,39.9 0.5,40.6 0.9,41 1.4,41.4 1.9,41.7 
	2.5,42 3.8,42 4.9,41.7 5.7,41 6.3,40.2 19.3,10.5 19.6,10.4 19.7,10.2 20.1,10.2 20.4,10.2 20.7,10.4 20.9,10.5 30.5,32.7 
	20.5,29.5 19.9,29.5 19.3,29.7 18.6,29.8 18,30.3 17.5,30.8 17.1,31.2 16.7,32 16.6,32.7 16.6,33.5 16.7,34.1 16.9,34.7 17.4,35.4 
	17.9,35.8 18.3,36.3 36,42 37.1,42 38.7,41.5 39.6,40.7 40.1,39.8 40.4,38.5 40.4,38.5 24.3,2.2 23.5,1.1 22.4,0.4 21.2,0 "/>
<path class="st5" d="M11.4,28.9"/>
<path class="st5" d="M9.8,32.5"/>
<path class="st5" d="M8.5,35.2"/>
</svg>
