<?xml version="1.0" encoding="utf-8"?>
<!-- Generator: Adobe Illustrator 24.0.1, SVG Export Plug-In . SVG Version: 6.00 Build 0)  -->
<svg version="1.1" id="Layer_1" xmlns="http://www.w3.org/2000/svg" xmlns:xlink="http://www.w3.org/1999/xlink" x="0px" y="0px"
	 viewBox="0 0 3200 2832.3" style="enable-background:new 0 0 3200 2832.3;" xml:space="preserve">
<style type="text/css">
	.st0{fill:#C75036;}
	.st1{fill:#FFFFFF;}
	.st2{font-family:'DINEngschriftLTPro';}
	.st3{font-size:650px;}
	.st4{letter-spacing:15;}
	.st5{fill-rule:evenodd;clip-rule:evenodd;fill:#F6C049;}
	.st6{fill-rule:evenodd;clip-rule:evenodd;fill:#FCED6E;}
	.st7{fill-rule:evenodd;clip-rule:evenodd;fill:#DD8938;}
	.st8{fill-rule:evenodd;clip-rule:evenodd;fill:#D27127;}
	.st9{fill-rule:evenodd;clip-rule:evenodd;fill:#FCFBFA;}
</style>
<path class="st0" d="M0,0v2832.3h3200V0H0z"/>
<text transform="matrix(1 0 0 1 614.4671 603.4021)" class="st1 st2 st3 st4">MACCOIN</text>
<g id="svgg">
	<path id="path0" class="st5" d="M1785.82,891.99c1.72,0.78,6.51,1.29,5.74,0.61c-0.2-0.18-1.98-0.57-3.95-0.87
		C1785.12,891.35,1784.58,891.43,1785.82,891.99 M1800.13,894.72c0.98,0.42,2.39,0.77,3.13,0.77c0.85,0,0.68-0.28-0.45-0.77
		c-0.99-0.42-2.39-0.77-3.13-0.77C1798.84,893.95,1799.01,894.24,1800.13,894.72 M1815.34,898.3c0.98,0.42,2.39,0.77,3.13,0.77
		c0.85,0,0.68-0.28-0.45-0.77c-0.98-0.42-2.39-0.77-3.13-0.77C1814.04,897.53,1814.21,897.81,1815.34,898.3 M1822.49,899.97
		c2.62,1.09,8.33,2.03,6.71,1.11c-0.74-0.42-2.95-1.01-4.92-1.31C1822.02,899.42,1821.36,899.49,1822.49,899.97 M1832.78,902.77
		c3.06,0.98,5.41,0.98,3.13,0c-0.98-0.42-2.59-0.76-3.57-0.74C1830.89,902.05,1830.98,902.19,1832.78,902.77 M1839.48,904.56
		c0.98,0.42,2.39,0.77,3.13,0.77c0.85,0,0.68-0.28-0.45-0.77c-0.98-0.42-2.39-0.77-3.13-0.77
		C1838.19,903.79,1838.36,904.07,1839.48,904.56 M1849.77,906.9c0,0.21,0.9,0.72,2.01,1.13c3.09,1.14,7.44,2.1,6.86,1.52
		C1857.95,908.86,1849.77,906.42,1849.77,906.9 M1860.95,910.82c2.67,1.15,4.91,1.15,3.13,0c-0.74-0.48-2.15-0.84-3.13-0.82
		l-1.79,0.05L1860.95,910.82 M1879.67,916.61c4.88,1.72,9.02,2.99,9.19,2.82c0.41-0.41-11.93-4.76-15.39-5.43
		C1871.99,913.72,1874.78,914.89,1879.67,916.61 M1894.49,921.38c0,0.78,10.89,4.79,11.46,4.21c0.23-0.23-0.34-0.67-1.27-0.97
		c-0.93-0.3-3.61-1.3-5.94-2.21C1896.4,921.5,1894.49,921.04,1894.49,921.38 M1907.08,926.36c0.2,0.19,5.61,2.44,12,5
		c6.4,2.57,14.2,5.84,17.34,7.29c3.14,1.44,7.77,3.5,10.28,4.56c24.44,10.31,75.94,39.07,100.28,55.99
		c13.05,9.07,31.3,22.02,31.75,22.52c0.25,0.28,2.09,1.7,4.11,3.16c2.01,1.46,5.44,4.12,7.6,5.91c2.17,1.79,7.76,6.4,12.44,10.26
		c26.67,21.98,64.53,59.21,81.32,79.96c1,1.23,2.58,3.04,3.53,4.02c2.39,2.5,19.84,24.37,22.47,28.17c1.19,1.72,2.4,3.33,2.69,3.57
		c0.28,0.25,2.11,2.66,4.05,5.37c1.94,2.7,4.04,5.45,4.67,6.1c0.62,0.65,1.14,1.48,1.14,1.85c0,0.36,0.73,1.44,1.62,2.4
		c0.9,0.96,3.16,4.15,5.04,7.1c1.88,2.95,3.7,5.56,4.04,5.81c1.02,0.74,19.15,29.46,22.85,36.22c1.89,3.44,4.15,7.3,5.03,8.58
		c0.87,1.28,2.95,4.9,4.61,8.05c1.66,3.16,4.36,8.15,5.99,11.1c5.45,9.85,22.37,44.36,22.37,45.61c0,0.23,1.21,3.04,2.68,6.26
		c1.48,3.22,2.68,6.07,2.68,6.34c0,0.26,1.01,2.68,2.24,5.37c1.23,2.69,2.23,5.08,2.23,5.32c0,0.24,0.75,2.14,1.67,4.22
		c2.85,6.47,6.29,16.18,6.79,19.12c0.26,1.55,1.51,5.77,2.77,9.39c1.26,3.62,3.11,9.2,4.12,12.4c1,3.2,2.57,8.03,3.48,10.73
		c1.6,4.73,5.81,19.27,8.55,29.51c0.72,2.7,1.7,6.33,2.16,8.05c0.72,2.69,3.21,13.24,6.24,26.39c0.45,1.97,1.47,7,2.26,11.18
		c0.79,4.18,1.8,9.21,2.25,11.18c1.54,6.79,5.9,35.97,7.96,53.21c8.37,70.02,6.79,141.71-4.84,220.47
		c-0.72,4.92-1.33,9.42-1.35,10.01c-0.03,0.94-17.61,11.28-36.25,21.32c-3.45,1.86-8.27,4.46-10.73,5.8
		c-10.38,5.64-30.59,16.04-32.73,16.85l-2.33,0.87l1.21-5.07c8.91-37.37,15.15-78.12,19.28-125.81
		c1.79-20.68,1.48-88.39-0.49-110.46c-11.06-123.53-48.75-231.85-113.28-325.56c-13.08-19-39.2-53-42.1-54.81
		c-0.94-0.59-1.72-1.51-1.72-2.05c0-0.54-3.42-4.1-7.61-7.91c-4.19-3.81-7.37-7.31-7.09-7.77c0.29-0.46,0.16-0.73-0.3-0.6
		c-0.45,0.13-5.21-3.82-10.57-8.78c-57.57-53.26-109.19-85.92-180.14-113.99c-143.07-56.61-326.87-55.92-491.02,1.84
		c-409.56,144.11-662.81,591.3-553.62,977.56c9.64,34.1,30.5,82.79,52.02,121.44c78.45,140.84,209.74,246.14,362.75,290.91
		c13.15,3.85,12.32,4.43-1.26,0.89c-125.78-32.88-234.78-101.39-319.62-200.87c-56.82-66.63-101.56-151.7-126.52-240.54
		c-13.35-47.52-19.01-79.86-24.77-141.31c-1.47-15.68-1.48-85.48-0.01-101.96c3.58-40.37,5.22-53.42,10.13-80.95
		c3.99-22.36,4.1-22.92,6.62-34.43c1.29-5.9,2.69-12.34,3.11-14.31c0.42-1.97,1.59-6.6,2.6-10.29c1.01-3.69,2.25-8.52,2.76-10.73
		c5.89-25.41,25.15-81,39.96-115.38c11.29-26.2,34.44-72.75,41.91-84.27c1.19-1.84,2.16-3.51,2.16-3.72c0-0.21,2.85-5.15,6.34-10.97
		c87.72-146.41,210.32-260.53,361.25-336.3c12.05-6.05,21.51-11,21.02-11.01c-4.79-0.05-72.35,36.7-101.07,54.98
		c-31.13,19.82-90.45,63.98-101.51,75.56c-0.25,0.26-3.47,3.09-7.16,6.28c-3.69,3.19-6.91,6.01-7.16,6.26
		c-0.25,0.25-3.26,3.04-6.71,6.2c-77.98,71.75-142.3,156.73-189.56,250.49c-7.27,14.42-10.78,21.81-19.08,40.25
		c-26.61,59.01-50.74,140.82-60.14,203.92c-4.88,32.72-7.6,60.14-8.59,86.56c-0.34,8.99-0.97,16.58-1.4,16.84
		c-0.9,0.56-25.83-15.07-49.92-31.28c-9.1-6.12-16.7-10.98-16.89-10.8c-0.79,0.76-1.44,27.06-1.44,58.07
		c0,45.33,1.06,63.69,5.83,101.06c2.15,16.83,2.72,20.96,3.55,25.72c0.5,2.83,1.34,7.66,1.87,10.73c0.53,3.07,1.35,7.4,1.81,9.61
		c0.47,2.22,1.69,8.25,2.72,13.42c1.04,5.17,2.21,10.8,2.62,12.53c0.4,1.72,1.14,4.94,1.64,7.15c0.92,4.13,4.87,19.45,6.45,25.04
		c0.49,1.72,1.27,4.74,1.75,6.71c4.52,18.67,24.59,74.57,34.34,95.7c1.59,3.45,4.04,8.88,5.45,12.07
		c2.82,6.42,18.59,37.73,21.85,43.38c1.13,1.97,3.1,5.59,4.38,8.05c1.27,2.46,2.62,4.61,2.99,4.77c0.37,0.17,0.68,0.63,0.68,1.05
		c0,2.36,32.14,52.75,36.41,57.09c0.64,0.65,1.63,2.05,2.19,3.11c0.97,1.81,20.15,27.39,21.25,28.35c0.28,0.24,3.12,3.67,6.3,7.6
		c3.18,3.94,6,7.36,6.26,7.6c0.26,0.25,1.85,2.06,3.51,4.02c14.39,16.97,41.37,44.82,55.97,57.77c2.45,2.17,5.3,4.74,6.34,5.73
		c12.91,12.18,51.57,42.01,73.98,57.08c285.74,192.2,681.53,154.42,973.35-92.91c47.19-40,102.02-96.89,133.24-138.24
		c0.97-1.29,6.02-7.93,11.2-14.76c33.44-44,63.3-91.92,89.1-142.99c9.33-18.46,17.27-35.41,22.85-48.74
		c1.95-4.67,4.31-10.17,5.24-12.21c4.1-9.04,17.24-44.14,22.72-60.69c14.83-44.8,27.21-94.32,33.52-134.16
		c1.01-6.39,2.23-13.84,2.69-16.54c0.46-2.7,1.06-6.56,1.31-8.56c0.26-2.01,1.07-8.24,1.79-13.87c1.31-10.16,2.59-23.24,4.21-42.87
		c1.46-17.81,2-85.49,0.82-103.75c-2.22-34.52-3.58-47.08-8.81-81.56c-0.68-4.49-0.61-5,0.64-4.36c0.77,0.4,6.24,3.05,12.14,5.87
		c16.66,7.98,29.29,14.03,42.93,20.58c32.64,15.68,29.28,15,26.6,5.36c-1.45-5.21-3.78-14.84-4.22-17.52
		c-0.21-1.27-0.8-3.38-1.3-4.7c-0.5-1.31-0.61-2.39-0.26-2.4c0.36-0.01,0.19-0.31-0.37-0.67c-0.56-0.36-1.22-2.07-1.47-3.79
		c-0.25-1.72-0.85-4.14-1.34-5.37s-0.91-2.44-0.93-2.68c-0.03-0.25-0.24-1.05-0.46-1.79c-0.23-0.74-1.09-3.76-1.92-6.71
		s-1.84-6.17-2.25-7.16c-0.41-0.98-2.19-6.36-3.97-11.97c-4.18-13.22-14.78-41.66-18.87-50.64c-2.04-4.49-8.53-19.45-10.09-23.26
		c-0.8-1.96-1.78-3.71-2.16-3.87c-0.38-0.16-0.7-0.71-0.7-1.22c0-1.03-9.04-19.3-11.69-23.61c-0.94-1.52-1.44-3.03-1.12-3.35
		c0.32-0.32,0.18-0.58-0.31-0.58c-0.49,0-1.87-2.11-3.06-4.7c-1.19-2.58-2.47-4.83-2.83-5c-0.37-0.16-0.67-0.67-0.67-1.12
		c0-0.82-8.88-16.95-9.8-17.81c-0.27-0.25-1.05-1.45-1.75-2.68c-4.68-8.26-13.55-22.5-14.48-23.26c-0.3-0.25-1.26-1.86-2.14-3.57
		c-0.87-1.72-1.87-3.33-2.22-3.58c-0.34-0.25-3.51-4.67-7.04-9.84c-11.61-17.01-32.38-44.56-38.13-50.6
		c-0.5-0.53-2.92-3.33-5.39-6.22c-12.06-14.18-20.4-23.1-39.33-42.02c-17.34-17.33-32.49-31.79-41.06-39.19
		c-1.04-0.9-3.1-2.72-4.58-4.05c-3.13-2.81-30.95-27.25-34.77-30.55c-1.43-1.23-3.05-2.64-3.59-3.13c-0.55-0.49-4.01-3.51-7.71-6.71
		c-3.69-3.2-6.91-6.03-7.15-6.28c-0.25-0.26-3.05-2.68-6.22-5.37c-3.18-2.69-6.63-5.7-7.66-6.69c-1.04-0.98-4.42-4-7.52-6.71
		c-3.1-2.7-6.1-5.33-6.65-5.84c-0.93-0.84-11.66-9.95-16.49-13.98c-1.14-0.95-5.97-4.75-10.73-8.44c-4.77-3.7-9.27-7.21-10.01-7.81
		c-0.74-0.6-4.16-3.09-7.6-5.52c-3.45-2.44-6.67-4.74-7.15-5.11c-7.04-5.3-25.21-17.47-33.09-22.17c-1.97-1.18-3.78-2.36-4.02-2.63
		c-0.25-0.27-1.45-1.07-2.68-1.78c-1.23-0.71-7.07-4.08-12.97-7.51c-18.15-10.53-50.45-27.19-65.74-33.9
		c-1.72-0.76-5.45-2.43-8.3-3.71c-2.84-1.28-5.4-2.33-5.68-2.33c-0.28,0-1.88-0.61-3.55-1.34c-7.32-3.23-9.13-3.98-13.78-5.74
		C1908.73,926.17,1906.18,925.54,1907.08,926.36 M1612.53,949.91c1.11,0.21,2.92,0.21,4.02,0c1.11-0.21,0.2-0.39-2.01-0.39
		C1612.33,949.52,1611.43,949.7,1612.53,949.91 M1660.83,949.91c1.11,0.21,2.92,0.21,4.02,0c1.11-0.21,0.2-0.39-2.01-0.39
		C1660.63,949.52,1659.72,949.7,1660.83,949.91 M1594.66,950.82c1.61,0.2,4.02,0.19,5.37-0.01c1.34-0.2,0.03-0.36-2.92-0.36
		C1594.15,950.45,1593.05,950.62,1594.66,950.82 M1677.82,950.82c1.6,0.2,4.21,0.2,5.81,0c1.6-0.2,0.29-0.36-2.9-0.36
		C1677.53,950.46,1676.22,950.62,1677.82,950.82 M1581.67,951.68c0.86,0.23,2.27,0.23,3.13,0c0.86-0.23,0.16-0.41-1.57-0.41
		S1580.82,951.46,1581.67,951.68 M1571.39,952.59c1.11,0.21,2.91,0.21,4.02,0c1.11-0.21,0.2-0.39-2.01-0.39
		C1571.19,952.2,1570.28,952.38,1571.39,952.59 M1701.97,952.59c1.11,0.21,2.92,0.21,4.02,0c1.11-0.21,0.2-0.39-2.01-0.39
		S1700.87,952.38,1701.97,952.59 M1719.41,954.37c0.86,0.23,2.27,0.23,3.13,0c0.86-0.23,0.16-0.41-1.56-0.41
		C1719.26,953.96,1718.55,954.14,1719.41,954.37 M1546.79,955.26c0.86,0.22,2.27,0.22,3.13,0c0.86-0.23,0.16-0.41-1.57-0.41
		C1546.64,954.85,1545.93,955.04,1546.79,955.26 M1422.7,981.48c-1.13,0.48-1.29,0.77-0.45,0.77c0.74,0,2.15-0.35,3.13-0.77
		c1.13-0.49,1.29-0.77,0.45-0.77C1425.09,980.7,1423.68,981.05,1422.7,981.48 M1399,989.08c-1.72,0.67-2.53,1.22-1.79,1.23
		c0.74,0.02,2.55-0.53,4.02-1.2C1404.69,987.53,1403.08,987.5,1399,989.08 M1381.31,995.07c-4.07,1.51-7.25,2.91-7.06,3.1
		c0.4,0.41,15.8-5.06,15.8-5.6C1390.05,991.92,1388.84,992.27,1381.31,995.07 M1360.25,1003.07c-6.31,2.48-11.32,4.67-11.13,4.85
		c0.33,0.33,23.1-8.32,23.85-9.06C1373.96,997.87,1370.86,998.89,1360.25,1003.07 M1916.85,1008.75c1.23,0.7,2.63,1.28,3.13,1.28
		s-0.11-0.57-1.34-1.28c-1.23-0.7-2.64-1.28-3.13-1.28C1915.02,1007.48,1915.62,1008.05,1916.85,1008.75 M1342.2,1010.52
		c-2.46,1.16-4.07,2.11-3.57,2.13c0.49,0.01,2.9-0.93,5.37-2.09c2.46-1.16,4.07-2.11,3.57-2.13
		C1347.08,1008.43,1344.66,1009.37,1342.2,1010.52 M1333.26,1014.52c-1.97,0.93-3.33,1.73-3.02,1.77c0.86,0.11,7.04-2.58,7.04-3.07
		C1337.29,1012.61,1337.28,1012.62,1333.26,1014.52 M1323.61,1018.55c-2.36,1.13-4.57,2.35-4.92,2.7c-0.77,0.8,4.78-1.47,8.38-3.41
		C1331.03,1015.69,1328.47,1016.22,1323.61,1018.55 M1938.32,1019.04c1.72,0.94,3.53,1.71,4.02,1.71c0.49,0-0.52-0.77-2.24-1.71
		c-1.72-0.94-3.53-1.72-4.02-1.72S1936.59,1018.1,1938.32,1019.04 M1988.85,1047.23c0.99,0.8,2.6,1.85,3.58,2.33l1.79,0.87
		l-1.79-1.45c-0.98-0.8-2.59-1.85-3.58-2.33l-1.79-0.88L1988.85,1047.23 M2000.03,1054.2c0,0.21,1.71,1.51,3.8,2.89
		c2.09,1.38,3.33,1.94,2.75,1.24C2005.47,1056.98,2000.03,1053.55,2000.03,1054.2 M2013.44,1063.19c0,0.25,1.21,1.31,2.68,2.36
		c1.48,1.05,2.68,1.71,2.68,1.46s-1.21-1.31-2.68-2.36C2014.65,1063.6,2013.44,1062.94,2013.44,1063.19 M2019.7,1067.66
		c0,0.25,1.21,1.31,2.68,2.36c1.48,1.05,2.68,1.71,2.68,1.46c0-0.24-1.21-1.3-2.68-2.36
		C2020.91,1068.07,2019.7,1067.41,2019.7,1067.66 M2056.12,1096.13c6.07,5.12,7.14,5.72,2.53,1.42c-2.48-2.32-4.83-4.23-5.22-4.25
		C2053.05,1093.28,2054.26,1094.56,2056.12,1096.13 M2065.32,1103.32c0,0.22,3.93,3.97,8.72,8.34c4.8,4.36,7.92,7,6.93,5.85
		C2078.79,1114.98,2065.32,1102.76,2065.32,1103.32 M2083.31,1120.33c0.23,0.12,6.43,6.06,13.79,13.19l13.38,12.97l-12.96-13.2
		c-7.12-7.26-13.33-13.19-13.79-13.19C2083.28,1120.11,2083.09,1120.21,2083.31,1120.33 M2116.75,1154.09
		c1.92,1.97,3.69,3.58,3.94,3.58c0.25,0-1.13-1.61-3.05-3.58c-1.92-1.96-3.69-3.57-3.94-3.57S2114.83,1152.13,2116.75,1154.09
		 M1556.03,1166.72c-5.08,25.14-5.11,53.96-0.09,68.31c4.63,13.19,10.35,17.54,28.19,21.41c74.3,16.11,110.84,51.5,128.88,124.8
		c0.92,3.73,1.07,3.89,2.24,2.29c0.76-1.04,1.25-1.25,1.25-0.54c0,2.21,2.56-0.81,2.85-3.36c0.15-1.32,0.75-2.39,1.32-2.39
		s1.38-0.37,1.79-0.82c0.43-0.47,0.28-0.55-0.37-0.17c-0.62,0.35-1.12,0.24-1.12-0.25c0-0.9,1.71-2.3,2.83-2.32
		c0.33-0.01,0.93-0.38,1.34-0.83c0.44-0.48,0.24-0.52-0.49-0.1c-0.84,0.49-1.1,0.32-0.82-0.53c0.23-0.69,0.85-1.24,1.38-1.24
		c0.54,0,1.3-0.36,1.72-0.82c0.44-0.48,0.24-0.52-0.49-0.1c-0.85,0.49-1.11,0.32-0.82-0.53c0.23-0.69,0.85-1.24,1.38-1.24
		c0.53,0,1.3-0.36,1.71-0.82c0.43-0.47,0.28-0.54-0.37-0.17c-1.53,0.89-1.41-0.45,0.28-2.85c0.77-1.1,1.77-1.77,2.22-1.49
		c0.46,0.28,0.64-0.02,0.4-0.65c-0.23-0.64,0.42-2.17,1.44-3.4c1.29-1.55,1.7-1.74,1.34-0.62c-0.33,1-0.17,1.39,0.42,1.02
		c0.52-0.32,0.72-1.17,0.45-1.88c-0.57-1.48,2-5.88,3.06-5.23c0.38,0.24,1.24-0.27,1.91-1.13c1.11-1.41,1.07-1.44-0.34-0.33
		c-0.86,0.68-1.57,0.97-1.57,0.65c0-1.4,7.39-12.12,8.07-11.7c0.41,0.26,1.04-0.01,1.4-0.58c0.4-0.65,0.26-0.8-0.39-0.41
		c-1.92,1.19-1.05-0.52,7.63-14.99c17.89-29.81,35.15-66.95,40.96-88.12c2.03-7.4,2.12-7.55,2.24-3.69c0.18,5.69,1.26,2.6,3.28-9.36
		c1.45-8.62,1.48-9.68,0.24-10.61c-0.79-0.59-1.88-3.92-2.55-7.74c-0.64-3.69-1.94-8.21-2.87-10.05l-1.69-3.34l2.25,1.03
		c1.23,0.56,2.25,1.36,2.25,1.77s0.55,0.75,1.22,0.75c3.93,0,18.89,19.48,25.08,32.65c15.77,33.58,22.88,95.17,17.66,152.94
		c-1.52,16.79-4.83,44.99-6.96,59.26l-0.57,3.81l2.49-1.29c1.37-0.71,9.57-8.28,18.23-16.82c16.07-15.86,23.11-22.22,34.97-31.6
		c3.69-2.91,6.91-5.52,7.16-5.8c2.05-2.26,27.79-19.53,35.25-23.64c23.83-13.15,49.83-22.41,42.58-15.15
		c-0.48,0.48-2.63,4.29-4.78,8.45c-4.98,9.68-10.48,19.83-11.35,20.98c-0.37,0.49-3.09,5.52-6.03,11.18
		c-2.95,5.66-6.27,11.89-7.38,13.86c-1.11,1.97-3.63,6.6-5.59,10.29c-1.96,3.69-4.79,8.92-6.28,11.62
		c-3.43,6.25-7.35,13.55-12.62,23.55c-2.29,4.34-4.71,8.77-5.37,9.84c-1.05,1.69-4.19,7.35-8.26,14.91
		c-0.67,1.23-1.21,2.74-1.21,3.35c0,0.62-0.31,1.12-0.68,1.12c-0.37,0-1.24,1.3-1.94,2.9c-0.7,1.6-1.52,3.11-1.84,3.35
		c-0.31,0.25-1.44,2.26-2.52,4.48c-1.07,2.21-3.62,7.04-5.66,10.73c-2.04,3.69-5.42,9.93-7.51,13.86
		c-2.09,3.93-4.79,8.97-6.01,11.18c-1.22,2.22-3.94,7.24-6.05,11.18c-2.11,3.93-4.84,8.96-6.07,11.18
		c-1.23,2.21-3.53,6.44-5.11,9.39c-1.58,2.95-4.7,8.78-6.93,12.97c-2.23,4.18-5.3,9.82-6.81,12.52c-1.51,2.7-4.06,7.53-5.68,10.73
		c-1.62,3.2-3.14,6.02-3.39,6.26c-0.25,0.24-1.05,1.65-1.79,3.13c-0.74,1.48-1.54,2.88-1.79,3.13c-0.25,0.25-1.35,2.26-2.44,4.48
		c-1.09,2.21-3.64,7.04-5.67,10.73c-2.03,3.69-5.52,10.13-7.76,14.31c-4.23,7.9-7.75,14.44-12.85,23.87
		c-1.89,3.51-3.24,5.15-3.67,4.47c-1-1.57-0.86-0.4,0.65,5.38c8.13,31.13,9.46,83.02,2.98,116.41c-1.16,6-2.68,4.88-1.64-1.21
		c18.72-109.53-33.75-229.17-128.64-293.28c-87.33-59.01-218.3-34.73-310.54,57.58c-98.31,98.38-149.65,228.92-138.24,351.53
		c0.67,7.13,1.15,13.04,1.08,13.13c-0.4,0.5-33.32-9.14-33.94-9.93c-1.15-1.51,0.06-59.25,1.6-76.09
		c1.84-20.06,5.06-45.43,7.26-57.28l0.5-2.73l-8.62-2.44c-56.55-15.98-89.81-50.37-90.22-93.3c-0.1-10.35-1.23-16.61-1.51-8.37
		c-0.04,1.23-0.45,3.04-0.91,4.02c-1.37,2.94,0.03-11.68,1.89-19.76c3.39-14.68,10.65-33.24,12.56-32.07
		c0.56,0.35,1.33,0.12,1.72-0.5c1.14-1.84,2.25,0.79,6.8,15.96c0.93,3.12,2.4,6.05,3.26,6.51c0.86,0.47,2.17,2.29,2.9,4.06
		c1.67,4.01,1.66,4.84-0.03,2.59c-1.8-2.38-1.66-0.98,0.2,2c4.69,7.49,11.66,11.34,19.05,10.52c28.19-3.11,47.91-16.93,74.86-52.46
		c21.99-29.01,33.96-37.28,57.96-40.09c4.43-0.52,10.67-1.33,13.87-1.79l5.81-0.85l-5.21,0.41c-5.19,0.41-5.22,0.4-10.29-4.09
		c-31.71-28.13-50.73-71.59-50.09-114.42c0.09-5.69,0.28-8.53,0.42-6.32c3.1,46.6,27.6,90.08,65.6,116.41
		c6.44,4.46,7.79,5.76,6.53,6.26c-2.73,1.08-0.1,0.82,2.97-0.29l2.9-1.05l-6.42-4.41c-44.48-30.55-67.89-74.72-68.06-128.43
		c-0.03-10.02-0.34-16.87-0.68-15.21c-0.34,1.66-1.02,5.03-1.5,7.49c-0.82,4.16-0.85,4.01-0.45-2.24
		c2.04-32.08,14.93-70.24,36.1-106.88c6.65-11.51,14.73-24.01,13.92-21.54c-0.31,0.94-0.17,1.96,0.32,2.26
		c0.9,0.56,0.65,2-2.14,12.12c-0.81,2.95-1.3,6.26-1.1,7.35c0.2,1.09,0.08,1.81-0.28,1.58c-1.11-0.69-1.75,5.82-1.69,17.01
		c0.04,6.5,0.34,9.85,0.76,8.49c0.99-3.19,17.49-30.41,18.43-30.41c0.17,0-0.49,2.32-1.47,5.15c-4.17,12.1-6.76,24.28-7.6,35.66
		l-0.64,8.71l-2.1-2.62c-1.15-1.44-2.1-2.33-2.1-1.97c-0.01,1.64,15.59,18.55,20.62,22.34c9.63,7.27,31.18,12.67,32.45,8.14
		c0.25-0.89,1.07-4.23,1.83-7.43c2.8-11.78,9.59-39.96,10.91-45.27l1.36-5.47l-2.73-6.16c-1.5-3.39-3.23-7.12-3.84-8.29
		c-0.77-1.46-10.93-7.46-32.56-19.23c-17.3-9.41-31.33-17.22-31.18-17.37c0.14-0.15,15.87,3.6,34.96,8.33l34.7,8.6l8.16-3.69
		l8.17-3.69l4.36-8.22c2.4-4.52,7-13.25,10.23-19.41c15.14-28.91,19.25-36.53,19.55-36.23c0.18,0.18-0.9,5.29-2.39,11.35
		c-1.5,6.07-4.33,17.67-6.28,25.79c-1.96,8.12-4.58,18.99-5.83,24.15l-2.27,9.39l3.78,8.37c3.53,7.85,4.06,8.53,8.24,10.74
		c14.68,7.75,58.47,31.83,58.27,32.04c-0.14,0.13-14.11-3.17-31.04-7.35c-16.94-4.18-32.61-8.03-34.82-8.56
		c-3.79-0.92-4.5-0.76-11.99,2.6l-7.96,3.58l-7.05,13.28c-3.88,7.3-10.11,19.07-13.84,26.14l-6.78,12.87l4.81-0.5
		c2.65-0.28,9.84-1.18,15.99-2c21.66-2.89,24.77-3.15,43.38-3.68c47.05-1.35,85.76,8.85,113.81,29.99c4.55,3.43,7.83,5.42,7.31,4.43
		c-1.38-2.58-0.57-2.86,2.11-0.75c2.3,1.8,2.29,1.75-1.08-6.92c-17.62-45.37-27.04-95.15-25.75-136.19
		c0.45-14.31,0.07-15.27-1.93-4.92c-0.79,4.11-0.83,3.92-0.42-2.23c2.65-39.65,19.04-74.19,44.93-94.64
		C1557.7,1158.57,1557.69,1158.55,1556.03,1166.72 M1569.51,1183.83c-3.12,12.49-5.41,36.66-4.81,50.74
		c0.42,10,0.34,10.97-0.85,9.39c-5.06-6.75-8.07-18.14-8.89-33.6c-0.85-16.02-0.66-16.65,7.07-23.11
		C1569.1,1181.34,1570.27,1180.8,1569.51,1183.83 M1798.75,1215.16l-0.04,4.67l-1.71-4.47c-0.94-2.46-2.15-5.19-2.67-6.07
		c-0.91-1.52-0.82-1.53,1.75-0.2C1798.58,1210.38,1798.79,1210.84,1798.75,1215.16 M1841.56,1257.85
		c13.45,34.03,18.53,86.83,13.96,145.24c-1.77,22.58-1.38,21.35-9.14,29.6c-7.8,8.31-7.67,8.37-6.04-2.76
		c9.83-67.04,9.54-128.92-0.79-171.69C1837.16,1248.38,1837.77,1248.25,1841.56,1257.85 M1507.25,1303.46
		c2.63,25.31,9.23,54.69,18.61,82.8l5.99,17.96l-4.04-2.9c-4.57-3.28-4.75-3.74-10.73-26.76c-7.65-29.45-11.75-57.57-11.47-78.71
		c0.08-5.9,0.26-8.72,0.41-6.26C1506.16,1292.05,1506.72,1298.29,1507.25,1303.46 M1290.33,1304.83c-0.69,1.95-1.28,2.86-1.3,2.02
		c-0.04-1.56,1.83-6.3,2.3-5.83C1291.47,1301.17,1291.02,1302.88,1290.33,1304.83 M1715.51,1371.3c2.64,6.22,3.78,12.27,1.97,10.37
		c-0.68-0.71-2.2-5.43-5.17-16.06C1711.4,1362.34,1712.7,1364.65,1715.51,1371.3 M2047.78,1377.62
		c4.08,2.81,18.43,17.53,18.43,18.91c0,0.46-2.02,0.84-4.49,0.84c-2.47,0-8.4,0.84-13.17,1.88c-47.86,10.37-79.2,45.6-87.84,98.74
		c-0.56,3.44-1.2,7.27-1.43,8.49c-0.23,1.23-0.78,13.3-1.25,26.83c-1.61,47.05-7.22,78.77-19.29,108.9l-3.19,7.97l-10.47,2.91
		c-5.76,1.6-14.31,4.41-19.01,6.24l-8.53,3.32l6.92-6.61c27.99-26.74,41.23-72.78,44.55-154.93
		c2.54-62.86,29.22-106.74,73.37-120.65C2041.44,1374.46,2042.94,1374.29,2047.78,1377.62 M1579.22,1564.22
		c70.05,10.79,126.53,74.15,143.84,161.39c4.43,22.3,4.63,24.49,4.61,51.43c-0.01,29.89-0.27,31.48-6.92,43.66
		c-2.47,4.52-5.75,10.63-7.28,13.58c-1.53,2.95-3,5.57-3.26,5.82c-0.26,0.25-1.79,3.06-3.39,6.26c-1.6,3.2-4.73,9.04-6.94,12.97
		c-2.22,3.93-4.92,8.97-6,11.18c-1.09,2.22-2.17,4.23-2.42,4.48s-1.41,2.26-2.58,4.47c-3.06,5.8-7.39,13.88-11.02,20.57
		c-1.73,3.2-4.68,8.63-6.55,12.07c-1.87,3.45-4.78,8.88-6.46,12.07c-3.75,7.1-9.25,17.26-13.56,25.04c-1.77,3.2-3.77,6.88-4.44,8.19
		c-3.14,6.11-114.75,4.13-187.94-3.34c-34.95-3.56-32.33-3.03-33.86-6.86c-24.06-59.97-20.31-110.24,11.8-158.27
		c54.93-82.15,127.31-98.13,157.81-34.83c8.24,17.1,2.16,47.73-12.41,62.46c-7.33,7.41-23.6,14.53-33.33,14.57l-2.57,0.02l3.28-3.63
		c24.25-26.84,11.1-64.84-20.12-58.16c-28.62,6.12-52.24,40.38-57.19,82.96c-7.12,61.23,56.93,102.34,112.95,72.5
		c12.89-6.86,33.65-24.85,39.75-34.43c0.85-1.35,1.81-2.65,2.13-2.89c5.89-4.57,22.48-38.99,28.08-58.22
		c44.67-153.73-82.52-252.66-202.14-157.22c-54.39,43.4-95.58,108.53-108.07,170.9c-5.98,29.86-6.39,72.17-0.89,92.73
		c0.68,2.53,1.6,2.63-24.74-2.66c-24.56-4.93-22.69-4.22-23.41-8.9c-2.36-15.46-0.3-63.07,3.79-87.59
		C1327.07,1672.91,1457.8,1545.52,1579.22,1564.22 M1104.81,1686.25c5.89,29.94,30.01,55.55,67.01,71.16
		c8.74,3.69,25.53,9.34,27.74,9.34c2.6,0,2.84,1.26,1.71,8.95c-0.77,5.25-0.78,7.49-0.05,8.36c0.54,0.65,0.78,1.41,0.52,1.66
		c-0.26,0.26-1.09,5.05-1.86,10.65c-0.77,5.6-1.74,12.4-2.17,15.1l-0.77,4.92l0.41-5.81c0.49-6.92,1.85-18.07,2.7-22.14
		c0.48-2.32,0.32-2.91-0.83-2.91c-1.48,0-12.59-4.21-18.92-7.17c-31.04-14.5-37.16-18.21-49.77-30.22
		c-19.23-18.3-27.81-37.92-27.46-62.79c0.08-5.16,0.27-8.18,0.45-6.71C1103.7,1680.13,1104.27,1683.55,1104.81,1686.25
		 M2054.99,1708.88c6.18,13.97,12.55,49.16,8.44,46.59c-0.7-0.44-3.61-2.38-6.46-4.32c-3.9-2.64-5.37-3.24-5.9-2.37
		c-0.54,0.86-1.84,0.34-5.23-2.1c-15.95-11.46-41.59-5.68-60.27,13.6c-8.91,9.19-9.28,9.86-13.25,23.65
		c-19.5,67.84-51.17,115.47-82.29,123.79c-9.61,2.57-9.68,2.8-4.5,16.05c12.9,32.99,11.64,52.97-4.43,70.16
		c-20.49,21.94-39.27,60.13-43.4,88.3c-0.81,5.52-1.22,10.45-0.91,10.96c1.28,2.08-1.04,0.62-3.03-1.9
		c-7.8-9.86-8.43-32.7-1.43-52.19c10.99-30.6,23.24-52.17,39.38-69.32c15.89-16.88,16.96-35.71,4-70.12
		c-4.36-11.55-4.36-13.28-0.01-14.02c33.47-5.68,72.76-64.78,89.55-134.67c1.71-7.09,16.99-22.65,27.13-27.62
		c16.3-7.98,35.85-5.78,52.97,5.95c4.12,2.83,5.32,3.12,5.88,1.45c0.3-0.87,0.7-0.85,1.86,0.11c2.23,1.84,1.85-9.86-0.75-23.37
		C2051.44,1702.76,2052.54,1703.34,2054.99,1708.88 M1237.99,1897.33c0.25,0.25,2.07,2.46,4.04,4.92
		c9.74,12.18,12.23,14.85,14.7,15.84c2.8,1.11,13.79,4.01,21.07,5.56c2.95,0.63,8.23,1.86,11.73,2.74l6.36,1.59l1.5,11.29
		c7.01,52.68,23.9,91.78,55.12,127.62c62.69,71.95,183.28,103.54,259.59,67.99c4.54-2.11,9.86-4.36,11.83-5
		c21.74-7.04,55.1-24.72,76.2-40.4c7.75-5.76,10.08-7.01,10.13-5.44c0.01,0.37,2.01,2.88,4.43,5.59c8,8.92,8.58,7.78-13.84,27.4
		c-70,61.22-128.54,84.68-193.19,77.38c-100.02-11.28-167.85-48.43-215.03-117.75c-31.54-46.35-55.42-117.27-59.61-177.08
		l-0.63-8.93l2.57,3.12C1236.38,1895.48,1237.74,1897.08,1237.99,1897.33 M1194.55,1902.25c0.73,0.58,1.51,5.78,2.19,14.76
		c1.5,19.56,4.14,41.3,6.51,53.66c4.77,24.85,10.29,45.98,16.69,63.95c7.42,20.79,18.14,44.69,25.64,57.15
		c1.73,2.88,3.15,5.44,3.15,5.7c0,1.27,19.65,29.54,26.41,38c14.47,18.09,37.11,39.36,53.19,49.97
		c20.73,13.67,70.51,33.83,97.49,39.5c41.78,8.77,79.08,10.18,112.69,4.26c12.21-2.15,19.75-3.7,26.38-5.45
		c3.94-1.04,8.37-2.19,9.84-2.58c67.96-17.61,160.12-84.84,205.11-149.64c2.3-3.31,4.64-6.02,5.21-6.04
		c2.56-0.07,9.87,9.97,15.9,21.85c9.87,19.44,17.01,23.07,35.09,17.86c1.65-0.47,2.22,0.09,3.85,3.78
		c2.34,5.3,7.08,10.32,11.75,12.42c5.48,2.47,4.5,4.01-4.77,7.58c-9.69,3.72-21.99,2.82-26.28-1.92c-0.83-0.92-2.46-1.68-3.62-1.68
		c-7.44,0-12.9-5.52-20.56-20.82l-5.28-10.54l-9.47,11.88c-68.21,85.57-158.07,139.57-248.97,149.64
		c-49.19,5.45-106.81-4.09-155.17-25.7c-8.39-3.75-11.33-5.03-16.1-7.04c-99.52-41.91-165.87-161.94-168.55-304.9
		c-0.21-11.56-0.19-20.01,0.07-18.78C1193.21,1900.35,1193.92,1901.76,1194.55,1902.25 M1371.72,1942.45
		c25,4.14,28.65,4.71,40.7,6.33c14.16,1.91,13.92,1.82,15.52,5.21c22.55,47.52,87.71,75.18,148.59,63.07
		c22.72-4.52,41.19-11.64,54.17-20.89l4.08-2.91l2.17,2.38c1.2,1.31,3.79,4.37,5.75,6.82c4.41,5.46,6.39,7.87,9.86,11.97
		c1.49,1.75,5.31,6.41,8.49,10.35c3.19,3.94,6.7,8.08,7.81,9.21c1.11,1.13,2.03,2.34,2.04,2.68c0.01,0.35,1.42,2.18,3.13,4.08
		c3.74,4.15,3.74,4.19,0.65,6.94c-33.61,29.92-57.81,42.63-96.2,50.5c-111.32,22.82-197.62-34.07-227.8-150.16l-2.51-9.67l2.38,0.49
		C1351.87,1939.12,1361.39,1940.74,1371.72,1942.45"/>
	<path id="path1" class="st6" d="M1603.37,878.28c-0.98,0.17-8.83,0.73-17.44,1.24c-21.08,1.26-29.96,2.14-58.13,5.77
		c-10.6,1.37-17.09,2.36-26.39,4.06c-2.95,0.54-7.64,1.36-10.41,1.84c-4.48,0.76-21.8,4.34-30.29,6.25
		c-1.72,0.39-5.95,1.31-9.39,2.06c-5.59,1.21-26.98,6.66-33.99,8.67c-1.48,0.42-4.09,1.15-5.81,1.63c-1.72,0.47-5.95,1.72-9.39,2.78
		c-3.45,1.06-8.07,2.47-10.29,3.14c-2.21,0.68-5.83,1.84-8.05,2.6c-2.21,0.75-7.24,2.43-11.18,3.73
		c-12.97,4.27-49.06,17.84-50.98,19.16c-0.49,0.34-2.91,1.35-5.37,2.25s-7,2.78-10.08,4.18c-3.09,1.4-5.85,2.54-6.14,2.54
		c-0.3,0-4.21,1.77-8.7,3.92c-4.49,2.16-10.18,4.83-12.64,5.94c-6.53,2.93-35.17,17.25-39.35,19.67c-1.97,1.14-5.99,3.36-8.95,4.93
		c-2.95,1.57-6.78,3.65-8.49,4.63c-1.72,0.98-5,2.81-7.29,4.09c-2.29,1.27-5.8,3.35-7.81,4.62c-2.01,1.27-3.89,2.31-4.18,2.31
		s-2.22,1.11-4.28,2.46c-6.76,4.43-7.28,4.74-8.87,5.28c-0.86,0.28-1.57,0.83-1.57,1.21c0,0.38-0.7,0.92-1.56,1.21
		c-1.47,0.49-18.15,10.94-22.73,14.24c-1.15,0.83-5.31,3.71-9.25,6.4c-17.12,11.69-21.95,15.1-24.31,17.13
		c-1.38,1.19-2.79,2.17-3.12,2.17c-0.33,0-1.14,0.51-1.79,1.14c-0.65,0.62-3.4,2.72-6.1,4.65c-2.7,1.93-6.17,4.54-7.7,5.8
		c-3.77,3.1-5.58,4.51-9.76,7.6c-1.96,1.45-3.76,2.85-4.01,3.13c-0.25,0.27-3.47,2.89-7.15,5.81c-3.69,2.92-6.91,5.54-7.16,5.81
		c-0.25,0.27-2.46,2.1-4.92,4.07c-2.46,1.97-6.68,5.55-9.39,7.95c-2.7,2.41-6.13,5.43-7.62,6.71c-11.92,10.3-28.03,25.36-44.7,41.79
		c-7.11,7-26.11,26.96-33.99,35.7c-4.43,4.9-8.25,9.12-8.5,9.37s-2.45,2.86-4.91,5.81c-2.45,2.95-4.89,5.77-5.43,6.26
		c-0.53,0.49-3.75,4.31-7.15,8.49c-3.41,4.18-6.6,8.09-7.09,8.69c-2.25,2.71-3.19,3.91-9.72,12.33c-3.82,4.92-7.42,9.56-8,10.3
		c-3.66,4.67-10.35,13.79-18.67,25.47c-5.26,7.38-10.71,15.03-12.11,16.99c-5.06,7.09-26.18,40.6-26.18,41.53
		c0,0.53-0.3,0.96-0.67,0.96c-0.37,0.01-1.12,0.91-1.67,2.01c-0.55,1.11-3.85,6.93-7.34,12.94c-9.28,16-14.44,25.55-25.93,48.1
		c-5.87,11.5-19.83,41.13-19.83,42.07c0,0.2-1.05,2.68-2.33,5.53s-2.88,6.38-3.54,7.85c-0.67,1.48-2.06,4.9-3.1,7.6
		c-1.05,2.7-2.44,6.13-3.09,7.6c-0.65,1.48-3.27,8.32-5.82,15.2c-2.55,6.89-4.99,13.32-5.43,14.31c-0.43,0.98-2.46,6.82-4.51,12.97
		c-2.04,6.15-4.22,12.59-4.85,14.31c-0.63,1.72-1.82,5.54-2.66,8.49c-0.84,2.95-2.24,7.58-3.12,10.29
		c-2.17,6.71-4.09,13.41-6.28,21.91c-1.01,3.94-2.19,8.16-2.63,9.39c-0.43,1.23-1.85,6.86-3.14,12.53
		c-1.29,5.66-3.16,13.71-4.15,17.89c-0.99,4.18-2.17,9.21-2.64,11.18c-0.46,1.97-1.25,5.99-1.73,8.95
		c-0.49,2.95-1.7,9.39-2.67,14.31c-0.98,4.92-2.41,13.37-3.19,18.78c-0.78,5.41-1.81,12.45-2.29,15.65
		c-2.75,18.39-6.05,48.59-6.13,55.99c-0.04,3.34,66.08,48.13,68.67,46.52c0.42-0.26,1.05-7.84,1.39-16.83
		c0.99-26.42,3.71-53.85,8.59-86.56c9.4-63.1,33.53-144.91,60.14-203.92c8.31-18.43,11.82-25.83,19.08-40.25
		c47.26-93.76,111.58-178.74,189.56-250.49c3.45-3.17,6.46-5.96,6.71-6.2c0.25-0.25,3.47-3.06,7.16-6.26
		c3.69-3.2,6.91-6.03,7.16-6.28c4.34-4.54,42.01-34.29,59.18-46.71c43.7-31.65,100.78-65.07,143.84-84.22
		c94.08-41.85,170.6-61.9,268.76-70.43c17.71-1.53,88.67-1.55,104.64-0.02c24.22,2.32,38.03,3.92,52.2,6.05
		c288.15,43.15,499.7,263.27,537.58,559.37c4.99,39.05,6.83,106.99,3.83,141.76c-4.12,47.69-10.36,88.45-19.28,125.81l-1.21,5.07
		l2.33-0.87c1.28-0.48,8.16-3.93,15.29-7.65c11.95-6.25,15.47-8.12,29.51-15.72c18.24-9.87,34.88-19.69,34.91-20.6
		c0.02-0.58,0.62-5.09,1.35-10.01c10.58-71.6,12.98-145.41,6.66-204.37c-2.66-24.85-7.54-59.41-9.78-69.31
		c-0.45-1.97-1.45-7-2.25-11.18c-0.79-4.18-1.81-9.21-2.26-11.18c-3.02-13.14-5.52-23.7-6.24-26.39c-0.46-1.72-1.43-5.34-2.16-8.05
		c-2.75-10.25-6.95-24.78-8.55-29.51c-0.91-2.7-2.48-7.53-3.48-10.73c-1-3.2-2.85-8.77-4.12-12.4c-1.26-3.62-2.51-7.85-2.77-9.39
		c-0.5-2.94-3.94-12.65-6.79-19.12c-0.92-2.08-1.67-3.98-1.67-4.22c0-0.24-1-2.63-2.23-5.32c-1.23-2.69-2.24-5.1-2.24-5.37
		c0-0.27-1.21-3.12-2.68-6.34c-1.48-3.22-2.68-6.04-2.68-6.26c0-1.25-16.93-35.76-22.37-45.61c-1.63-2.95-4.33-7.94-5.99-11.1
		c-1.66-3.15-3.74-6.77-4.61-8.05c-0.88-1.27-3.14-5.14-5.03-8.58c-3.7-6.76-21.82-35.49-22.85-36.22
		c-0.34-0.25-2.16-2.86-4.04-5.81c-1.88-2.95-4.14-6.14-5.04-7.1c-0.89-0.96-1.62-2.04-1.62-2.4c0-0.36-0.51-1.2-1.14-1.85
		c-0.63-0.65-2.73-3.4-4.67-6.1c-1.94-2.7-3.76-5.12-4.05-5.37c-0.28-0.25-1.5-1.86-2.69-3.57c-2.63-3.8-20.08-25.68-22.47-28.17
		c-0.94-0.99-2.53-2.8-3.53-4.02c-10.85-13.41-34.48-37.8-55.83-57.62c-7.37-6.85-13.3-12.81-13.16-13.26
		c0.13-0.45-0.11-0.58-0.55-0.31c-0.44,0.27-1.96-0.53-3.38-1.77s-5.08-4.31-8.14-6.82s-5.31-4.96-5-5.46
		c0.31-0.49,0.14-0.64-0.37-0.33c-0.85,0.53-4.16-1.56-7.32-4.6c-0.69-0.67-3.51-2.89-6.26-4.93c-2.75-2.04-5.2-3.93-5.45-4.2
		c-0.92-0.98-25.36-18.15-36.38-25.57c-10.97-7.37-33.99-21.39-43.86-26.71c-2.57-1.38-4.42-2.92-4.11-3.42
		c0.31-0.5,0.12-0.64-0.41-0.31c-1.21,0.75-9.68-3.71-9.35-4.93c0.13-0.49-0.14-0.65-0.61-0.36c-0.47,0.29-8.03-3.02-16.79-7.36
		c-8.76-4.34-17.99-8.76-20.51-9.83c-2.51-1.06-7.14-3.12-10.28-4.57c-5.62-2.6-28.27-11.73-37.02-14.92
		c-2.46-0.9-4.67-1.86-4.92-2.13c-0.25-0.27-0.85-0.51-1.34-0.53c-0.49-0.02-9.09-2.74-19.11-6.04c-10.01-3.31-18.54-6-18.94-6
		c-0.41,0-1.87-0.47-3.25-1.04c-1.39-0.57-2.92-1.09-3.41-1.16c-4.48-0.64-7.5-1.72-7.01-2.51c0.32-0.52,0.15-0.67-0.39-0.33
		c-0.53,0.33-8.14-1.23-16.91-3.47c-8.77-2.23-17.32-4.29-19-4.56s-3.95-0.84-5.05-1.26s-2.18-0.57-2.41-0.34
		c-0.23,0.23-1.58-0.04-3-0.61s-3.79-1.12-5.26-1.24c-1.48-0.12-5.1-0.72-8.05-1.33c-8.85-1.83-22.58-4.19-28.62-4.92
		c-1.48-0.18-5.9-0.76-9.84-1.3c-19.4-2.65-35.61-4.39-47.4-5.08c-4.92-0.29-12.17-0.83-16.1-1.2
		C1672.35,878.01,1606.85,877.66,1603.37,878.28 M1551.83,1163.2c-25.89,20.45-42.28,54.99-44.93,94.64
		c-0.41,6.15-0.38,6.34,0.42,2.23c2-10.35,2.38-9.39,1.93,4.92c-1.29,41.04,8.12,90.82,25.75,136.19c3.38,8.68,3.38,8.73,1.08,6.92
		c-2.68-2.11-3.49-1.82-2.11,0.75c0.53,0.99-2.76-1-7.31-4.43c-28.05-21.14-66.76-31.34-113.81-29.99
		c-18.64,0.53-21.83,0.8-43.38,3.69c-6.15,0.82-13.43,1.71-16.18,1.97l-5.01,0.47l-2.41,4.93c-2.76,5.63-3.82,5.74-2.33,0.24
		c1.24-4.62,1.65-4.27-5.84-4.93c-16.6-1.45-24.48-6.17-40.24-24.14c-12.16-13.87-14.54-32.04-7.59-57.91
		c2.37-8.83,2.57-10.04,1.72-10.56c-0.48-0.3-0.62-1.31-0.32-2.26c0.8-2.47-7.27,10.03-13.92,21.54
		c-21.16,36.64-34.05,74.8-36.1,106.88c-0.4,6.25-0.37,6.4,0.45,2.24c0.48-2.46,1.16-5.83,1.5-7.49c0.34-1.66,0.65,5.18,0.68,15.21
		c0.17,53.73,23.58,97.88,68.11,128.46l6.47,4.44l-4.68,1.42c-4.48,1.36-8.54,1.99-27.49,4.2c-24.49,2.85-36.29,10.96-58.41,40.13
		c-26.95,35.54-46.67,49.35-74.86,52.46c-12.93,1.43-20.24-7.55-28.14-34.6c-1.49-5.1-3.97-9.51-4.02-7.16
		c-0.02,0.73-0.59,1-1.43,0.68c-2.36-0.9-9.21,16.16-12.87,32.02c-1.86,8.08-3.26,22.69-1.89,19.76c0.46-0.98,0.87-2.8,0.91-4.02
		c0.28-8.24,1.41-1.97,1.51,8.37c0.41,42.93,33.67,77.33,90.22,93.3l8.62,2.44l-0.5,2.73c-2.2,11.85-5.41,37.22-7.26,57.28
		c-1.55,16.84-2.76,74.58-1.6,76.09c0.61,0.79,33.53,10.43,33.94,9.93c0.07-0.09-0.41-5.99-1.08-13.13
		c-11.4-122.6,39.94-253.15,138.24-351.53c92.24-92.31,223.21-116.59,310.54-57.58c94.88,64.11,147.36,183.75,128.64,293.28
		c-1.04,6.09,0.48,7.21,1.64,1.21c6.48-33.38,5.15-85.28-2.98-116.41c-1.51-5.77-1.65-6.95-0.65-5.38c0.43,0.68,1.78-0.96,3.67-4.47
		c5.1-9.43,8.62-15.98,12.85-23.87c2.24-4.18,5.73-10.62,7.76-14.31c2.03-3.69,4.58-8.52,5.67-10.73c1.09-2.22,2.19-4.23,2.44-4.48
		c0.25-0.25,1.05-1.65,1.79-3.13c0.74-1.48,1.54-2.89,1.79-3.13c0.25-0.25,1.77-3.06,3.39-6.26c1.62-3.2,4.17-8.03,5.68-10.73
		c1.51-2.7,4.58-8.34,6.81-12.52c2.24-4.19,5.36-10.02,6.93-12.97c1.58-2.95,3.88-7.18,5.11-9.39c1.23-2.22,3.96-7.24,6.07-11.18
		c2.11-3.94,4.84-8.97,6.05-11.18c1.22-2.21,3.92-7.24,6.01-11.18c2.09-3.93,5.47-10.17,7.51-13.86c2.04-3.69,4.59-8.52,5.66-10.73
		c1.07-2.22,2.21-4.23,2.52-4.48c0.31-0.25,1.14-1.75,1.84-3.35c0.69-1.6,1.57-2.9,1.94-2.9c0.38,0,0.68-0.5,0.68-1.12
		c0.01-0.61,0.55-2.12,1.21-3.35c4.07-7.56,7.21-13.22,8.26-14.91c0.67-1.07,3.08-5.5,5.37-9.84c5.28-10,9.19-17.3,12.62-23.55
		c1.49-2.7,4.31-7.94,6.28-11.62c1.96-3.69,4.48-8.32,5.59-10.29c1.12-1.97,4.44-8.21,7.38-13.86c2.95-5.66,5.66-10.69,6.03-11.18
		c0.87-1.15,6.37-11.3,11.35-20.98c2.14-4.16,4.29-7.97,4.78-8.45c7.26-7.26-18.75,2-42.58,15.15c-7.45,4.11-33.2,21.38-35.25,23.64
		c-0.25,0.27-3.47,2.88-7.16,5.8c-11.85,9.38-18.89,15.74-34.97,31.6c-8.66,8.54-16.86,16.12-18.23,16.82l-2.49,1.29l0.57-3.81
		c15.45-103.45,9.58-179.74-17.26-224.28c-4.24-7.04-16.43-20.57-18.51-20.57c-0.68,0-1.22-0.34-1.22-0.75s-1.01-1.21-2.25-1.77
		l-2.25-1.03l1.69,3.34c0.93,1.84,2.22,6.36,2.87,10.05c0.67,3.83,1.77,7.15,2.55,7.74c1.24,0.93,1.22,2-0.24,10.61
		c-2.02,11.96-3.11,15.06-3.28,9.36c-0.12-3.86-0.2-3.71-2.24,3.69c-5.81,21.17-23.08,58.31-40.96,88.12
		c-8.68,14.47-9.55,16.17-7.63,14.99c0.64-0.4,0.79-0.25,0.39,0.41c-0.36,0.58-0.99,0.84-1.4,0.58c-0.68-0.42-8.07,10.3-8.07,11.7
		c0,0.32,0.71,0.03,1.57-0.65c1.42-1.11,1.45-1.08,0.34,0.33c-0.67,0.85-1.53,1.36-1.91,1.13c-1.06-0.65-3.63,3.75-3.06,5.23
		c0.27,0.71,0.08,1.56-0.45,1.88c-0.59,0.36-0.75-0.02-0.42-1.02c0.36-1.12-0.05-0.93-1.34,0.62c-1.02,1.23-1.67,2.76-1.44,3.4
		c0.24,0.64,0.05,0.93-0.4,0.65c-0.45-0.28-1.45,0.39-2.22,1.49c-1.69,2.41-1.82,3.74-0.28,2.85c0.65-0.37,0.8-0.3,0.37,0.17
		c-0.41,0.45-1.18,0.82-1.71,0.82c-0.54,0-1.16,0.56-1.38,1.24c-0.28,0.85-0.03,1.01,0.82,0.53c0.72-0.42,0.93-0.38,0.49,0.1
		c-0.41,0.45-1.18,0.82-1.72,0.82c-0.53,0-1.15,0.56-1.38,1.24c-0.28,0.85-0.03,1.01,0.82,0.53c0.73-0.42,0.93-0.38,0.49,0.1
		c-0.41,0.45-1.01,0.82-1.34,0.83c-1.12,0.02-2.83,1.43-2.83,2.32c0,0.49,0.5,0.61,1.12,0.25c0.65-0.38,0.8-0.3,0.37,0.17
		c-0.41,0.45-1.21,0.82-1.79,0.82s-1.17,1.07-1.32,2.39c-0.3,2.55-2.85,5.56-2.85,3.36c0-0.71-0.49-0.5-1.25,0.54
		c-1.16,1.59-1.32,1.44-2.24-2.29c-18.04-73.3-54.58-108.69-128.88-124.8c-17.84-3.86-23.56-8.22-28.19-21.41
		c-5.03-14.35-4.99-43.18,0.09-68.31C1557.69,1158.55,1557.7,1158.57,1551.83,1163.2 M1543.44,1562.83
		c-112.56,8.46-219.43,128.5-243.66,273.68c-4.09,24.52-6.16,72.13-3.79,87.59c0.71,4.68-1.15,3.97,23.41,8.9
		c26.34,5.3,25.42,5.19,24.74,2.66c-5.5-20.55-5.1-62.87,0.89-92.73c20.86-104.16,116.79-205.05,198.02-208.29
		c90.54-3.62,143.24,87.8,112.19,194.62c-5.59,19.24-22.19,53.66-28.08,58.22c-0.32,0.25-1.28,1.55-2.13,2.89
		c-6.1,9.58-26.86,27.57-39.75,34.43c-56.02,29.84-120.07-11.27-112.95-72.5c4.95-42.58,28.56-76.84,57.19-82.96
		c31.23-6.68,44.37,31.32,20.12,58.16l-3.28,3.63l2.57-0.02c9.73-0.05,26.01-7.16,33.33-14.57c14.56-14.74,20.65-45.36,12.41-62.46
		c-30.51-63.3-102.88-47.32-157.81,34.83c-32.11,48.03-35.86,98.3-11.8,158.27c1.37,3.43,1.43,3.45,12.4,4.63
		c56.11,6.04,88.15,8.02,141.32,8.71c54.53,0.72,66.39,0.17,68.09-3.14c0.67-1.31,2.67-4.99,4.44-8.19
		c4.31-7.78,9.81-17.94,13.56-25.04c1.69-3.2,4.59-8.63,6.46-12.07c1.87-3.44,4.82-8.88,6.55-12.07
		c3.63-6.69,7.96-14.77,11.02-20.57c1.17-2.21,2.33-4.22,2.58-4.47s1.33-2.26,2.42-4.48c1.08-2.21,3.78-7.24,6-11.18
		c2.22-3.93,5.34-9.77,6.94-12.97c1.6-3.2,3.13-6.01,3.39-6.26c0.26-0.25,1.73-2.87,3.26-5.82c1.53-2.95,4.8-9.06,7.28-13.58
		c6.65-12.17,6.91-13.76,6.92-43.66c0.02-26.94-0.18-29.13-4.61-51.43C1702.55,1622.3,1629.77,1556.34,1543.44,1562.83
		 M1199.73,1791.05c-1.39,7.59-2.87,19.83-2.74,22.7c0.12,2.66,0.35,1.27,2.85-17.04C1201.26,1786.3,1201.2,1783.04,1199.73,1791.05
		"/>
	<path id="path2" class="st7" d="M1606.49,950.23c-34.84,2.02-56.1,4.36-88.54,9.77c-59.82,9.97-130.13,30.72-180.07,53.16
		c-2.54,1.14-8.04,3.6-12.22,5.45c-138.13,61.3-266.39,168.05-355.67,296.03c-13.39,19.18-41.44,63.45-41.44,65.39
		c0,0.21-0.97,1.89-2.16,3.72c-7.46,11.52-30.61,58.07-41.91,84.27c-14.82,34.38-34.07,89.97-39.96,115.38
		c-0.51,2.22-1.75,7.05-2.76,10.73c-1.01,3.69-2.18,8.32-2.6,10.29c-0.42,1.97-1.82,8.41-3.11,14.31
		c-2.52,11.51-2.63,12.07-6.62,34.43c-4.91,27.52-6.55,40.57-10.13,80.95c-1.47,16.48-1.46,86.28,0.01,101.96
		c5.75,61.45,11.42,93.79,24.77,141.31c32,113.94,90.86,211.65,176.7,293.36c72.38,68.89,168.33,121.61,269.43,148.04
		c13.57,3.55,14.4,2.96,1.26-0.89c-117.94-34.51-225.82-106.68-303.54-203.06c-52.78-65.44-96.93-151.26-115.05-223.6
		c-1.05-4.18-2.13-7.8-2.4-8.05c-0.5-0.45-0.57-0.86-0.81-4.97c-0.09-1.49-0.5-2.07-1.17-1.65c-0.71,0.43-0.87,0.03-0.53-1.29
		c0.28-1.06,0.12-2.17-0.34-2.45c-0.47-0.29-0.58-1.35-0.27-2.35c0.42-1.33,0.27-1.64-0.54-1.13c-0.84,0.52-0.97,0.1-0.53-1.67
		c0.38-1.52,0.23-2.37-0.42-2.37c-0.64,0-0.8-0.89-0.43-2.46c0.45-1.93,0.36-2.17-0.42-1.12c-0.75,1.03-0.86,0.5-0.44-2.23
		c0.34-2.23,0.25-3.13-0.25-2.39c-0.59,0.87-0.94,0.52-1.34-1.34c-15.04-70.48-21.03-142.17-16.7-199.84
		c4.9-65.24,12.46-110.9,27.29-164.92c0.81-2.95,1.8-6.57,2.2-8.05c37.96-139.98,131.92-291.82,242.44-391.81
		c15.66-14.17,21.01-18.86,32.6-28.55c62.22-52.06,135.93-97.95,203.92-126.96c7.87-3.35,15.51-6.63,16.99-7.28
		c19.94-8.75,60.75-22.72,90.78-31.06c11.45-3.18,21.93-5.77,42.49-10.5c9.67-2.23,37.19-7.05,55.9-9.79
		c115.7-16.98,244.53-1.73,349.71,41.4c29.44,12.07,67.26,30.58,65.69,32.14c-0.26,0.26,0.16,0.72,0.94,1.03
		c0.9,0.34,1.2,0.18,0.83-0.43c-0.41-0.67-0.01-0.65,1.29,0.04c1.05,0.56,1.9,1.43,1.9,1.93s0.4,0.67,0.89,0.36
		c0.49-0.3,0.9-0.1,0.9,0.45c0,0.55,0.4,0.75,0.9,0.45c0.49-0.31,0.89-0.06,0.89,0.54c0,0.61,0.24,0.86,0.53,0.57
		c0.28-0.28,1.3,0.27,2.26,1.23c0.96,0.96,2.14,1.5,2.61,1.21c0.48-0.3,0.86-0.08,0.86,0.47s0.37,0.77,0.82,0.49
		c0.45-0.28,0.96-0.14,1.12,0.31c0.17,0.45,5.33,3.73,11.48,7.29c35.51,20.56,68.24,46.02,106.85,83.1
		c13.66,13.12,4.97,3.48-13.39-14.85c-15.12-15.09-29.09-28.07-39.36-36.54c-2.95-2.44-5.56-4.65-5.81-4.93
		c-1.34-1.49-22.52-17.69-31.75-24.29c-68.85-49.23-143.68-82.61-229.41-102.34c-16.94-3.9-19.53-4.41-35.33-7.03
		c-19.27-3.19-24.02-3.9-33.42-4.96C1681.52,949.94,1639.26,948.34,1606.49,950.23 M1672.9,983.93c6.77,0.15,17.83,0.15,24.6,0
		c6.76-0.16,1.23-0.28-12.3-0.28C1671.67,983.66,1666.14,983.78,1672.9,983.93 M1648.75,984.78c0.86,0.22,2.27,0.22,3.13,0
		c0.86-0.23,0.16-0.41-1.57-0.41C1648.6,984.36,1647.9,984.55,1648.75,984.78 M1718.98,984.79c1.11,0.21,2.72,0.2,3.57-0.02
		c0.86-0.23-0.05-0.4-2.02-0.39C1718.56,984.4,1717.86,984.58,1718.98,984.79 M1631.77,985.69c1.36,0.2,3.37,0.2,4.47-0.01
		c1.1-0.21-0.01-0.38-2.47-0.38C1631.31,985.31,1630.42,985.49,1631.77,985.69 M1734.63,985.69c1.36,0.2,3.37,0.2,4.47-0.01
		c1.1-0.21-0.01-0.38-2.47-0.38C1734.17,985.31,1733.27,985.49,1734.63,985.69 M1601.35,988.35c0.86,0.23,2.27,0.23,3.13,0
		c0.86-0.23,0.16-0.41-1.56-0.41C1601.2,987.94,1600.49,988.13,1601.35,988.35 M1765.03,988.35c0.86,0.23,2.27,0.23,3.13,0
		c0.86-0.23,0.16-0.41-1.56-0.41C1764.87,987.94,1764.17,988.13,1765.03,988.35 M1587.04,990.14c0.86,0.22,2.27,0.22,3.13,0
		c0.86-0.23,0.16-0.41-1.57-0.41C1586.89,989.73,1586.18,989.92,1587.04,990.14 M1779.34,990.14c0.86,0.22,2.27,0.22,3.13,0
		c0.86-0.23,0.16-0.41-1.57-0.41S1778.47,989.92,1779.34,990.14 M1320.96,1074.55c-1.85,0.98-3.35,1.97-3.35,2.22
		c0,0.25,1.61-0.38,3.58-1.38c1.96-1,3.57-2.02,3.57-2.25C1324.76,1072.55,1324.76,1072.55,1320.96,1074.55 M1137.33,1202.61
		l-2.62,2.91l2.9-2.63c1.6-1.44,2.91-2.75,2.91-2.91C1140.52,1199.3,1139.78,1199.9,1137.33,1202.61 M1127.5,1211.56l-3.53,3.8
		l3.8-3.54c2.09-1.94,3.8-3.65,3.8-3.8C1131.57,1207.35,1130.79,1208.02,1127.5,1211.56 M1794.32,1209.28
		c0.53,0.88,1.73,3.62,2.67,6.07l1.71,4.47l0.04-4.67c0.04-4.32-0.17-4.78-2.67-6.08
		C1793.51,1207.75,1793.41,1207.76,1794.32,1209.28 M1103.84,1234.37l-13.86,14.09l14.09-13.86c13.09-12.87,14.49-14.32,13.86-14.32
		C1117.8,1220.28,1111.45,1226.62,1103.84,1234.37 M1081.01,1258.06l-4.44,4.7l4.7-4.44c2.59-2.44,4.7-4.55,4.7-4.7
		C1085.96,1252.96,1085.13,1253.7,1081.01,1258.06 M1071.15,1268.8l-2.63,2.91l2.91-2.63c1.6-1.44,2.91-2.75,2.91-2.9
		C1074.34,1265.48,1073.59,1266.09,1071.15,1268.8 M1505.61,1295.85c-0.28,21.14,3.82,49.26,11.47,78.71
		c5.98,23.02,6.17,23.47,10.73,26.76l4.04,2.9l-5.99-17.96c-10.97-32.91-18.14-67.82-19.84-96.67
		C1505.87,1287.13,1505.69,1289.95,1505.61,1295.85 M1290.02,1303.04c-0.57,1.26-1.02,2.97-1,3.81c0.02,0.84,0.61-0.08,1.3-2.02
		C1291.77,1300.78,1291.58,1299.64,1290.02,1303.04 M1847.29,1320.45c0,1.72,0.19,2.43,0.41,1.57c0.22-0.86,0.22-2.27,0-3.13
		C1847.48,1318.02,1847.29,1318.73,1847.29,1320.45 M1856.32,1337.44c0,3.2,0.16,4.51,0.36,2.91c0.2-1.6,0.2-4.22,0-5.82
		C1856.48,1332.93,1856.32,1334.24,1856.32,1337.44 M1847.29,1351.75c0,1.72,0.19,2.43,0.41,1.56c0.22-0.86,0.22-2.27,0-3.13
		C1847.48,1349.33,1847.29,1350.03,1847.29,1351.75 M1003.68,1353.54c-1.05,1.48-1.71,2.68-1.47,2.68c0.25,0,1.31-1.21,2.36-2.68
		c1.05-1.48,1.71-2.68,1.46-2.68C1005.79,1350.86,1004.73,1352.07,1003.68,1353.54 M1712.58,1366.51c0.74,3.28,1.24,4,1.23,1.71
		c-0.01-0.94-0.42-2.32-0.92-3.05C1712.23,1364.19,1712.14,1364.55,1712.58,1366.51 M1846.42,1372.77c0.01,1.97,0.19,2.67,0.41,1.56
		s0.2-2.72-0.02-3.58C1846.58,1369.89,1846.41,1370.8,1846.42,1372.77 M2034.46,1376.92c-12.52,3.43-18.03,5.45-25.25,9.27
		c-29.14,15.42-49.21,44.06-56.59,80.75c-2.22,11.05-1.86,11.15,1.67,0.46c5.44-16.46,13.87-30.65,25.26-42.5l6.27-6.53l-0.55,5.68
		c-0.31,3.12-0.93,6.66-1.4,7.88c-0.47,1.21-0.84,3.25-0.84,4.53c0,1.28-1.02,4.16-2.27,6.42c-1.24,2.26-1.55,3.11-0.67,1.89
		c20.24-28.05,53.58-47.42,81.63-47.42c5.86,0,5.76-0.32-2.83-9.4C2046.42,1374.79,2044.84,1374.07,2034.46,1376.92
		 M1856.33,1383.95c0,3.69,0.16,5.19,0.35,3.35c0.19-1.85,0.19-4.87,0-6.71C1856.49,1378.75,1856.33,1380.26,1856.33,1383.95
		 M1845.51,1383.95c0,1.72,0.18,2.43,0.41,1.56c0.23-0.86,0.23-2.27,0-3.13C1845.69,1381.53,1845.51,1382.23,1845.51,1383.95
		 M1843.72,1402.73c0,1.72,0.18,2.43,0.41,1.56c0.23-0.86,0.23-2.27,0-3.13C1843.9,1400.31,1843.72,1401.01,1843.72,1402.73
		 M1854.45,1410.78c0,1.72,0.18,2.43,0.41,1.56c0.23-0.86,0.23-2.27,0-3.13C1854.63,1408.36,1854.45,1409.06,1854.45,1410.78
		 M1846.66,1431.34c-4.28,4.31-6.41,5.9-6.9,5.14c-0.46-0.72-0.7-0.4-0.71,0.91c-0.01,1.11,0.3,2.01,0.68,2.01
		c0.39,0,1.44-0.91,2.34-2.01s3.9-4.33,6.65-7.15c2.76-2.83,4.81-5.15,4.57-5.15C1853.05,1425.09,1850.07,1427.9,1846.66,1431.34
		 M1239.95,1442.14c-0.65,42.84,18.38,86.29,50.12,114.44l5.1,4.53l7.87-1.05c12.21-1.62,12.15-1.45,2.92-7.84
		c-37.98-26.32-62.49-69.82-65.59-116.41C1240.23,1433.61,1240.04,1436.46,1239.95,1442.14 M2349.93,1478.58
		c5.23,34.48,6.58,47.05,8.81,81.56c1.18,18.26,0.64,85.94-0.82,103.75c-1.62,19.63-2.9,32.7-4.21,42.87
		c-0.72,5.62-1.53,11.86-1.79,13.87c-0.26,2-0.85,5.85-1.31,8.56c-0.47,2.7-1.68,10.15-2.69,16.54
		c-6.32,39.84-18.69,89.35-33.52,134.16c-5.48,16.54-18.62,51.65-22.72,60.69c-0.93,2.04-3.28,7.53-5.24,12.21
		c-5.58,13.34-13.53,30.28-22.85,48.74c-12.7,25.11-18.29,35.26-32.92,59.65c-18.11,30.19-36.28,57.15-56.18,83.33
		c-5.18,6.83-10.23,13.47-11.2,14.76c-72.58,96.15-183.31,188.74-302.32,252.8c-8.85,4.77-15.36,8.42-14.45,8.12
		c0.97-0.32,4.1,0.61,7.6,2.26c19.32,9.12,31.33,15.08,31.76,15.77c0.27,0.43-6.43,4.24-14.9,8.48
		c-250.68,125.45-526.96,125.69-753.48,0.64c-4.55-2.51-8.27-4.18-8.27-3.7c0,0.47,0.53,1.06,1.17,1.31
		c1.25,0.48,22.25,16.14,25.16,18.75c0.96,0.86,2.03,1.57,2.4,1.57c0.36,0,1.19,0.52,1.84,1.15c1.89,1.86,16.42,12,19.35,13.52
		c1.48,0.76,3.22,1.91,3.89,2.54c0.66,0.64,3.62,2.61,6.57,4.37c2.95,1.77,9.62,5.83,14.83,9.01c5.21,3.19,10.64,6.4,12.07,7.15
		c1.44,0.75,5.63,3.04,9.32,5.1c10.05,5.61,38.36,19.62,50.53,25.02c5.9,2.61,12.44,5.52,14.53,6.46c2.08,0.93,3.95,1.7,4.14,1.7
		c0.19,0,1.91,0.68,3.81,1.5c1.91,0.83,3.87,1.58,4.36,1.69c0.49,0.11,4.12,1.49,8.05,3.06c8.05,3.24,15.93,6.06,27.73,9.95
		c4.43,1.45,8.85,3.01,9.84,3.43c0.99,0.43,2.6,0.99,3.58,1.24s5.41,1.53,9.84,2.83c4.43,1.3,9.46,2.76,11.18,3.24
		c1.72,0.48,4.44,1.25,6.04,1.71c6.93,2.01,11.4,3.18,16.77,4.4c1.96,0.45,5.18,1.24,7.15,1.77c5.42,1.46,8.89,2.2,29.51,6.29
		c76.02,15.08,158.87,17.82,243.27,8.02c14.79-1.71,30.97-4.05,42.49-6.12c2.7-0.49,6.33-1.14,8.05-1.44
		c1.72-0.3,4.74-0.91,6.71-1.36c1.97-0.44,7-1.44,11.18-2.22c8.44-1.57,22.83-4.89,35.78-8.25c4.67-1.21,9.91-2.53,11.63-2.92
		c1.72-0.4,8.16-2.19,14.31-3.98c6.15-1.8,13.2-3.83,15.65-4.52c4.67-1.3,34.55-11.37,43.83-14.75
		c31.95-11.68,57.68-22.94,94.36-41.32c21.55-10.79,24.63-12.43,41.59-22.17c5.41-3.1,11.45-6.53,13.42-7.61s7.77-4.69,12.9-8.01
		c5.12-3.32,9.95-6.3,10.73-6.62c1.4-0.58,9.05-5.52,9.91-6.39c0.25-0.25,1.15-0.86,2-1.35c4.77-2.74,46.85-32.1,48.08-33.54
		c0.25-0.29,1.86-1.49,3.58-2.68c1.72-1.18,3.33-2.39,3.58-2.68c0.24-0.29,4.07-3.32,8.49-6.71c9.63-7.4,35.95-29.24,44.72-37.1
		c3.45-3.09,9.68-8.68,13.85-12.43c24.02-21.58,63.68-63.11,85.92-89.99c3.66-4.43,6.89-8.25,7.17-8.5
		c1.5-1.3,18.66-23.35,26.45-33.99c3.06-4.19,6.34-8.61,7.29-9.84c10.85-14.17,49.38-73.23,49.38-75.7c0-0.27,0.75-1.56,1.66-2.87
		c0.91-1.3,2.67-4.19,3.9-6.4c1.23-2.22,3.16-5.63,4.28-7.6c11.12-19.47,30.49-58.63,40.69-82.28c0.63-1.48,2-4.57,3.04-6.89
		c1.04-2.31,1.88-4.41,1.88-4.67c0-0.26,0.97-2.59,2.16-5.19c2.84-6.24,11.81-29.24,14.03-36.02c0.97-2.95,2.12-6.17,2.55-7.16
		c2.28-5.12,14.36-42.93,17.59-55.01c0.72-2.7,1.67-6.12,2.1-7.6c1.25-4.28,7.18-27.37,8.03-31.31c0.42-1.96,1.82-8.4,3.11-14.31
		c4.24-19.57,8.12-39.61,9.52-49.19c0.5-3.45,1.3-8.88,1.77-12.07c8.17-55.23,10.64-126.88,6.25-181.11
		c-2.4-29.67-4.71-49.1-7.41-62.16c-0.56-2.71-0.92-5.27-0.81-5.69c0.18-0.69-1.49-10.53-3.04-18.01c-0.31-1.48-0.91-4.59-1.33-6.93
		c-0.42-2.33-1.04-4.7-1.38-5.24c-0.34-0.55-0.75-2.46-0.91-4.25c-0.5-5.48-2.7-14.96-3.16-13.64c-0.46,1.31-0.02,1.5-28.07-11.97
		c-13.64-6.55-26.27-12.6-42.93-20.58c-5.9-2.82-11.37-5.47-12.14-5.87C2349.32,1473.58,2349.24,1474.09,2349.93,1478.58
		 M1950.15,1480.55c0,1.72,0.18,2.43,0.41,1.56c0.23-0.86,0.23-2.27,0-3.13C1950.33,1478.12,1950.15,1478.82,1950.15,1480.55
		 M1959.09,1504.69c0,1.72,0.18,2.43,0.41,1.56c0.23-0.86,0.23-2.27,0-3.13C1959.28,1502.27,1959.09,1502.97,1959.09,1504.69
		 M2431.25,1502.9c0,0.74,0.35,2.15,0.77,3.13c0.48,1.13,0.77,1.29,0.77,0.45c0-0.74-0.35-2.15-0.77-3.13
		C2431.53,1502.23,2431.25,1502.06,2431.25,1502.9 M1948.46,1517.21c0,4.18,0.16,5.89,0.34,3.8c0.19-2.09,0.19-5.51,0-7.6
		C1948.62,1511.32,1948.46,1513.03,1948.46,1517.21 M1958.2,1513.64c0,1.72,0.18,2.43,0.41,1.57s0.23-2.27,0-3.13
		C1958.38,1511.21,1958.2,1511.91,1958.2,1513.64 M1947.52,1533.31c0,2.7,0.17,3.81,0.38,2.46c0.2-1.35,0.2-3.56,0-4.92
		C1947.7,1529.5,1947.52,1530.61,1947.52,1533.31 M1957.43,1540.02c0,5.41,0.15,7.51,0.33,4.66c0.18-2.85,0.18-7.28-0.01-9.84
		C1957.58,1532.28,1957.43,1534.61,1957.43,1540.02 M1945.68,1551.2c0,1.72,0.18,2.43,0.41,1.57c0.23-0.86,0.23-2.27,0-3.13
		C1945.86,1548.77,1945.68,1549.48,1945.68,1551.2 M1956.46,1557.91c0.01,2.46,0.18,3.36,0.39,2c0.2-1.36,0.2-3.37-0.02-4.47
		C1956.62,1554.34,1956.45,1555.45,1956.46,1557.91 M1954.62,1575.35c0,1.72,0.19,2.43,0.41,1.57c0.22-0.86,0.22-2.27,0-3.13
		C1954.81,1572.92,1954.62,1573.63,1954.62,1575.35 M1938.9,1588.53c-3.45,21.55-19.72,53.46-34.44,67.52l-6.92,6.61l8.53-3.39
		c4.69-1.86,9-3.4,9.58-3.41c1.18-0.03,4.88-6.55,8.63-15.23c1.38-3.2,2.87-6.62,3.3-7.6c2.28-5.21,5.58-15.91,7.93-25.67
		c4.17-17.33,4.77-20.26,4.36-21.48C1939.68,1585.26,1939.23,1586.45,1938.9,1588.53 M1951.41,1593.68c-0.35,1.97-1,4.99-1.44,6.71
		c-0.44,1.72-1.02,5.14-1.29,7.6c-0.28,2.61,0.43,0.57,1.72-4.92c1.21-5.17,2.08-10.2,1.93-11.18
		C1952.18,1590.87,1951.79,1591.62,1951.41,1593.68 M1103.09,1685.36c-0.53,36.81,21.12,66.72,62.14,85.89
		c6.33,2.96,12.65,5.98,14.05,6.7c1.39,0.72,3.31,1.31,4.25,1.31c0.94,0,1.71,0.43,1.71,0.95s0.41,0.7,0.9,0.39
		c1.36-0.84,4.58,0.44,3.9,1.55c-0.36,0.59-0.18,0.71,0.47,0.31c1.59-0.99,9.94,1.4,9.94,2.84c0,0.68,0.42,0.97,0.93,0.64
		c0.64-0.4,0.61-0.98-0.1-1.84c-0.79-0.96-0.79-2.97,0.01-8.42c1.13-7.68,0.89-8.95-1.71-8.95c-0.91,0-5.96-1.44-11.21-3.19
		c-51.25-17.15-80.38-46.31-84.83-84.91C1103.36,1677.17,1103.16,1680.2,1103.09,1685.36 M2052.35,1707.49
		c2.6,13.5,2.98,25.2,0.75,23.37c-1.16-0.96-1.57-0.98-1.86-0.11c-0.56,1.67-1.76,1.38-5.88-1.45
		c-17.12-11.73-36.66-13.93-52.97-5.95c-10.14,4.96-25.43,20.52-27.13,27.62c-9.32,38.81-31.43,86.45-50.16,108.08
		c-12.03,13.89-31.15,26.66-39.93,26.66c-3.4,0-3.58,2.35-0.8,10.36c2.1,6.08,2.79,7.21,3.95,6.56c1.81-1.02,11.78-5.29,12.35-5.29
		c0.24,0,0.16,0.71-0.18,1.57c-3.67,9.46-2.14,10.52,8.07,5.59c28.14-13.61,56.19-59.47,73.74-120.55
		c3.97-13.79,4.34-14.46,13.25-23.65c18.68-19.28,44.32-25.07,60.27-13.6c3.39,2.44,4.7,2.96,5.23,2.1c0.53-0.86,2.01-0.27,5.9,2.37
		c7.23,4.9,8.38,5.5,4.93,2.52c-2.57-2.22-2.86-2.88-2.14-4.8c0.46-1.23,1.17-4.25,1.57-6.71l0.73-4.48l0.62,3.13
		c0.34,1.72,0.67,2.32,0.73,1.34c0.36-5.55-4.29-23.94-8.42-33.28C2052.54,1703.34,2051.44,1702.76,2052.35,1707.49 M854.52,1745.28
		c0,1.72,0.19,2.43,0.41,1.57c0.22-0.86,0.22-2.27,0-3.13C854.71,1742.86,854.52,1743.56,854.52,1745.28 M852.77,1765.85
		c0,2.22,0.17,3.12,0.39,2.01c0.21-1.11,0.21-2.91,0-4.02C852.94,1762.74,852.77,1763.64,852.77,1765.85 M851.86,1778.82
		c0.01,1.97,0.19,2.67,0.41,1.56c0.21-1.12,0.2-2.73-0.02-3.58S851.85,1776.85,851.86,1778.82 M851.06,1802.53
		c0,4.67,0.15,6.58,0.34,4.24c0.18-2.33,0.18-6.16,0-8.49C851.21,1795.94,851.06,1797.85,851.06,1802.53 M851.06,1840.09
		c0,4.67,0.15,6.58,0.34,4.24c0.18-2.33,0.18-6.16,0-8.49C851.21,1833.51,851.06,1835.42,851.06,1840.09 M851.86,1863.79
		c0.01,1.97,0.19,2.67,0.41,1.56c0.21-1.11,0.2-2.72-0.02-3.58C852.02,1860.91,851.85,1861.82,851.86,1863.79 M852.77,1875.86
		c0,2.22,0.17,3.12,0.39,2.01c0.21-1.11,0.21-2.91,0-4.02C852.94,1872.75,852.77,1873.65,852.77,1875.86 M1233.02,1899.58
		c4.19,59.81,28.07,130.73,59.61,177.08c47.18,69.32,115.01,106.47,215.03,117.75c64.65,7.29,123.19-16.16,193.19-77.38
		c22.42-19.61,21.84-18.47,13.84-27.4c-2.43-2.71-4.42-5.22-4.43-5.59c-0.04-1.57-2.37-0.32-10.13,5.44
		c-21.1,15.68-54.46,33.36-76.2,40.4c-1.96,0.64-7.29,2.89-11.83,5c-76.3,35.55-196.9,3.96-259.59-67.99
		c-31.22-35.84-48.11-74.94-55.12-127.62l-1.5-11.29l-6.36-1.59c-3.5-0.87-8.78-2.11-11.73-2.74c-7.28-1.56-18.27-4.46-21.07-5.56
		c-2.47-0.98-4.96-3.66-14.7-15.84c-1.96-2.46-3.78-4.67-4.04-4.92c-0.25-0.25-1.62-1.85-3.03-3.57l-2.57-3.12L1233.02,1899.58
		 M854.52,1894.65c0,1.72,0.19,2.43,0.41,1.57c0.22-0.86,0.22-2.27,0-3.13C854.71,1892.22,854.52,1892.92,854.52,1894.65
		 M1192.88,1917.9c2.68,142.96,69.03,263,168.55,304.9c5.15,2.17,9.78,4.21,17.73,7.8c2.61,1.19,5.1,1.94,5.52,1.68
		c0.42-0.26,1.3,0.07,1.96,0.73c0.66,0.66,1.75,1.01,2.43,0.78c0.81-0.26,1-0.02,0.55,0.7c-0.5,0.81-0.15,0.93,1.33,0.47
		c1.28-0.4,1.81-0.31,1.45,0.27c-0.34,0.56,0.19,0.71,1.37,0.4c1.24-0.32,1.72-0.16,1.34,0.45c-0.38,0.61,0.11,0.77,1.34,0.45
		c1.44-0.38,1.75-0.21,1.21,0.67c-0.48,0.78-0.38,0.96,0.31,0.54c0.57-0.35,5.36,0.58,10.65,2.08
		c102,28.83,202.49,3.73,296.27-74.01c20.89-17.32,54.84-52.98,71.04-74.61c6.12-8.17,5.64-8.04,10.27-2.78
		c4.31,4.89,4.33,5.03,1.35,9.18l-2.31,3.21l2.99-3.37l2.98-3.36l5.24,10.52c7.58,15.24,13.08,20.81,20.53,20.81
		c1.16,0,2.83,0.8,3.72,1.79c0.89,0.98,2.03,1.79,2.54,1.79s0.14-0.59-0.8-1.31c-1.66-1.25-1.62-1.31,0.84-1.34
		c2.98-0.03,9.55-1.77,10.79-2.86c0.47-0.41,1.41-0.75,2.1-0.75c1.57,0,6.44-3.42,6.44-4.52c0-0.45-1.36-1.39-3.03-2.09
		c-4.58-1.92-10.95-7.93-9.09-8.58c0.8-0.28-1.47-0.53-5.06-0.56c-12.36-0.08-16.24-3.21-24.53-19.74
		c-5.86-11.69-13.23-21.8-15.84-21.72c-0.56,0.02-2.9,2.73-5.2,6.04c-44.99,64.8-137.15,132.03-205.11,149.64
		c-1.48,0.38-5.9,1.54-9.84,2.58c-6.63,1.74-14.17,3.3-26.38,5.45c-33.61,5.92-70.91,4.51-112.69-4.26
		c-26.98-5.67-76.76-25.83-97.49-39.5c-16.08-10.61-38.72-31.88-53.19-49.97c-6.76-8.46-26.41-36.73-26.41-38
		c0-0.26-1.42-2.83-3.15-5.7c-15.45-25.66-31.1-67.93-39.2-105.89c-5.12-24-7.53-41.18-9.65-68.87c-0.69-8.98-1.47-14.18-2.19-14.76
		c-0.62-0.49-1.34-1.9-1.59-3.13C1192.7,1897.89,1192.67,1906.34,1192.88,1917.9 M856.31,1909.85c0,1.72,0.18,2.43,0.41,1.56
		c0.23-0.86,0.23-2.27,0-3.13S856.31,1908.13,856.31,1909.85 M1881.63,1910.63c-1.56,1.72-0.38,9.96,1.43,9.96
		c0.4,0,0.51,1.11,0.25,2.46c-0.35,1.84-0.28,2.02,0.27,0.74c0.45-1.03,0.76,4.11,0.78,12.71c0.01,7.94-0.32,14.23-0.74,13.97
		c-0.68-0.42-1.12,1.67-1,4.78c0.02,0.62-0.34,1.12-0.81,1.12s-0.6,0.4-0.3,0.9c0.31,0.49,0.21,0.9-0.2,0.9
		c-0.42,0-1.52,1.3-2.45,2.9c-0.93,1.6-4.15,5.52-7.16,8.72c-16.16,17.19-28.39,38.73-39.38,69.32c-2.58,7.2-5.37,23.09-3.14,17.89
		c0.42-0.98,1.87-4.8,3.21-8.49c7.55-20.78,23.59-47.39,36.4-60.37c4.3-4.36,4.4-4.41,3.87-1.79c-0.3,1.48-0.94,4.89-1.43,7.6
		c-2.07,11.31-3.08,14.9-4.91,17.44c-2.59,3.6-3.34,4.92-2.8,4.92c0.25,0,2.88-3.52,5.86-7.82c2.97-4.3,8.23-10.85,11.69-14.54
		c16.08-17.17,17.35-37.16,4.44-70.16c-3.77-9.65-4.2-12.02-2.48-13.73c0.59-0.59,0.85-1.07,0.58-1.07
		S1882.46,1909.71,1881.63,1910.63 M1350.7,1948.04c30.18,116.1,116.48,172.98,227.8,150.16c38.39-7.87,62.59-20.58,96.2-50.5
		c3.09-2.75,3.09-2.79-0.65-6.94c-1.71-1.9-3.12-3.73-3.13-4.08c-0.01-0.34-0.93-1.55-2.04-2.68c-1.11-1.13-4.62-5.27-7.81-9.21
		c-3.18-3.93-7-8.59-8.49-10.35c-3.47-4.1-5.45-6.51-9.86-11.97c-1.96-2.44-4.56-5.51-5.75-6.82l-2.17-2.38l-4.08,2.91
		c-23.11,16.46-62.56,25.73-97.19,22.85c-48.01-4-88.43-28.9-105.58-65.03c-1.6-3.39-1.36-3.31-15.52-5.21
		c-5.66-0.76-12.91-1.8-16.1-2.3c-10.53-1.66-43.33-7.13-45.75-7.63l-2.38-0.49L1350.7,1948.04 M1858.32,2024.43
		c-3.92,6.97-5.37,10.28-2.89,6.58c2.18-3.25,7.85-13.83,7.41-13.83C1862.6,2017.18,1860.56,2020.44,1858.32,2024.43
		 M1849.02,2042.71c-1.5,3.29-1.21,3.99,0.41,1c0.76-1.4,1.21-2.7,1-2.91C1850.23,2040.59,1849.59,2041.45,1849.02,2042.71
		 M1836.96,2080.24c-0.32,1.96-0.54,4.78-0.49,6.25c0.05,1.48,0.45,0.27,0.88-2.68C1838.23,2077.81,1837.89,2074.66,1836.96,2080.24
		 M1836.36,2105.4c0.74,0.2,2.04,2.07,2.91,4.14c0.86,2.08,2.83,5.12,4.36,6.77c2.65,2.82,2.74,3.17,1.79,6.36
		c-1.92,6.4-1.55,7.3,2.45,5.89c8.02-2.83,9.05-4.78,3.78-7.15c-4.64-2.09-9.41-7.12-11.71-12.34c-1.23-2.8-2.39-4.21-3.4-4.15
		C1835.35,2105.01,1835.31,2105.12,1836.36,2105.4 M1771.46,2117.57l-2.63,2.91l2.91-2.63c2.71-2.45,3.32-3.19,2.63-3.19
		C1774.21,2114.67,1772.9,2115.97,1771.46,2117.57 M1765.21,2124.73l-3.54,3.8l3.8-3.54c3.54-3.29,4.21-4.07,3.54-4.07
		C1768.86,2120.93,1767.15,2122.64,1765.21,2124.73 M1746.9,2143.96l-13.85,14.09l14.09-13.86c13.08-12.87,14.49-14.32,13.85-14.32
		C1760.86,2129.87,1754.52,2136.21,1746.9,2143.96 M1832.11,2131.41c1.35,0.2,3.57,0.2,4.92,0c1.35-0.2,0.25-0.38-2.46-0.38
		C1831.86,2131.03,1830.75,2131.2,1832.11,2131.41 M1726.74,2163.19l-2.63,2.91l2.91-2.63c2.71-2.45,3.32-3.19,2.62-3.19
		C1729.48,2160.28,1728.18,2161.59,1726.74,2163.19 M1719.58,2169.45l-2.62,2.9l2.9-2.62c2.71-2.45,3.32-3.19,2.63-3.19
		C1722.33,2166.54,1721.02,2167.85,1719.58,2169.45 M1701.75,2183.61c-5.3,4.01-6.02,5.14-1.04,1.65c3.76-2.64,5.8-4.46,4.9-4.38
		C1705.45,2180.89,1703.72,2182.12,1701.75,2183.61 M1682.96,2197.48l-2.68,2.3l2.91-1.92c1.6-1.06,2.91-2.1,2.91-2.31
		C1686.1,2194.88,1685.72,2195.11,1682.96,2197.48 M1537.85,2254.81c0.86,0.23,2.27,0.23,3.13,0s0.16-0.41-1.57-0.41
		S1536.99,2254.58,1537.85,2254.81 M1484.2,2256.62c1.36,0.21,3.37,0.2,4.47-0.01c1.1-0.21-0.01-0.38-2.47-0.38
		C1483.74,2256.25,1482.84,2256.42,1484.2,2256.62 M1518.19,2256.62c1.36,0.21,3.38,0.2,4.48-0.01c1.1-0.21-0.02-0.38-2.47-0.38
		C1517.73,2256.25,1516.83,2256.42,1518.19,2256.62 M1405.49,2510.63c1.36,0.2,3.38,0.2,4.48-0.02c1.1-0.21-0.02-0.38-2.47-0.37
		C1405.04,2510.25,1404.13,2510.42,1405.49,2510.63 M1522.66,2510.63c1.36,0.2,3.37,0.2,4.47-0.02c1.1-0.21-0.01-0.38-2.47-0.37
		C1522.2,2510.25,1521.3,2510.42,1522.66,2510.63 M1436.37,2512.43c2.6,0.18,6.62,0.18,8.94,0c2.32-0.19,0.19-0.33-4.72-0.33
		C1435.67,2512.11,1433.77,2512.26,1436.37,2512.43 M1487.35,2512.43c2.6,0.18,6.62,0.18,8.94,0c2.32-0.19,0.19-0.33-4.72-0.33
		C1486.65,2512.11,1484.75,2512.26,1487.35,2512.43"/>
	<path id="path3" class="st8" d="M1624.83,971.19c-11.31,0.6-23.39,1.36-26.83,1.71c-18.74,1.88-31.95,3.34-37.12,4.09
		c-19.08,2.8-46.55,7.62-56.12,9.85c-2.09,0.49-5.51,1.28-7.6,1.75c-42.17,9.64-94.99,26.38-125.44,39.75
		c-1.48,0.65-9.12,3.93-16.99,7.28c-67.99,29.01-141.7,74.9-203.92,126.96c-11.59,9.69-16.94,14.38-32.6,28.55
		c-110.52,99.99-204.48,251.83-242.44,391.81c-0.4,1.48-1.39,5.1-2.2,8.05c-14.84,54.02-22.39,99.68-27.29,164.92
		c-2.06,27.45-0.77,82.51,2.7,115.03c3.06,28.67,10.67,73.95,14.29,84.97l0.88,2.68l-0.33-2.68c-0.18-1.48-1.79-11.08-3.58-21.34
		c-11.92-68.38-12.6-145.51-1.93-218.81c1.55-10.67,1.98-13.17,6.19-36.22c23.29-127.45,91.38-272.45,175.97-374.75
		c23.63-28.58,38.99-45.67,60.51-67.33c18.45-18.57,26.87-26.61,39.56-37.78c4.18-3.68,7.8-6.9,8.05-7.16
		c6.74-7.09,52.06-42.69,72.45-56.92c21.16-14.77,67.23-44.12,69.24-44.12c0.19,0,2.91-1.47,6.03-3.27
		c20.52-11.81,54.83-28.83,79.46-39.41c11.24-4.82,41.92-17.01,46.96-18.65c1.97-0.64,5.87-1.99,8.67-3
		c62.28-22.5,134.13-37.04,209.12-42.31c36.1-2.54,95.11-0.85,132.37,3.79c17.82,2.22,44.47,6.85,61.71,10.72
		c14.05,3.15,16.87,3.84,27.28,6.68c12.31,3.35,15.99,4.48,32.2,9.86c16.85,5.6,38.22,13.8,49.89,19.14
		c3.33,1.53,6.23,2.78,6.44,2.78s6.14,2.82,13.17,6.26c7.03,3.45,12.97,6.26,13.21,6.26c2.06,0.01-30.62-16.67-45.62-23.27
		c-45.73-20.13-91.37-34.6-136.81-43.34c-6.64-1.28-13.88-2.68-16.1-3.13c-20.85-4.2-51.24-7.45-87.65-9.4
		C1662.43,969.7,1653.46,969.7,1624.83,971.19 M1566.14,1184.17c-9.04,7.28-10.48,9.22-11.1,15.02c-1.52,14.17,4.1,41.49,9.18,44.64
		c0.38,0.24,0.55-5.27,0.39-12.24c-0.33-13.81,0.82-27.6,3.38-40.83C1569.92,1180.8,1570,1181.07,1566.14,1184.17 M1839.36,1255.16
		c0.23,1.23,1.42,7.06,2.65,12.97c7.24,34.67,7.63,92.77,0.97,144.45c-2.87,22.22-3.11,24.37-2.81,24.68
		c0.17,0.17,3.19-2.6,6.71-6.15l6.4-6.46l1.52-16.54c3.96-43.16,1.53-94.63-5.94-125.72
		C1846.08,1270.83,1838,1247.66,1839.36,1255.16 M1299.96,1313.03c-2.45,3.84-6.38,10.29-8.73,14.34l-4.27,7.37l1.15,4.26
		c3.81,14.05,7.63,16.56,8.34,5.47c0.66-10.22,2.83-21.1,6.25-31.26C1305.57,1304.66,1305.32,1304.65,1299.96,1313.03
		 M1713.9,1369.19c-0.11,1.94,3.18,11.53,3.68,10.71c0.3-0.48-0.4-3.28-1.55-6.24C1714.88,1370.71,1713.93,1368.7,1713.9,1369.19
		 M1979.2,1425.07c-22.38,24.2-29.55,45.19-30.56,89.46c-0.47,20.75-2.04,37.46-4.94,52.77c-0.42,2.22-1.43,7.65-2.25,12.07
		c-4.63,25.15-9.64,44.21-14.39,54.69c-0.7,1.55-1.28,3.09-1.28,3.41c0,0.33-1.81,4.21-4.02,8.62c-2.21,4.42-4.02,8.15-4.02,8.3
		c0,0.33,17.06-4.56,17.39-4.98c0.86-1.1,6.47-15.81,8.29-21.71c3.28-10.66,3.83-12.77,5.31-20.61c0.75-3.93,1.68-8.76,2.08-10.73
		c4.85-23.95,5.67-31.99,6.75-66.18c1.24-39.43,6.83-60.55,23.05-87.13c1.03-1.68,2.15-4.7,2.5-6.71c0.35-2.01,1.11-5.99,1.68-8.85
		C1986.69,1417.99,1986.02,1417.7,1979.2,1425.07 M1131.64,1637.96c-0.01,0.74,0.58,2.13,1.31,3.08c1.67,2.21,1.65,0.75-0.03-2.18
		C1132.17,1637.55,1131.64,1637.18,1131.64,1637.96 M2061.24,1742.29c-0.35,2.38-1.01,5.33-1.47,6.56c-0.7,1.87-0.45,2.56,1.57,4.29
		c3.24,2.79,3.34,2.47,2.14-6.65C2062.23,1737.02,2062.06,1736.7,2061.24,1742.29 M1186.18,1780.45c0.62,0.69,12.19,5.08,13.39,5.08
		c2.68,0,0.13-1.62-4.72-2.99c-3.07-0.87-6.4-1.82-7.38-2.11C1186.49,1780.14,1185.91,1780.15,1186.18,1780.45 M1883.76,1900.04
		c-3.2,1.39-5.8,2.86-5.77,3.26c0.21,4.07,2.41,8.37,3.72,7.28c0.78-0.65,2.67-1.58,4.19-2.08c2.2-0.71,2.86-1.52,3.28-4.02
		c0.3-1.72,0.83-4.04,1.19-5.15C1891.18,1896.87,1890.98,1896.89,1883.76,1900.04 M1883.41,1922.82c0.74,3.29,1.25,4,1.23,1.72
		c-0.01-0.94-0.42-2.32-0.92-3.06C1883.05,1920.5,1882.97,1920.86,1883.41,1922.82 M864.3,1960.38c-0.01,0.99,0.32,2.6,0.75,3.58
		c0.98,2.28,0.98-0.07,0-3.13C864.47,1959.04,864.32,1958.94,864.3,1960.38 M1868.48,1988.3c-9.73,10.23-19.6,25.01-27.93,41.81
		c-4.85,9.77-6.58,13.87-11.21,26.42c-2.7,7.34-1.98,21.51,1.48,28.73c4.14,8.66,5.54,9.47,5.54,3.19
		c0-17.2,15.54-57.24,29.93-77.09c1.93-2.66,3.45-7.93,4.52-15.65c0.31-2.22,0.97-5.34,1.46-6.94
		C1873.77,1983.93,1872.76,1983.8,1868.48,1988.3 M1775.93,2091.19c-16.2,21.64-50.15,57.29-71.04,74.61
		c-98.83,81.93-202.5,104.86-312.59,69.16c-1.35-0.44-1.46-0.38-0.45,0.26c4,2.52,29.38,10.29,46.06,14.1
		c108.64,24.83,218.81-13.58,312.19-108.85c18.14-18.51,39.75-44.06,39.75-47.01c0-1.13-7.04-9.21-8.02-9.21
		C1781.44,2084.26,1778.78,2087.38,1775.93,2091.19 M1832.01,2106.94l-3,1.09l3.77,3.4c2.07,1.87,5.14,3.98,6.8,4.67
		c1.67,0.7,3.03,1.64,3.03,2.09c0,1.15-4.9,4.52-6.57,4.52c-0.76,0-1.58,0.34-1.83,0.75c-0.41,0.65-6.65,2.3-11.73,3.09
		c-1.51,0.24-1.34,0.52,1.11,1.81c6.35,3.38,20.81,3.05,20.81-0.47c0-1.01,0.46-3.36,1.01-5.22c0.96-3.19,0.86-3.55-1.79-6.36
		c-1.53-1.64-3.5-4.7-4.36-6.78C1837.6,2105.48,1836.82,2105.2,1832.01,2106.94 M1000.1,2349.05c4.58,4.24,16.82,15.25,21.44,19.27
		c2.2,1.92,4.81,4.29,5.82,5.29c1,0.99,5.24,4.81,9.42,8.49c4.18,3.68,8.21,7.31,8.94,8.05c0.74,0.75,2.75,2.52,4.46,3.93
		c1.72,1.41,5.9,5.03,9.31,8.03c8.25,7.3,14.32,12.59,20.65,17.99c2.88,2.46,6.68,5.7,8.44,7.21c7.66,6.55,20.04,15.99,21.19,16.15
		c0.68,0.1,5.57,2.59,10.86,5.53c207.29,115.18,467.92,122.29,704.56,19.22c27.1-11.81,61.44-28.77,60.69-29.98
		c-0.42-0.69-12.37-6.62-31.87-15.83l-6.06-2.86l-9.14,4.44c-13.74,6.68-28.36,13.56-28.82,13.56c-0.22,0-3.13,1.25-6.46,2.78
		c-3.33,1.53-8.04,3.56-10.46,4.52c-2.42,0.96-6.04,2.48-8.05,3.39c-2.01,0.91-9.69,3.94-17.06,6.74
		c-7.38,2.8-14.22,5.43-15.21,5.85c-3.18,1.36-19.4,6.93-29.96,10.29c-5.66,1.8-12.5,4.01-15.2,4.92
		c-14.63,4.9-56.74,15.7-76.47,19.6c-2.95,0.58-6.78,1.41-8.5,1.84c-1.72,0.42-9.57,1.81-17.44,3.08
		c-7.87,1.28-16.52,2.69-19.23,3.15c-12.72,2.15-32.05,4.4-53.66,6.25c-63.51,5.43-126.95,3.05-190.51-7.13
		c-13.71-2.19-27.56-4.85-42.03-8.04c-10.58-2.33-16.23-3.65-20.57-4.81c-2.7-0.72-8.94-2.37-13.86-3.66
		c-27.46-7.21-72.38-22.94-95.56-33.48c-3.03-1.38-8.12-3.65-11.32-5.05c-47.4-20.74-129.7-71.97-152.94-95.2
		c-0.25-0.25-2.26-1.79-4.47-3.43l-4.02-2.99L1000.1,2349.05 M2160.51,2349.22l-2.63,2.9l2.91-2.62c2.71-2.45,3.32-3.19,2.63-3.19
		C2163.27,2346.31,2161.96,2347.62,2160.51,2349.22"/>
	<path id="path4" class="st9" d="M1399.43,1233.45c-4.33,8.25-9.16,17.41-10.74,20.37c-1.57,2.95-5.37,10.12-8.44,15.92l-5.58,10.56
		l-7.64,3.53c-9.61,4.44-5.45,4.88-43.23-4.55c-17.81-4.44-32.52-7.94-32.69-7.77c-0.17,0.17,9.25,5.5,20.92,11.83
		c11.68,6.33,25.4,13.82,30.51,16.63l9.28,5.12l3.47,7.78c4.31,9.68,4.83,4.74-4.59,43.54c-4.43,18.25-7.92,33.32-7.73,33.51
		c0.18,0.18,7.56-13.46,16.39-30.33l16.06-30.65l7.54-3.77c9.63-4.81,6.23-5.13,44.21,4.21c17.99,4.43,33,8.05,33.35,8.05
		c0.63,0-5.74-3.51-41.25-22.73c-21.22-11.48-20.83-11.14-25.17-21.93l-2.49-6.18l2.78-11.47c1.53-6.31,5.21-21.49,8.18-33.74
		c2.97-12.25,5.25-22.42,5.07-22.6C1407.46,1218.6,1403.76,1225.2,1399.43,1233.45z"/>
</g>
</svg>
