<svg id="Layer_1" data-name="Layer 1" xmlns="http://www.w3.org/2000/svg" viewBox="0 0 300 100"><defs><style>.cls-1{fill:#2880ba;}.cls-2{fill:#fff;}</style></defs><title>survival_of_the_fittest_banner</title><rect class="cls-1" width="300" height="100"/><path class="cls-2" d="M22.83,53.52a3.45,3.45,0,0,0-1.25-2.8,13.06,13.06,0,0,0-4.55-2,16.09,16.09,0,0,1-4.84-2A4.81,4.81,0,0,1,10,42.65a4.76,4.76,0,0,1,2-4,8.27,8.27,0,0,1,5.15-1.53A8.49,8.49,0,0,1,21,38a6.16,6.16,0,0,1,2.6,2.28,6,6,0,0,1,.92,3.27H22.7A4.48,4.48,0,0,0,21.2,40a5.78,5.78,0,0,0-4-1.33,6.33,6.33,0,0,0-3.9,1.09,3.43,3.43,0,0,0-1.45,2.86,3.22,3.22,0,0,0,1.31,2.65,11.94,11.94,0,0,0,4.17,1.81,19.77,19.77,0,0,1,4.35,1.63,6.12,6.12,0,0,1,2.23,2,5,5,0,0,1,.75,2.76,4.85,4.85,0,0,1-2,4,8.6,8.6,0,0,1-5.31,1.52,10.4,10.4,0,0,1-4.14-.81A6.25,6.25,0,0,1,10.33,56a5.85,5.85,0,0,1-1-3.33h1.8a4.26,4.26,0,0,0,1.69,3.56,7.12,7.12,0,0,0,4.48,1.31,6.67,6.67,0,0,0,4-1.1A3.43,3.43,0,0,0,22.83,53.52Z" transform="translate(0 0)"/><path class="cls-2" d="M38.31,56.76a5.7,5.7,0,0,1-5.05,2.3,4.9,4.9,0,0,1-3.85-1.47,6.46,6.46,0,0,1-1.35-4.36V42.92H29.8V53q0,4.53,3.66,4.53t4.82-3.15V42.92H40V58.77h-1.7Z" transform="translate(0 0)"/><path class="cls-2" d="M51.92,44.41a6.44,6.44,0,0,0-1.19-.1,4.23,4.23,0,0,0-2.77.92,5,5,0,0,0-1.62,2.65V58.77H44.6V42.92h1.71l0,2.52a4.67,4.67,0,0,1,4.47-2.82,2.85,2.85,0,0,1,1.16.2Z" transform="translate(0 0)"/><path class="cls-2" d="M59.89,56.35l4.82-13.43h1.8L60.59,58.77H59.17L53.23,42.92H55Z" transform="translate(0 0)"/><path class="cls-2" d="M69.28,38.34a1.2,1.2,0,0,1,.32-.84,1.19,1.19,0,0,1,.88-.34,1.21,1.21,0,0,1,.89.34,1.17,1.17,0,0,1,.33.84,1.13,1.13,0,0,1-.33.83,1.21,1.21,0,0,1-.89.33,1.18,1.18,0,0,1-.88-.33A1.16,1.16,0,0,1,69.28,38.34Zm2.07,20.43H69.59V42.92h1.76Z" transform="translate(0 0)"/><path class="cls-2" d="M81,56.35l4.82-13.43h1.8L81.75,58.77H80.32L74.38,42.92h1.8Z" transform="translate(0 0)"/><path class="cls-2" d="M100.32,58.77a8.19,8.19,0,0,1-.34-2.21,6.14,6.14,0,0,1-2.35,1.85,7.26,7.26,0,0,1-3,.65,5.3,5.3,0,0,1-3.7-1.27,4.18,4.18,0,0,1-1.42-3.23,4.26,4.26,0,0,1,1.93-3.66,9.23,9.23,0,0,1,5.37-1.35H100v-1.8a3.46,3.46,0,0,0-1-2.67,4.33,4.33,0,0,0-3-1,4.85,4.85,0,0,0-3,.94,2.8,2.8,0,0,0-1.2,2.26l-1.75,0A4.06,4.06,0,0,1,91.63,44,6.82,6.82,0,0,1,96,42.62,6.21,6.21,0,0,1,100.14,44a4.76,4.76,0,0,1,1.57,3.7v7.5a9.35,9.35,0,0,0,.48,3.44v.18Zm-5.51-1.26A5.93,5.93,0,0,0,98,56.66a5,5,0,0,0,2-2.27V50.9H96.83a7.88,7.88,0,0,0-4.1,1,2.89,2.89,0,0,0-1.48,2.56,2.83,2.83,0,0,0,1,2.21A3.76,3.76,0,0,0,94.81,57.51Z" transform="translate(0 0)"/><path class="cls-2" d="M108.35,58.77h-1.76V36.27h1.76Z" transform="translate(0 0)"/><path class="cls-2" d="M119.44,50.61a9.33,9.33,0,0,1,.88-4.12,6.68,6.68,0,0,1,6.18-3.87,6.51,6.51,0,0,1,5.12,2.22,8.56,8.56,0,0,1,2,5.89v.36a9.45,9.45,0,0,1-.89,4.14,6.52,6.52,0,0,1-2.5,2.83,6.78,6.78,0,0,1-3.67,1,6.52,6.52,0,0,1-5.12-2.22,8.5,8.5,0,0,1-2-5.88Zm1.75.48a7.16,7.16,0,0,0,1.48,4.67,5,5,0,0,0,7.7,0A7.44,7.44,0,0,0,131.84,51v-.34a8.09,8.09,0,0,0-.67-3.33A5.43,5.43,0,0,0,129.28,45a4.84,4.84,0,0,0-2.78-.83A4.68,4.68,0,0,0,122.67,46a7.46,7.46,0,0,0-1.48,4.81Z" transform="translate(0 0)"/><path class="cls-2" d="M138.46,58.77V44.35h-2.62V42.92h2.62V41a5.26,5.26,0,0,1,1.24-3.74,4.54,4.54,0,0,1,3.45-1.3,6.49,6.49,0,0,1,1.86.25l-.13,1.45a6.7,6.7,0,0,0-1.6-.18,2.83,2.83,0,0,0-2.25.91,3.69,3.69,0,0,0-.81,2.56v2H144v1.43h-3.78V58.77Z" transform="translate(0 0)"/><path class="cls-2" d="M168.73,39h-7.31V58.77h-1.8V39h-7.3V37.44h16.41Z" transform="translate(0 0)"/><path class="cls-2" d="M173.5,45.6a6.23,6.23,0,0,1,2.22-2.2,5.75,5.75,0,0,1,2.94-.78,4.74,4.74,0,0,1,3.79,1.44,6.48,6.48,0,0,1,1.26,4.31v10.4H182V48.35a4.84,4.84,0,0,0-.9-3.16,3.54,3.54,0,0,0-2.83-1,4.41,4.41,0,0,0-2.88,1,5.93,5.93,0,0,0-1.86,2.74V58.77h-1.74V36.27h1.74Z" transform="translate(0 0)"/><path class="cls-2" d="M194.36,59.06a6.84,6.84,0,0,1-3.65-1,6.74,6.74,0,0,1-2.54-2.77,8.62,8.62,0,0,1-.91-4v-.63a9.2,9.2,0,0,1,.89-4.12,7.08,7.08,0,0,1,2.46-2.88A6.1,6.1,0,0,1,194,42.62a5.72,5.72,0,0,1,4.58,2A8,8,0,0,1,200.31,50v1H189v.34a6.66,6.66,0,0,0,1.55,4.49,4.92,4.92,0,0,0,3.89,1.79,5.75,5.75,0,0,0,2.48-.51,5.53,5.53,0,0,0,2-1.64l1.09.83A6.39,6.39,0,0,1,194.36,59.06ZM194,44.12a4.36,4.36,0,0,0-3.33,1.45,6.68,6.68,0,0,0-1.65,3.9h9.51v-.19a5.85,5.85,0,0,0-1.31-3.73A4,4,0,0,0,194,44.12Z" transform="translate(0 0)"/><path class="cls-2" d="M223.18,48.79h-10v10h-1.8V37.44h13.21V39H213.23v8.31h10Z" transform="translate(0 0)"/><path class="cls-2" d="M227.79,38.34a1.2,1.2,0,0,1,.32-.84,1.19,1.19,0,0,1,.88-.34,1.21,1.21,0,0,1,.89.34,1.17,1.17,0,0,1,.33.84,1.13,1.13,0,0,1-.33.83,1.21,1.21,0,0,1-.89.33,1.18,1.18,0,0,1-.88-.33A1.16,1.16,0,0,1,227.79,38.34Zm2.07,20.43H228.1V42.92h1.76Z" transform="translate(0 0)"/><path class="cls-2" d="M237.34,38.86v4.06h3.28v1.43h-3.28V54.93a3.27,3.27,0,0,0,.48,2,1.84,1.84,0,0,0,1.59.65,10.79,10.79,0,0,0,1.42-.15l.07,1.42a5.55,5.55,0,0,1-1.87.25A3.14,3.14,0,0,1,236.4,58a5,5,0,0,1-.82-3.08V44.35h-2.91V42.92h2.91V38.86Z" transform="translate(0 0)"/><path class="cls-2" d="M247,38.86v4.06h3.28v1.43H247V54.93a3.27,3.27,0,0,0,.48,2,1.83,1.83,0,0,0,1.59.65,10.79,10.79,0,0,0,1.42-.15l.07,1.42a5.55,5.55,0,0,1-1.87.25A3.13,3.13,0,0,1,246,58a5,5,0,0,1-.82-3.08V44.35h-2.91V42.92h2.91V38.86Z" transform="translate(0 0)"/><path class="cls-2" d="M260,59.06a6.81,6.81,0,0,1-3.65-1,6.74,6.74,0,0,1-2.54-2.77,8.62,8.62,0,0,1-.91-4v-.63a9.33,9.33,0,0,1,.88-4.12,7.1,7.1,0,0,1,2.47-2.88,6.1,6.1,0,0,1,3.43-1.05,5.72,5.72,0,0,1,4.58,2A8,8,0,0,1,266,50v1H254.67v.34a6.66,6.66,0,0,0,1.55,4.49,4.92,4.92,0,0,0,3.89,1.79,5.75,5.75,0,0,0,2.48-.51,5.42,5.42,0,0,0,2-1.64l1.1.83A6.39,6.39,0,0,1,260,59.06Zm-.32-14.94a4.36,4.36,0,0,0-3.33,1.45,6.62,6.62,0,0,0-1.65,3.9h9.51v-.19a5.85,5.85,0,0,0-1.31-3.73A4,4,0,0,0,259.71,44.12Z" transform="translate(0 0)"/><path class="cls-2" d="M278.88,54.74a2.5,2.5,0,0,0-1-2.1,8.24,8.24,0,0,0-3.16-1.23,13.91,13.91,0,0,1-3.27-1A4.3,4.3,0,0,1,269.68,49a3.5,3.5,0,0,1-.57-2,3.78,3.78,0,0,1,1.57-3.1,6.32,6.32,0,0,1,4-1.23A6.49,6.49,0,0,1,279,43.94a4.19,4.19,0,0,1,1.6,3.42H278.8A2.85,2.85,0,0,0,277.63,45a5.26,5.26,0,0,0-5.71-.15,2.37,2.37,0,0,0-1.05,2,2.17,2.17,0,0,0,.87,1.84,9.28,9.28,0,0,0,3.18,1.19,14.92,14.92,0,0,1,3.46,1.16,4.5,4.5,0,0,1,1.71,1.48,4.08,4.08,0,0,1-1.07,5.3,6.9,6.9,0,0,1-4.22,1.2,7.12,7.12,0,0,1-4.49-1.34,4.11,4.11,0,0,1-1.72-3.39h1.75a3,3,0,0,0,1.3,2.39,5.32,5.32,0,0,0,3.16.86,5.05,5.05,0,0,0,3-.8A2.42,2.42,0,0,0,278.88,54.74Z" transform="translate(0 0)"/><path class="cls-2" d="M287.31,38.86v4.06h3.28v1.43h-3.28V54.93a3.35,3.35,0,0,0,.47,2,1.86,1.86,0,0,0,1.59.65,10.47,10.47,0,0,0,1.42-.15l.08,1.42a5.61,5.61,0,0,1-1.88.25A3.12,3.12,0,0,1,286.37,58a4.9,4.9,0,0,1-.82-3.08V44.35h-2.92V42.92h2.92V38.86Z" transform="translate(0 0)"/></svg>