<svg id="Layer_1" data-name="Layer 1" xmlns="http://www.w3.org/2000/svg" viewBox="0 0 890 326"><defs><style>.cls-1{fill:#eeeff7;}.cls-2{fill:#92cdcf;}.cls-3{fill:#efeff7;}.cls-4{fill:#445878;}.cls-5{isolation:isolate;}</style></defs><title>webtunes_banner4</title><path class="cls-1" d="M-5.43.5v326h890V.5Z" transform="translate(5.43 -0.5)"/><path class="cls-2" d="M39.57,153.5c-9.46,1.71-18,10.1-21.29,19-3,8.05-1.71,17.55-1.71,26v44c0,10-.67,19.32,5.1,28,12.07,18.13,35.11,14,53.9,14v-91c0-18.48-1.21-37.8,2.45-56a98.5,98.5,0,0,1,29.64-52.42c16.52-15.2,37.43-25.24,59.9-27.41,11.8-1.14,24.14-.17,36-.17h475c11.53,0,23.51-.93,35,.17a104,104,0,0,1,62,28.87c13.48,13.21,23.77,31.4,27.57,50,3.74,18.32,2.45,37.41,2.45,56v92c19.44,0,42.71,4.15,54.86-15,6-9.5,5.14-21.27,5.14-32v-38c0-8,.64-16.21-1.5-24-2.89-10.55-11.53-20-22.5-22,0-60.17-44.75-114.16-103-127.76-18.88-4.41-37.74-4.24-57-4.24h-440c-32.6,0-67.05-3.22-99,4.24C84.47,39.3,39.73,93.48,39.57,153.5Z" transform="translate(5.43 -0.5)"/><path class="cls-3" d="M113.57,143.5v182h647v-182Z" transform="translate(5.43 -0.5)"/><path class="cls-4" d="M92.58,155.36c-10.17,4.25-7,21.42-7,30.14,0,28.22-1.35,56.81,0,85,.46,9.44,8.26,17,17.94,13,10.41-4.34,7-21,7-30v-59c0-9.83,1-20.23-.11-30-.95-8.44-10.43-12.26-17.88-9.14m685-.12c-10.3,4.06-7,21.61-7,30.26v81c0,10.23,4.29,21.38,17,17.35,11.24-3.57,8-20.32,8-29.35,0-29.18,1.64-58.88-.05-88-.53-9.23-9.15-14.72-17.94-11.26Z" transform="translate(5.43 -0.5)"/><g class="cls-5"><g class="cls-5"><path d="M161,251.62l4.35-15.82L188,161.57h4l22.54,74.23,4.29,15.82,4.48-15.82,19.78-74.23H247l-25.84,96h-4l-23.79-80-3.36-10.16-3.23,10.16-24,80h-4l-25.9-96h4l19.91,74.23Z" transform="translate(5.43 -0.5)"/><path d="M288,258.87a28.66,28.66,0,0,1-15.85-4.65,32,32,0,0,1-11.31-12.75,39.5,39.5,0,0,1-4.08-18v-3a41.4,41.4,0,0,1,4-18.12,31.32,31.32,0,0,1,10.88-12.86,26.68,26.68,0,0,1,15.09-4.61q11.94,0,19.52,8.5t7.58,22.35v3.75H260.34v3.89A35.82,35.82,0,0,0,264,239.49a28.79,28.79,0,0,0,10.08,11.61A24.93,24.93,0,0,0,288,255.31a28.44,28.44,0,0,0,12.23-2.39,24.81,24.81,0,0,0,8.93-7.37l2.51,1.78Q303.71,258.87,288,258.87Zm-1.32-70.4A23.28,23.28,0,0,0,269,196.21Q261.78,204,260.53,216h49.71v-.86a30.14,30.14,0,0,0-3.07-13.48,23.66,23.66,0,0,0-8.44-9.69A21.71,21.71,0,0,0,286.7,188.47Z" transform="translate(5.43 -0.5)"/><path d="M384.92,222.55q0,16.68-7.18,26.5a23,23,0,0,1-19.58,9.82,30.4,30.4,0,0,1-14.37-3.33,25.2,25.2,0,0,1-10-9.26v11.27h-3.55V156.3h3.55v42.91a26.51,26.51,0,0,1,9.93-10.68A27.65,27.65,0,0,1,358,184.91q12.53,0,19.71,9.59t7.18,26.93Zm-3.69-1.39q0-15.36-6.1-24t-17-8.67a24.85,24.85,0,0,0-15.19,4.61q-6.22,4.62-9.07,13.71v32.7a23.45,23.45,0,0,0,9.07,11.7q6.23,4.13,15.32,4.12,11,0,17-8.77T381.23,221.16Z" transform="translate(5.43 -0.5)"/><path d="M470,165.13H435.08v92.42h-3.55V165.13H396.59v-3.56H470Z" transform="translate(5.43 -0.5)"/><path d="M526.51,257.55V246a23.22,23.22,0,0,1-9.22,9.4q-6.07,3.45-15.36,3.46-11.67,0-17.51-6.82t-6-19.88V186.23H482V232.3q.14,11.34,5.14,17.17t14.63,5.84q10.23,0,16.62-4.81t8.1-14.11V186.23h3.63v71.32Z" transform="translate(5.43 -0.5)"/><path d="M556.18,202.84a29.81,29.81,0,0,1,10.28-13.12,25.41,25.41,0,0,1,15-4.81q11.47,0,17,6.49T604.17,211v46.54h-3.56V210.92q-.08-11.44-4.68-16.95t-14.64-5.5a22.17,22.17,0,0,0-16,6.55,33.22,33.22,0,0,0-9.13,16.89v45.64h-3.56V186.23h3.56Z" transform="translate(5.43 -0.5)"/><path d="M652.15,258.87a28.68,28.68,0,0,1-15.85-4.65A31.89,31.89,0,0,1,625,241.47a39.38,39.38,0,0,1-4.09-18v-3a41.4,41.4,0,0,1,4-18.12,31.32,31.32,0,0,1,10.88-12.86,26.68,26.68,0,0,1,15.09-4.61q11.94,0,19.52,8.5t7.58,22.35v3.75H624.47v3.89a35.82,35.82,0,0,0,3.66,16.09,28.79,28.79,0,0,0,10.08,11.61,24.93,24.93,0,0,0,13.94,4.21,28.44,28.44,0,0,0,12.23-2.39,24.81,24.81,0,0,0,8.93-7.37l2.51,1.78Q667.84,258.87,652.15,258.87Zm-1.32-70.4a23.28,23.28,0,0,0-17.66,7.74q-7.26,7.75-8.5,19.75h49.7v-.86a30,30,0,0,0-3.07-13.48,23.59,23.59,0,0,0-8.44-9.69A21.71,21.71,0,0,0,650.83,188.47Z" transform="translate(5.43 -0.5)"/><path d="M738.5,240.08q0-13-22.14-17.66-13.32-2.83-18.53-7.29t-5.2-12.23A15.61,15.61,0,0,1,699.25,190q6.63-5.07,17.24-5.07,11.53,0,18.52,5.5a17.94,17.94,0,0,1,7,14.87h-3.63a14.75,14.75,0,0,0-6.06-12q-6.06-4.82-15.82-4.81-9.36,0-14.83,4.08t-5.47,10.22a12.38,12.38,0,0,0,2,7.55,17.61,17.61,0,0,0,6.66,4.94,67.7,67.7,0,0,0,13.44,4.25,57.59,57.59,0,0,1,14,4.82,18.83,18.83,0,0,1,7.45,6.56,17.45,17.45,0,0,1,2.31,9.26,16.12,16.12,0,0,1-6.93,13.58q-6.92,5.13-18.12,5.14-12,0-19.35-5.44t-7.35-14h3.56a14.75,14.75,0,0,0,6.62,11.7q6.11,4.19,16.52,4.19,9.56,0,15.52-4.45T738.5,240.08Z" transform="translate(5.43 -0.5)"/></g></g></svg>